<svg xmlns="http://www.w3.org/2000/svg" width="40" height="40" viewBox="0 0 40 40">
  <metadata><?xpacket begin="﻿" id="W5M0MpCehiHzreSzNTczkc9d"?>
<x:xmpmeta xmlns:x="adobe:ns:meta/" x:xmptk="Adobe XMP Core 5.6-c138 79.159824, 2016/09/14-01:09:01        ">
   <rdf:RDF xmlns:rdf="http://www.w3.org/1999/02/22-rdf-syntax-ns#">
      <rdf:Description rdf:about=""/>
   </rdf:RDF>
</x:xmpmeta>
                                                                                                    
                                                                                                    
                                                                                                    
                                                                                                    
                                                                                                    
                                                                                                    
                                                                                                    
                                                                                                    
                                                                                                    
                                                                                                    
                                                                                                    
                                                                                                    
                                                                                                    
                                                                                                    
                                                                                                    
                                                                                                    
                                                                                                    
                                                                                                    
                                                                                                    
                                                                                                    
                           
<?xpacket end="w"?></metadata>
<defs>
    <style>
      .cls-1 {
        fill: #fff;
        fill-rule: evenodd;
      }
    </style>
  </defs>
  <path id="矩形_4_副本_7" data-name="矩形 4 副本 7" class="cls-1" d="M40,19H39.851c-0.045.338-.113,0.669-0.181,1H37.638a12.991,12.991,0,0,0-24.8-7.584h0a12.856,12.856,0,0,0-.571,1.916,8.14,8.14,0,0,0-1.005-.223c-0.22-.034-0.445-0.049-0.67-0.066C10.4,14.029,10.2,14,10,14a8,8,0,0,0,0,16h7v2H10a10,10,0,1,1,0-20c0.288,0,.566.038,0.848,0.063A14.993,14.993,0,0,1,40,17c0,0.338-.029.668-0.051,1H40v1ZM39.222,31a0.778,0.778,0,0,1,.778.778v5.445a0.778,0.778,0,0,1-.778.778H20.778A0.778,0.778,0,0,1,20,37.222V31.778A0.778,0.778,0,0,1,20.778,31H22V29H20.778A0.778,0.778,0,0,1,20,28.222V22.778A0.778,0.778,0,0,1,20.778,22H39.222a0.778,0.778,0,0,1,.778.778v5.445a0.778,0.778,0,0,1-.778.778H38v2h1.222Zm-1.217-3.995V23.995H21.995v3.011H38.005ZM24,29v2H36V29H24Zm-2.005,3.995v3.011H38.005V32.995H21.995ZM34,33h2v2H34V33Zm2-7H34V24h2v2Z"/>
</svg>
