<svg xmlns="http://www.w3.org/2000/svg" width="40" height="40" viewBox="0 0 40 40">
  <metadata><?xpacket begin="﻿" id="W5M0MpCehiHzreSzNTczkc9d"?>
<x:xmpmeta xmlns:x="adobe:ns:meta/" x:xmptk="Adobe XMP Core 5.6-c138 79.159824, 2016/09/14-01:09:01        ">
   <rdf:RDF xmlns:rdf="http://www.w3.org/1999/02/22-rdf-syntax-ns#">
      <rdf:Description rdf:about=""/>
   </rdf:RDF>
</x:xmpmeta>
                                                                                                    
                                                                                                    
                                                                                                    
                                                                                                    
                                                                                                    
                                                                                                    
                                                                                                    
                                                                                                    
                                                                                                    
                                                                                                    
                                                                                                    
                                                                                                    
                                                                                                    
                                                                                                    
                                                                                                    
                                                                                                    
                                                                                                    
                                                                                                    
                                                                                                    
                                                                                                    
                           
<?xpacket end="w"?></metadata>
<defs>
    <style>
      .cls-1 {
        fill: #fff;
        fill-rule: evenodd;
      }
    </style>
  </defs>
  <path id="IP" class="cls-1" d="M20.013,40.007c-0.044,0-.087-0.006-0.131-0.007H20V38.005h0.012a17.873,17.873,0,0,0,17.8-20.567l1.962-.393A19.861,19.861,0,0,1,20.013,40.007Zm-18-20A17.99,17.99,0,0,0,2.806,25.3l-1.937.484A19.991,19.991,0,0,1,20,.007v2A18,18,0,0,0,2.012,20.006Zm18,15a15,15,0,1,1,15-15A15,15,0,0,1,20.01,35Zm0-28a13,13,0,1,0,13,13A13,13,0,0,0,20.009,7ZM15,13.353a0.283,0.283,0,0,0-.046-0.161,0.31,0.31,0,0,0-.162-0.109,1.759,1.759,0,0,0-.306-0.069A3.307,3.307,0,0,0,14,12.985a3.112,3.112,0,0,0-.456.029,1.934,1.934,0,0,0-.312.069,0.347,0.347,0,0,0-.173.109,0.26,0.26,0,0,0-.052.161V27.64a0.282,0.282,0,0,0,.046.161,0.308,0.308,0,0,0,.162.109,1.753,1.753,0,0,0,.311.069,3.961,3.961,0,0,0,.952,0,1.759,1.759,0,0,0,.306-0.069A0.309,0.309,0,0,0,14.95,27.8,0.283,0.283,0,0,0,15,27.64V13.353Zm12.772,2.475a3.775,3.775,0,0,0-1.71-2.125,4.2,4.2,0,0,0-1.212-.5,8.433,8.433,0,0,0-1.031-.173q-0.436-.04-0.912-0.04H19.766a0.752,0.752,0,0,0-.77.855V27.638a0.289,0.289,0,0,0,.045.162,0.3,0.3,0,0,0,.159.11,1.677,1.677,0,0,0,.3.069,3.837,3.837,0,0,0,.94,0,1.532,1.532,0,0,0,.294-0.069,0.337,0.337,0,0,0,.159-0.11,0.265,0.265,0,0,0,.051-0.162L21,22h2a10.7,10.7,0,0,0,1.948-.091,3.246,3.246,0,0,0,1.654-.982,4.273,4.273,0,0,0,1.036-1.536A5.374,5.374,0,0,0,28,17.37,4.874,4.874,0,0,0,27.768,15.828Zm-2.022,2.945a2.694,2.694,0,0,1-.6.982A2.555,2.555,0,0,1,24,20c0.049,0-.411,0-1,0H21V15h2a6.2,6.2,0,0,1,1,0,1.451,1.451,0,0,1,.789.095,2.355,2.355,0,0,1,.827.912,3.154,3.154,0,0,1,.334,1.525A3.672,3.672,0,0,1,25.746,18.773Z"/>
</svg>
