<svg xmlns="http://www.w3.org/2000/svg" width="40" height="40" viewBox="0 0 40 40">
  <metadata><?xpacket begin="﻿" id="W5M0MpCehiHzreSzNTczkc9d"?>
<x:xmpmeta xmlns:x="adobe:ns:meta/" x:xmptk="Adobe XMP Core 5.6-c138 79.159824, 2016/09/14-01:09:01        ">
   <rdf:RDF xmlns:rdf="http://www.w3.org/1999/02/22-rdf-syntax-ns#">
      <rdf:Description rdf:about=""/>
   </rdf:RDF>
</x:xmpmeta>
                                                                                                    
                                                                                                    
                                                                                                    
                                                                                                    
                                                                                                    
                                                                                                    
                                                                                                    
                                                                                                    
                                                                                                    
                                                                                                    
                                                                                                    
                                                                                                    
                                                                                                    
                                                                                                    
                                                                                                    
                                                                                                    
                                                                                                    
                                                                                                    
                                                                                                    
                                                                                                    
                           
<?xpacket end="w"?></metadata>
<defs>
    <style>
      .cls-1 {
        fill: #fff;
        fill-rule: evenodd;
      }
    </style>
  </defs>
  <path id="矩形_6" data-name="矩形 6" class="cls-1" d="M38.546,36H25.46a1.433,1.433,0,0,1-1.454-1.412V13.407a1.433,1.433,0,0,1,1.454-1.412H38.546A1.433,1.433,0,0,1,40,13.407V34.588A1.433,1.433,0,0,1,38.546,36ZM38.013,14.75a0.748,0.748,0,0,0-.731-0.763H26.724a0.748,0.748,0,0,0-.731.763V33.245a0.748,0.748,0,0,0,.731.763H37.281a0.748,0.748,0,0,0,.731-0.763V14.75Zm-4,14.237H36v2.029H34.016V28.987Zm1.308-3h-6.67a0.882,0.882,0,0,1-.667-0.994A0.882,0.882,0,0,1,28.654,24h6.67a0.882,0.882,0,0,1,.667.994A0.882,0.882,0,0,1,35.325,25.985Zm0-3.992h-6.67A0.882,0.882,0,0,1,27.987,21,0.882,0.882,0,0,1,28.654,20h6.67a0.881,0.881,0,0,1,.667.994A0.882,0.882,0,0,1,35.325,21.993Zm0-3.992h-6.67a0.882,0.882,0,0,1-.667-0.994,0.882,0.882,0,0,1,.667-0.995h6.67a0.882,0.882,0,0,1,.667.995A0.881,0.881,0,0,1,35.325,18ZM30.991,5.708A0.7,0.7,0,0,0,30.3,4.993H2.679a0.7,0.7,0,0,0-.69.715V24.29a0.7,0.7,0,0,0,.69.715H21.992V27H16.983v5H15V27H1.32A1.327,1.327,0,0,1,0,25.664V4.333A1.327,1.327,0,0,1,1.32,3H31.684A1.327,1.327,0,0,1,33,4.333V9.986H30.991V5.708ZM21,33.991H11.013V32H21v1.989Z"/>
</svg>
