<svg xmlns="http://www.w3.org/2000/svg" width="40" height="40" viewBox="0 0 40 40">
  <metadata><?xpacket begin="﻿" id="W5M0MpCehiHzreSzNTczkc9d"?>
<x:xmpmeta xmlns:x="adobe:ns:meta/" x:xmptk="Adobe XMP Core 5.6-c138 79.159824, 2016/09/14-01:09:01        ">
   <rdf:RDF xmlns:rdf="http://www.w3.org/1999/02/22-rdf-syntax-ns#">
      <rdf:Description rdf:about=""/>
   </rdf:RDF>
</x:xmpmeta>
                                                                                                    
                                                                                                    
                                                                                                    
                                                                                                    
                                                                                                    
                                                                                                    
                                                                                                    
                                                                                                    
                                                                                                    
                                                                                                    
                                                                                                    
                                                                                                    
                                                                                                    
                                                                                                    
                                                                                                    
                                                                                                    
                                                                                                    
                                                                                                    
                                                                                                    
                                                                                                    
                           
<?xpacket end="w"?></metadata>
<defs>
    <style>
      .cls-1 {
        fill: #fff;
        fill-rule: evenodd;
      }
    </style>
  </defs>
  <path id="矩形_16_副本_4" data-name="矩形 16 副本 4" class="cls-1" d="M35.3,37H4.7A1.7,1.7,0,0,1,3,35.3V4.7A1.7,1.7,0,0,1,4.7,3H35.3A1.7,1.7,0,0,1,37,4.7V35.3A1.7,1.7,0,0,1,35.3,37ZM24,34.992h3V31H24v3.992Zm-6,0h4V31H18v3.992Zm-5,0h3V31H13v3.992ZM5.008,34.11a0.882,0.882,0,0,0,.882.882H11V31H5.008v3.11ZM34.992,5.89a0.882,0.882,0,0,0-.882-0.882H5.89a0.882,0.882,0,0,0-.882.882V29H34.992V5.89Zm0,25.11H29v3.992h5.11a0.882,0.882,0,0,0,.882-0.882V31ZM12,16H10V14h2v2Zm0,4H10V18h2v2Zm2.857-9H25.143a0.857,0.857,0,0,1,.857.857V22.143a0.857,0.857,0,0,1-.857.857H14.857A0.857,0.857,0,0,1,14,22.143V11.857A0.857,0.857,0,0,1,14.857,11ZM16,21H24V13H16V21Zm3,5H17V24h2v2Zm4,0H21V24h2v2Zm6-10H27V14h2v2Zm0,4H27V18h2v2ZM21,8h2v2H21V8ZM17,8h2v2H17V8Z"/>
</svg>
