<svg xmlns="http://www.w3.org/2000/svg" width="16" height="16" viewBox="0 0 16 16">
  <metadata><?xpacket begin="﻿" id="W5M0MpCehiHzreSzNTczkc9d"?>
<x:xmpmeta xmlns:x="adobe:ns:meta/" x:xmptk="Adobe XMP Core 5.6-c138 79.159824, 2016/09/14-01:09:01        ">
   <rdf:RDF xmlns:rdf="http://www.w3.org/1999/02/22-rdf-syntax-ns#">
      <rdf:Description rdf:about=""/>
   </rdf:RDF>
</x:xmpmeta>
                                                                                                    
                                                                                                    
                                                                                                    
                                                                                                    
                                                                                                    
                                                                                                    
                                                                                                    
                                                                                                    
                                                                                                    
                                                                                                    
                                                                                                    
                                                                                                    
                                                                                                    
                                                                                                    
                                                                                                    
                                                                                                    
                                                                                                    
                                                                                                    
                                                                                                    
                                                                                                    
                           
<?xpacket end="w"?></metadata>
<defs>
    <style>
      .cls-1 {
        fill: #b2bbc8;
        fill-rule: evenodd;
      }
    </style>
  </defs>
  <path id="删除图标.svg" class="cls-1" d="M706.889,144.3L703,140.414l-3.889,3.889a0.5,0.5,0,0,1-.707,0L697.7,143.6a0.5,0.5,0,0,1,0-.707L701.586,139l-3.889-3.889a0.5,0.5,0,0,1,0-.707l0.707-.707a0.5,0.5,0,0,1,.707,0L703,137.586l3.889-3.889a0.5,0.5,0,0,1,.707,0L708.3,134.4a0.5,0.5,0,0,1,0,.707L704.414,139l3.889,3.889a0.5,0.5,0,0,1,0,.707l-0.707.707A0.5,0.5,0,0,1,706.889,144.3Z" transform="translate(-695.015 -131.016)"/>
</svg>
