<?xml version="1.0" encoding="UTF-8"?>
<svg width="50px" height="50px" viewBox="0 0 50 50" version="1.1" xmlns="http://www.w3.org/2000/svg" xmlns:xlink="http://www.w3.org/1999/xlink">
    <!-- Generator: Sketch 49 (51002) - http://www.bohemiancoding.com/sketch -->
    <title>椭圆_1_拷贝_4</title>
    <desc>Created with Sketch.</desc>
    <defs></defs>
    <g id="Page-1" stroke="none" stroke-width="1" fill="none" fill-rule="evenodd">
        <g id="edge-blue" fill="#457CD0">
            <path d="M25,50 C11.1928813,50 1.69088438e-15,38.8071187 0,25 C-1.69088438e-15,11.1928813 11.1928813,2.53632657e-15 25,0 C38.8071187,-2.53632657e-15 50,11.1928813 50,25 C50,31.6304122 47.366079,37.9892601 42.6776695,42.6776695 C37.9892601,47.366079 31.6304122,50 25,50 Z M25,2 C12.2974508,2 2,12.2974508 2,25 C2,37.7025492 12.2974508,48 25,48 C37.7025492,48 48,37.7025492 48,25 C48,18.9000207 45.5767927,13.0498807 41.263456,8.73654403 C36.9501193,4.42320733 31.0999793,2 25,2 Z M34,29 C35.7051079,28.9934592 37.228458,30.0643635 37.7994991,31.6710208 C38.3705402,33.2776782 37.8647643,35.0697782 36.5380065,36.1408287 C35.2112486,37.2118792 33.3527906,37.3283519 31.9026905,36.4313317 C30.4525903,35.5343115 29.7270231,33.8193818 30.093,32.154 L25,27.061 L19.907,32.155 C20.3113638,34.0295055 19.3285297,35.9272562 17.5642392,36.6786283 C15.7999487,37.4300003 13.7506403,36.8235716 12.6793462,35.2330969 C11.608052,33.6426222 11.8162144,31.5156316 13.1755383,30.1630343 C14.5348623,28.8104371 16.6628594,28.612829 18.248,29.692 L22.939,25 L17.6,19.662 C15.8333398,20.4369156 13.7652841,19.8444135 12.6769975,18.2515498 C11.5887108,16.6586861 11.7885094,14.5167259 13.1526177,13.1526177 C14.5167259,11.7885094 16.6586861,11.5887108 18.2515498,12.6769975 C19.8444135,13.7652841 20.4369156,15.8333398 19.662,17.6 L25,22.939 L30.338,17.6 C29.5630844,15.8333398 30.1555865,13.7652841 31.7484502,12.6769975 C33.3413139,11.5887108 35.4832741,11.7885094 36.8473823,13.1526177 C38.2114906,14.5167259 38.4112892,16.6586861 37.3230025,18.2515498 C36.2347159,19.8444135 34.1666602,20.4369156 32.4,19.662 L27.061,25 L31.753,29.692 C32.4152231,29.2403167 33.1984038,28.9991236 34,29 Z M34,34 C34.5522847,34 35,33.5522847 35,33 C35,32.4477153 34.5522847,32 34,32 C33.4477153,32 33,32.4477153 33,33 C33,33.5522847 33.4477153,34 34,34 Z M16,32 C15.4477153,32 15,32.4477153 15,33 C15,33.5522847 15.4477153,34 16,34 C16.5522847,34 17,33.5522847 17,33 C17,32.4477153 16.5522847,32 16,32 Z M16,15 C15.4477153,15 15,15.4477153 15,16 C15,16.5522847 15.4477153,17 16,17 C16.5522847,17 17,16.5522847 17,16 C17,15.4477153 16.5522847,15 16,15 Z M34,17 C34.5522847,17 35,16.5522847 35,16 C35,15.4477153 34.5522847,15 34,15 C33.4477153,15 33,15.4477153 33,16 C33,16.5522847 33.4477153,17 34,17 Z" id="椭圆_1_拷贝_4"></path>
        </g>
    </g>
</svg>