<svg xmlns="http://www.w3.org/2000/svg" width="22" height="22" viewBox="0 0 22 22">
  <defs>
    <style>
      .cls-1 {
        fill: #4c4e58;
        fill-rule: evenodd;
      }
    </style>
  </defs>
  <path id="ic_words" class="cls-1" d="M21,12l-1,2v6a1,1,0,0,1-1,1H17a1,1,0,0,1,0-2h1V14.024a31.47,31.47,0,0,1,1-3.029s-1-2.633-1-2.948V3H17a1,1,0,0,1,0-2h2a1,1,0,0,1,1,1V8l1,2a4.249,4.249,0,0,0,1,1S21.348,11.637,21,12Zm-4-1.5A1.5,1.5,0,1,1,15.5,9,1.5,1.5,0,0,1,17,10.5ZM11.5,12A1.5,1.5,0,1,1,13,10.5,1.5,1.5,0,0,1,11.5,12Zm-4,0A1.5,1.5,0,1,1,9,10.5,1.5,1.5,0,0,1,7.5,12ZM5,3H4V8.047c0,0.315-1,2.948-1,2.948a31.47,31.47,0,0,1,1,3.029V19H5a1,1,0,0,1,0,2H3a1,1,0,0,1-1-1V14L1,12c-0.348-.363-1-1-1-1a4.249,4.249,0,0,0,1-1L2,8V2A1,1,0,0,1,3,1H5A1,1,0,0,1,5,3Z"/>
</svg>
