<?xml version="1.0" standalone="no"?><!DOCTYPE svg PUBLIC "-//W3C//DTD SVG 1.1//EN" "http://www.w3.org/Graphics/SVG/1.1/DTD/svg11.dtd"><svg t="1605600768234" class="icon" viewBox="0 0 1024 1024" version="1.1" xmlns="http://www.w3.org/2000/svg" p-id="3449" xmlns:xlink="http://www.w3.org/1999/xlink" width="200" height="200"><defs><style type="text/css"></style></defs><path d="M236.307692 236.307692v685.292308a23.630769 23.630769 0 0 0 23.63077 23.630769h504.123076a23.630769 23.630769 0 0 0 23.63077-23.630769V236.307692H236.307692z m393.846154-78.76923v-55.138462a23.630769 23.630769 0 0 0-23.630769-23.630769H417.476923a23.630769 23.630769 0 0 0-23.630769 23.630769v55.138462h236.307692z m78.769231 0h275.692308a39.384615 39.384615 0 1 1 0 78.76923h-118.153847v708.923077c0 43.504246-35.264985 78.769231-78.76923 78.769231H236.307692c-43.504246 0-78.769231-35.264985-78.76923-78.769231V236.307692H39.384615a39.384615 39.384615 0 0 1 0-78.76923h275.692308V78.769231c0-43.504246 35.264985-78.769231 78.769231-78.769231h236.307692c43.504246 0 78.769231 35.264985 78.769231 78.769231v78.769231zM433.230769 393.846154a39.384615 39.384615 0 0 1 39.384616 39.384615v315.076923a39.384615 39.384615 0 0 1-78.769231 0V433.230769a39.384615 39.384615 0 0 1 39.384615-39.384615z m157.538462 0a39.384615 39.384615 0 0 1 39.384615 39.384615v315.076923a39.384615 39.384615 0 0 1-78.769231 0V433.230769a39.384615 39.384615 0 0 1 39.384616-39.384615z" fill="#515151" p-id="3450"></path></svg>