<svg xmlns="http://www.w3.org/2000/svg" width="24" height="24" viewBox="0 0 24 24">
  <metadata><?xpacket begin="﻿" id="W5M0MpCehiHzreSzNTczkc9d"?>
<x:xmpmeta xmlns:x="adobe:ns:meta/" x:xmptk="Adobe XMP Core 5.6-c138 79.159824, 2016/09/14-01:09:01        ">
   <rdf:RDF xmlns:rdf="http://www.w3.org/1999/02/22-rdf-syntax-ns#">
      <rdf:Description rdf:about=""/>
   </rdf:RDF>
</x:xmpmeta>
                                                                                                    
                                                                                                    
                                                                                                    
                                                                                                    
                                                                                                    
                                                                                                    
                                                                                                    
                                                                                                    
                                                                                                    
                                                                                                    
                                                                                                    
                                                                                                    
                                                                                                    
                                                                                                    
                                                                                                    
                                                                                                    
                                                                                                    
                                                                                                    
                                                                                                    
                                                                                                    
                           
<?xpacket end="w"?></metadata>
<defs>
    <style>
      .cls-1 {
        fill: #bbb;
        fill-rule: evenodd;
      }
    </style>
  </defs>
  <path id="闭眼.svg" class="cls-1" d="M1106,446.5s-5.15,6.5-11.5,6.5a10.665,10.665,0,0,1-3.83-.756l-2.39,2.388-1.41-1.414,14.85-14.85,1.41,1.414-2.25,2.252A22.236,22.236,0,0,1,1106,446.5Zm-9.07-.512a2.857,2.857,0,0,1,.07.512,2.5,2.5,0,0,1-2.5,2.5,2.367,2.367,0,0,1-.51-0.073l-1.56,1.562a4.435,4.435,0,0,0,2.07.511,4.494,4.494,0,0,0,3.99-6.573ZM1094.5,442a4.5,4.5,0,0,0-4.5,4.5,4.652,4.652,0,0,0,.05.532l-3.13,3.13A22.24,22.24,0,0,1,1083,446.5s5.15-6.5,11.5-6.5a10.03,10.03,0,0,1,2.31.278l-1.78,1.776A4.322,4.322,0,0,0,1094.5,442Z" transform="translate(-1082.5 -434.5)"/>
</svg>
