<?xml version="1.0" standalone="no"?><!DOCTYPE svg PUBLIC "-//W3C//DTD SVG 1.1//EN" "http://www.w3.org/Graphics/SVG/1.1/DTD/svg11.dtd"><svg t="1535867214797" class="icon" style="" viewBox="0 0 1024 1024" version="1.1" xmlns="http://www.w3.org/2000/svg" p-id="1576" xmlns:xlink="http://www.w3.org/1999/xlink" width="200" height="200"><defs><style type="text/css"></style></defs><path d="M1012.3264 336.1792a61.44 61.44 0 1 0-122.1632 0 60.1088 60.1088 0 0 0 3.4816 20.48l-5.9392 2.8672c-81.92 37.376-164.9664 30.72-247.296-20.48a427.008 427.008 0 0 1-89.088-75.4688 61.44 61.44 0 1 0-72.6016 0 340.48 340.48 0 0 1-80.6912 71.68c-79.9744 51.2-169.0624 57.9584-264.8064 20.48l-4.7104-2.56a61.44 61.44 0 1 0-58.6752 44.1344l161.9968 447.488a27.7504 27.7504 0 0 0 26.0096 18.2272h513.8432a27.648 27.648 0 0 0 26.0096-18.2272l162.304-448.2048a61.44 61.44 0 0 0 52.3264-60.416z m-260.096 471.04H277.2992S529.2032 440.32 893.8496 416.768z" p-id="1577" fill="#f4ea2a"></path></svg>