<svg xmlns="http://www.w3.org/2000/svg" width="22" height="22" viewBox="0 0 22 22">
  <metadata><?xpacket begin="﻿" id="W5M0MpCehiHzreSzNTczkc9d"?>
<x:xmpmeta xmlns:x="adobe:ns:meta/" x:xmptk="Adobe XMP Core 5.6-c138 79.159824, 2016/09/14-01:09:01        ">
   <rdf:RDF xmlns:rdf="http://www.w3.org/1999/02/22-rdf-syntax-ns#">
      <rdf:Description rdf:about=""/>
   </rdf:RDF>
</x:xmpmeta>
                                                                                                    
                                                                                                    
                                                                                                    
                                                                                                    
                                                                                                    
                                                                                                    
                                                                                                    
                                                                                                    
                                                                                                    
                                                                                                    
                                                                                                    
                                                                                                    
                                                                                                    
                                                                                                    
                                                                                                    
                                                                                                    
                                                                                                    
                                                                                                    
                                                                                                    
                                                                                                    
                           
<?xpacket end="w"?></metadata>
<defs>
    <style>
      .cls-1 {
        fill: #c9cfd8;
        fill-rule: evenodd;
      }
    </style>
  </defs>
  <path id="列表模式.svg" class="cls-1" d="M243,1690h-8a1,1,0,0,1,0-2h8A1,1,0,0,1,243,1690Zm0-6h-8a1,1,0,0,1,0-2h8A1,1,0,0,1,243,1684Zm0-5h-8a1,1,0,0,1,0-2h8A1,1,0,0,1,243,1679Zm-12,16h-6a1,1,0,0,1-1-1v-5a1,1,0,0,1,1-1h6a1,1,0,0,1,1,1v5A1,1,0,0,1,231,1695Zm-1-5h-4v3h4v-3Zm1-6h-6a1,1,0,0,1-1-1v-5a1,1,0,0,1,1-1h6a1,1,0,0,1,1,1v5A1,1,0,0,1,231,1684Zm-1-5h-4v3h4v-3Zm5,14h8a1,1,0,0,1,0,2h-8A1,1,0,0,1,235,1693Z" transform="translate(-223 -1675)"/>
</svg>
