<svg xmlns="http://www.w3.org/2000/svg" width="40" height="64" viewBox="0 0 40 64">
  <metadata><?xpacket begin="﻿" id="W5M0MpCehiHzreSzNTczkc9d"?>
<x:xmpmeta xmlns:x="adobe:ns:meta/" x:xmptk="Adobe XMP Core 5.6-c138 79.159824, 2016/09/14-01:09:01        ">
   <rdf:RDF xmlns:rdf="http://www.w3.org/1999/02/22-rdf-syntax-ns#">
      <rdf:Description rdf:about=""/>
   </rdf:RDF>
</x:xmpmeta>
                                                                                                    
                                                                                                    
                                                                                                    
                                                                                                    
                                                                                                    
                                                                                                    
                                                                                                    
                                                                                                    
                                                                                                    
                                                                                                    
                                                                                                    
                                                                                                    
                                                                                                    
                                                                                                    
                                                                                                    
                                                                                                    
                                                                                                    
                                                                                                    
                                                                                                    
                                                                                                    
                           
<?xpacket end="w"?></metadata>
<defs>
    <style>
      .cls-1 {
        fill: #387ee8;
        fill-rule: evenodd;
      }
    </style>
  </defs>
  <path id="logo.svg" class="cls-1" d="M36.267,41.747c-3.277,2.859-7.981.947-7.981,0.947a3.583,3.583,0,0,1-1.395-1.145,4.6,4.6,0,0,0,1.519.751,5.168,5.168,0,0,1-1.984-1.671,4.35,4.35,0,0,0,1.42.822c0.5,0.155.045-.049,0.045-0.049-1.458-.742-2.013-2.216-1.562-1.85a4.7,4.7,0,0,0,.477.361,6.472,6.472,0,0,0,7.005.374,4.951,4.951,0,0,0,1.759-7.027,5.213,5.213,0,0,0-5.8-2.144,15.871,15.871,0,0,1-5,7.853c-3.513,3.206-4.528,4.988-4.754,5.924a8.079,8.079,0,0,1,1.842-4.361c0.553-.594,1.015-1.023,1.015-1.023a7.825,7.825,0,0,0-1.015,1.023,8.285,8.285,0,0,0-1.818,2.657,5.338,5.338,0,0,1,.8-2.331,4.43,4.43,0,0,0-.7,1.053,8.436,8.436,0,0,1,2.478-3.89,20.5,20.5,0,0,0,4.229-5.688,92.324,92.324,0,0,1-10.023,4.216,7.518,7.518,0,0,0,1.787,1.026s-0.412-.1-0.967-0.256a11.819,11.819,0,0,0,1.314.56,11.382,11.382,0,0,1-2.644-.277c0.359,0.154.71,0.3,0.829,0.338a6.579,6.579,0,0,1-1.9-.247c0.456,0.225,1.327.52-.437,0.1a4.747,4.747,0,0,1-.794-0.369,17.678,17.678,0,0,1-3.955.77,18.2,18.2,0,0,0,3.527-1.033l-0.02-.013a23.221,23.221,0,0,1-4.652.975c1.136-.331,2.523-0.841,4.021-1.447a8.774,8.774,0,0,1-2.97-5.619,5.166,5.166,0,0,0-5.528,2.2,4.951,4.951,0,0,0,1.759,7.027,6.472,6.472,0,0,0,7.005-.374,4.727,4.727,0,0,0,.477-0.361c0.452-.367-0.258,1.232-1.716,1.974,0,0-.456.2,0.045,0.049a5.418,5.418,0,0,0,1.574-.947A5.168,5.168,0,0,1,11.589,42.3a4.6,4.6,0,0,0,1.52-.751,3.582,3.582,0,0,1-1.395,1.145s-4.7,1.912-7.981-.947a7.665,7.665,0,0,1-1.846-9.463A7.527,7.527,0,0,1,9.8,28.912c0-.269.007-0.544,0.023-0.829,0.35-6.413,6.117-8.979,10.054-8.979,3.223,0,9.463,1.455,10.156,9.84a7.529,7.529,0,0,1,8.076,3.34A7.666,7.666,0,0,1,36.267,41.747ZM27.5,29.6a7.56,7.56,0,0,0-7.232-7.222c-3.585,0-7.382,2.5-7.231,7.222,0.007,0.224.028,0.442,0.052,0.658a32.348,32.348,0,0,0,4.579,2.621A17.945,17.945,0,0,1,15,32.054a7.062,7.062,0,0,0,1.978.857s-0.886.439-3.322-.442a9.6,9.6,0,0,0,2.012,3.056c5.664-2.479,11.7-5.584,11.7-5.584,0.044-.023.086-0.042,0.13-0.064C27.5,29.785,27.5,29.692,27.5,29.6Z"/>
</svg>
