<svg id="头像.svg" xmlns="http://www.w3.org/2000/svg" width="40" height="40" viewBox="0 0 40 40">
  <metadata><?xpacket begin="﻿" id="W5M0MpCehiHzreSzNTczkc9d"?>
<x:xmpmeta xmlns:x="adobe:ns:meta/" x:xmptk="Adobe XMP Core 5.6-c138 79.159824, 2016/09/14-01:09:01        ">
   <rdf:RDF xmlns:rdf="http://www.w3.org/1999/02/22-rdf-syntax-ns#">
      <rdf:Description rdf:about=""/>
   </rdf:RDF>
</x:xmpmeta>
                                                                                                    
                                                                                                    
                                                                                                    
                                                                                                    
                                                                                                    
                                                                                                    
                                                                                                    
                                                                                                    
                                                                                                    
                                                                                                    
                                                                                                    
                                                                                                    
                                                                                                    
                                                                                                    
                                                                                                    
                                                                                                    
                                                                                                    
                                                                                                    
                                                                                                    
                                                                                                    
                           
<?xpacket end="w"?></metadata>
<defs>
    <style>
      .cls-1 {
        fill: #aac9f2;
      }

      .cls-2 {
        fill: #fff;
        fill-rule: evenodd;
      }
    </style>
  </defs>
  <circle id="椭圆_32_拷贝" data-name="椭圆 32 拷贝" class="cls-1" cx="20" cy="20" r="20"/>
  <path id="椭圆_32" data-name="椭圆 32" class="cls-2" d="M1761.8,43.543a16.165,16.165,0,0,0,5.61-3,2.735,2.735,0,0,0,.26-1.147,2.794,2.794,0,0,0-.21-1.007,7.558,7.558,0,0,1-2.56-3.3c-0.98-.41-2.37-1.865-2.37-4.539a1.163,1.163,0,0,1,.67-1.066c-0.33-.657-2.23-4.822,1.22-6.38,2.93-6.857,12.4-2.981,12.4-2.981s-0.99,1.638.22,2.742c1.12,1.013,1.82,4.692.77,6.311a1.481,1.481,0,0,1-.04.206,1.148,1.148,0,0,1,.7,1.169c0,2.781-1.44,4.257-2.38,4.6a7.369,7.369,0,0,1-2.59,3.29,2.586,2.586,0,0,0-.2.965,2.66,2.66,0,0,0,.29,1.2,15.739,15.739,0,0,0,5.65,3,5.893,5.893,0,0,1,4.52,2.9,19.929,19.929,0,0,1-26.83.623C1757.64,45.262,1759.15,44.071,1761.8,43.543Z" transform="translate(-1750 -12)"/>
</svg>
