<svg xmlns="http://www.w3.org/2000/svg" width="18" height="18" viewBox="0 0 18 18">
  <defs>
    <style>
      .cls-1 {
        fill: #848799;
        fill-rule: evenodd;
      }
    </style>
  </defs>
  <path id="apm" class="cls-1" d="M7917,746h-6v2h3a1,1,0,0,1,0,2h-8a1,1,0,0,1,0-2h3v-2h-6a2,2,0,0,1-2-2V734a2,2,0,0,1,2-2h14a2,2,0,0,1,2,2v10A2,2,0,0,1,7917,746Zm0-12h-14v10h14V734Zm-11,3a1,1,0,0,1,1,1v3a1,1,0,0,1-2,0v-3A1,1,0,0,1,7906,737Zm4,1a1,1,0,0,1,1,1v2a1,1,0,0,1-2,0v-2A1,1,0,0,1,7910,738Zm4-2a1,1,0,0,1,1,1v4a1,1,0,0,1-2,0v-4A1,1,0,0,1,7914,736Z" transform="translate(-7901 -732)"/>
</svg>
