<svg xmlns="http://www.w3.org/2000/svg" width="18" height="18" viewBox="0 0 18 18">
  <metadata><?xpacket begin="﻿" id="W5M0MpCehiHzreSzNTczkc9d"?>
<x:xmpmeta xmlns:x="adobe:ns:meta/" x:xmptk="Adobe XMP Core 5.6-c140 79.160451, 2017/05/06-01:08:21        ">
   <rdf:RDF xmlns:rdf="http://www.w3.org/1999/02/22-rdf-syntax-ns#">
      <rdf:Description rdf:about=""/>
   </rdf:RDF>
</x:xmpmeta>
                                                                                                    
                                                                                                    
                                                                                                    
                                                                                                    
                                                                                                    
                                                                                                    
                                                                                                    
                                                                                                    
                                                                                                    
                                                                                                    
                                                                                                    
                                                                                                    
                                                                                                    
                                                                                                    
                                                                                                    
                                                                                                    
                                                                                                    
                                                                                                    
                                                                                                    
                                                                                                    
                           
<?xpacket end="w"?></metadata>
<defs>
    <style>
      .cls-1 {
        fill: #848799;
        fill-rule: evenodd;
      }
    </style>
  </defs>
  <path id="cicd" class="cls-1" d="M7907,702h6.18a3,3,0,1,1,0,2H7907a4,4,0,0,1,0-8h6a2,2,0,0,0,0-4h-6.18a3,3,0,1,1,0-2H7913a4,4,0,0,1,0,8h-6A2,2,0,0,0,7907,702Zm9,2a1,1,0,1,0-1-1A1,1,0,0,0,7916,704Zm-12-14a1,1,0,1,0,1,1A1,1,0,0,0,7904,690Z" transform="translate(-7901 -688)"/>
</svg>
