<svg xmlns="http://www.w3.org/2000/svg" width="18" height="18" viewBox="0 0 18 18">
  <defs>
    <style>
      .cls-1 {
        fill: #848799;
        fill-rule: evenodd;
      }
    </style>
  </defs>
  <path id="gj" class="cls-1" d="M7917,916h2v2h-2v-2Zm-8-6v-2h2v2h-2Zm-5.5,2.009-1.51-1.509,1.51-1.508,1.51,1.508Zm13,0-1.51-1.509,1.51-1.508,1.51,1.508ZM7901,916h2v2h-2v-2Zm17,10h-16a1,1,0,0,1,0-2h2v-7a6,6,0,0,1,12,0v7h2A1,1,0,0,1,7918,926Zm-4-9a4,4,0,0,0-8,0v7h8v-7Zm-2.87.626v0h0.56a0.442,0.442,0,0,1,.11.106,0.836,0.836,0,0,1,0,1.017l-1.61,2.033a0.5,0.5,0,0,1-.81,0,0.836,0.836,0,0,1,0-1.017l1.13-1.42h-2.23a0.751,0.751,0,0,1-.12-0.1,0.866,0.866,0,0,1,0-1.017l1.62-2.034a0.5,0.5,0,0,1,.81,0,0.866,0.866,0,0,1,0,1.017l-1.13,1.42h1.66Z" transform="translate(-7901 -908)"/>
</svg>
