<svg xmlns="http://www.w3.org/2000/svg" width="17" height="18" viewBox="0 0 17 18">
  <defs>
    <style>
      .cls-1 {
        fill: #848799;
        fill-rule: evenodd;
      }
    </style>
  </defs>
  <path id="goapi" class="cls-1" d="M7917,879h-13a2,2,0,0,1-2-2V866a2,2,0,0,1,2-2h13a2,2,0,0,1,2,2v11A2,2,0,0,1,7917,879Zm0-13h-13v11h13V866Zm-10.5,4a1.5,1.5,0,1,1-1.5,1.5A1.5,1.5,0,0,1,7906.5,870Zm4-1a1.5,1.5,0,1,1-1.5,1.5A1.5,1.5,0,0,1,7910.5,869Zm-5.5,11h11a1,1,0,0,1,0,2h-11A1,1,0,0,1,7905,880Zm9.5-9a1.5,1.5,0,1,1-1.5,1.5A1.5,1.5,0,0,1,7914.5,871Zm-8.5-3h1v7h-1v-7Zm4,0h1v7h-1v-7Zm4,0h1v7h-1v-7Z" transform="translate(-7902 -864)"/>
</svg>
