<svg xmlns="http://www.w3.org/2000/svg" width="18" height="18" viewBox="0 0 18 18">
  <defs>
    <style>
      .cls-1 {
        fill: #6e7180;
        fill-rule: evenodd;
      }
    </style>
  </defs>
  <path id="api" class="cls-1" d="M7919,827v4h-1v2a2,2,0,0,1-2,2h-6v1h3a1,1,0,0,1,0,2h-8a1,1,0,0,1,0-2h3v-1h-5a2,2,0,0,1-2-2V823a2,2,0,0,1,2-2h5v2h-5v10h13v-2h-1v-1h-3v1h-4v-4h1v-3h-1v-4h4v1h3v-1h4v4h-1v3h1Zm-1,3v-2h-2v2h2Zm-9,0h2v-2h-2v2Zm2-9h-2v2h2v-2Zm7,0h-2v2h2v-2Zm-2,3h-1v-1h-3v1h-1v3h1v1h3v-1h1v-3Z" transform="translate(-7901 -820)"/>
</svg>
