<svg xmlns="http://www.w3.org/2000/svg" width="18" height="18.094" viewBox="0 0 18 18.094">
  <metadata><?xpacket begin="﻿" id="W5M0MpCehiHzreSzNTczkc9d"?>
<x:xmpmeta xmlns:x="adobe:ns:meta/" x:xmptk="Adobe XMP Core 5.6-c140 79.160451, 2017/05/06-01:08:21        ">
   <rdf:RDF xmlns:rdf="http://www.w3.org/1999/02/22-rdf-syntax-ns#">
      <rdf:Description rdf:about=""/>
   </rdf:RDF>
</x:xmpmeta>
                                                                                                    
                                                                                                    
                                                                                                    
                                                                                                    
                                                                                                    
                                                                                                    
                                                                                                    
                                                                                                    
                                                                                                    
                                                                                                    
                                                                                                    
                                                                                                    
                                                                                                    
                                                                                                    
                                                                                                    
                                                                                                    
                                                                                                    
                                                                                                    
                                                                                                    
                                                                                                    
                           
<?xpacket end="w"?></metadata>
<defs>
    <style>
      .cls-1 {
        fill: #848799;
        fill-rule: evenodd;
      }
    </style>
  </defs>
  <path id="ncs" class="cls-1" d="M7919,658.5a0.443,0.443,0,0,1-.11.292l0.09,0.485a0.5,0.5,0,0,1-.41.58l-11.8,2.257a0.5,0.5,0,0,1-.58-0.406l-0.17-.984a0.427,0.427,0,0,1,0-.113,0.411,0.411,0,0,1-.02-0.11v-1.506l-4.05.861a0.5,0.5,0,0,1-.59-0.385l-0.12-.553a0.5,0.5,0,0,1-.24-0.418v-11a0.427,0.427,0,0,1,.06-0.221l0.2-.879a0.484,0.484,0,0,1,.58-0.348l4.16,0.819V645.5a0.428,0.428,0,0,1,.06-0.222l0.16-.858a0.5,0.5,0,0,1,.58-0.375l11.75,2.089a0.462,0.462,0,0,1,.4.535l-0.09.487a0.479,0.479,0,0,1,.14.344v11Zm-13-9.78-3-.591v9.459l3-.637v-8.231Zm11-.961-9-1.638v10.927l0.21,0.967a0.512,0.512,0,0,1-.21.516v1.336l9-1.764V647.758ZM7913,651a1,1,0,0,1,1,1v2a1,1,0,0,1-2,0v-2A1,1,0,0,1,7913,651Z" transform="translate(-7901 -644.031)"/>
</svg>
