<svg xmlns="http://www.w3.org/2000/svg" width="20" height="20" viewBox="0 0 20 20">
  <metadata><?xpacket begin="﻿" id="W5M0MpCehiHzreSzNTczkc9d"?>
<x:xmpmeta xmlns:x="adobe:ns:meta/" x:xmptk="Adobe XMP Core 5.6-c140 79.160451, 2017/05/06-01:08:21        ">
   <rdf:RDF xmlns:rdf="http://www.w3.org/1999/02/22-rdf-syntax-ns#">
      <rdf:Description rdf:about=""/>
   </rdf:RDF>
</x:xmpmeta>
                                                                                                    
                                                                                                    
                                                                                                    
                                                                                                    
                                                                                                    
                                                                                                    
                                                                                                    
                                                                                                    
                                                                                                    
                                                                                                    
                                                                                                    
                                                                                                    
                                                                                                    
                                                                                                    
                                                                                                    
                                                                                                    
                                                                                                    
                                                                                                    
                                                                                                    
                                                                                                    
                           
<?xpacket end="w"?></metadata>
<defs>
    <style>
      .cls-1 {
        fill: #9dabc2;
        fill-rule: evenodd;
      }
    </style>
  </defs>
  <path id="矩形_47_拷贝_2" data-name="矩形 47 拷贝 2" class="cls-1" d="M17.644,15.005C15.688,19.412,10,20,10,20s-5.688-.588-7.644-4.995C0.816,11.537,1,3,1,3a7.874,7.874,0,0,0,5.03-.236A16.259,16.259,0,0,0,10,0a16.257,16.257,0,0,0,3.97,2.764A7.874,7.874,0,0,0,19,3S19.184,11.537,17.644,15.005ZM17,5a9.8,9.8,0,0,1-3.912-.789A12.662,12.662,0,0,1,10,2,12.665,12.665,0,0,1,6.912,4.211,9.8,9.8,0,0,1,3,5s-0.143,6.229,1.054,9C5.576,17.53,10,18,10,18s4.424-.47,5.946-4C17.143,11.229,17,5,17,5Zm-5.806,6.9a0.906,0.906,0,0,1-.712.243,0.824,0.824,0,0,1-.2.559,0.91,0.91,0,0,1-1.25.105L6.316,10.6a0.834,0.834,0,0,1-.109-1.2,0.91,0.91,0,0,1,1.25-.105l2.267,1.834a0.844,0.844,0,0,1,.228-0.43L12.484,8.25a0.909,0.909,0,0,1,1.253-.013,0.836,0.836,0,0,1-.012,1.211Z"/>
</svg>
