<svg xmlns="http://www.w3.org/2000/svg" width="18" height="18" viewBox="0 0 18 18">
  <defs>
    <style>
      .cls-1 {
        fill: #6e7180;
        fill-rule: evenodd;
      }
    </style>
  </defs>
  <path id="zl" class="cls-1" d="M7903,556h4a2,2,0,0,1,2,2v7a2,2,0,0,1-2,2h-4a2,2,0,0,1-2-2v-7A2,2,0,0,1,7903,556Zm0,2h4v7h-4v-7Zm10,5h4a2,2,0,0,1,2,2v7a2,2,0,0,1-2,2h-4a2,2,0,0,1-2-2v-7A2,2,0,0,1,7913,563Zm0,2h4v7h-4v-7Zm-10,3h4a2,2,0,0,1,2,2v2a2,2,0,0,1-2,2h-4a2,2,0,0,1-2-2v-2A2,2,0,0,1,7903,568Zm0,2h4v2h-4v-2Zm10-14h4a2,2,0,0,1,2,2v2a2,2,0,0,1-2,2h-4a2,2,0,0,1-2-2v-2A2,2,0,0,1,7913,556Zm0,2h4v2h-4v-2Z" transform="translate(-7901 -556)"/>
</svg>
