<?xml version="1.0" encoding="iso-8859-1"?>
<!-- Generator: Adobe Illustrator 19.0.0, SVG Export Plug-In . SVG Version: 6.00 Build 0)  -->
<svg version="1.1" id="Capa_1" xmlns="http://www.w3.org/2000/svg" xmlns:xlink="http://www.w3.org/1999/xlink" x="0px" y="0px"
	 viewBox="0 0 384 384" style="enable-background:new 0 0 384 384;" xml:space="preserve">
<g>
	<g>
		<path d="M280,125.672c-4.32,0-8.632,0.264-12.896,0.784C253.592,85.328,213.64,56,168,56c-57.344,0-104,45.376-104,101.16
			c0,0.904,0.008,1.8,0.032,2.696C26.592,169.992,0,203.064,0,242.328C0,289.568,39.48,328,88,328h192
			c57.344,0,104-45.376,104-101.16S337.344,125.672,280,125.672z M280,296H88c-30.88,0-56-24.08-56-53.672
			c0-27.952,21.88-50.92,50.896-53.432c4.544-0.392,8.704-2.704,11.44-6.36c2.728-3.656,3.776-8.304,2.864-12.768
			c-0.8-3.912-1.2-8.152-1.2-12.608C96,119.024,128.304,88,168,88c35.72,0,66.368,25.56,71.28,59.456
			c0.664,4.568,3.272,8.632,7.152,11.144c3.88,2.504,8.656,3.216,13.096,1.944c6.64-1.904,13.528-2.864,20.48-2.864
			c39.704,0,72,31.024,72,69.168C352.008,264.992,319.704,296,280,296z"/>
	</g>
</g>
<g>
</g>
<g>
</g>
<g>
</g>
<g>
</g>
<g>
</g>
<g>
</g>
<g>
</g>
<g>
</g>
<g>
</g>
<g>
</g>
<g>
</g>
<g>
</g>
<g>
</g>
<g>
</g>
<g>
</g>
</svg>
