<?xml version="1.0" encoding="iso-8859-1"?>
<!-- Generator: Adobe Illustrator 19.0.0, SVG Export Plug-In . SVG Version: 6.00 Build 0)  -->
<svg version="1.1" id="Capa_1" xmlns="http://www.w3.org/2000/svg" xmlns:xlink="http://www.w3.org/1999/xlink" x="0px" y="0px"
	 viewBox="0 0 384 384" style="enable-background:new 0 0 384 384;" xml:space="preserve">
<g>
	<g>
		<path d="M280,69.68c-4.36,0-8.672,0.256-12.912,0.776C253.568,29.32,213.624,0,168,0C110.656,0,64,45.4,64,101.2
			c0,0.896,0.008,1.784,0.032,2.672C26.592,114.024,0,147.088,0,186.32c0,36.576,23.712,67.792,56.92,80.056l-7.232,14.464
			c-3.952,7.904-0.752,17.512,7.16,21.472c2.296,1.152,4.736,1.688,7.136,1.688c5.872,0,11.52-3.24,14.328-8.848l11.68-23.36
			C97.88,270.808,104,264.152,104,256c0-8.832-7.168-16-16-16c-30.872,0-56-24.08-56-53.68c0-27.928,21.888-50.888,50.912-53.416
			c4.544-0.4,8.704-2.712,11.432-6.368c2.736-3.656,3.768-8.304,2.856-12.776c-0.8-3.896-1.2-8.12-1.2-12.56
			C96,63.04,128.296,32,168,32c35.72,0,66.36,25.576,71.28,59.496c0.672,4.592,3.296,8.672,7.208,11.176
			c3.904,2.512,8.712,3.176,13.168,1.872c6.424-1.896,13.264-2.864,20.344-2.864c39.704,0,72,31.008,72,69.12
			c0,38.16-32.296,69.2-72,69.2h-79.536l13.96-29.08c2.384-4.96,2.048-10.792-0.88-15.44c-2.928-4.656-8.04-7.48-13.544-7.48
			h-22.792l21.264-45.184c3.768-8,0.328-17.528-7.664-21.288c-7.976-3.752-17.512-0.336-21.288,7.664l-32,68
			c-2.336,4.96-1.968,10.76,0.968,15.384C141.424,217.2,146.52,220,152,220h22.568l-36.992,77.08
			c-3.832,7.968-0.472,17.52,7.504,21.344c2.232,1.072,4.584,1.576,6.912,1.576c5.96,0,11.68-3.344,14.432-9.08l18.68-38.92h29.008
			l-4.424,8.84c-3.952,7.904-0.752,17.512,7.16,21.472c2.296,1.152,4.736,1.688,7.136,1.688c5.872,0,11.52-3.24,14.328-8.848
			L249.888,272h28.216l-4.424,8.84c-3.952,7.904-0.752,17.512,7.16,21.472c2.304,1.152,4.744,1.688,7.144,1.688
			c5.872,0,11.52-3.24,14.328-8.848l15-30.008C356.256,250.512,384,213.792,384,170.8C384,115.04,337.344,69.68,280,69.68z"/>
	</g>
</g>
<g>
	<g>
		<path d="M263.152,321.68c-7.912-3.968-17.512-0.736-21.472,7.16l-16,32c-3.952,7.904-0.752,17.512,7.16,21.472
			c2.304,1.152,4.744,1.688,7.144,1.688c5.872,0,11.52-3.24,14.328-8.848l16-32C274.264,335.248,271.064,325.64,263.152,321.68z"/>
	</g>
</g>
<g>
	<g>
		<path d="M103.152,321.68c-7.928-3.968-17.512-0.736-21.472,7.16l-16,32c-3.952,7.904-0.752,17.512,7.16,21.472
			c2.304,1.152,4.744,1.688,7.144,1.688c5.872,0,11.52-3.24,14.328-8.848l16-32C114.264,335.248,111.064,325.64,103.152,321.68z"/>
	</g>
</g>
<g>
	<g>
		<path d="M199.152,321.68c-7.92-3.968-17.512-0.736-21.472,7.16l-16,32c-3.952,7.904-0.752,17.512,7.16,21.472
			c2.304,1.152,4.744,1.688,7.144,1.688c5.872,0,11.52-3.24,14.328-8.848l16-32C210.264,335.248,207.064,325.64,199.152,321.68z"/>
	</g>
</g>
<g>
</g>
<g>
</g>
<g>
</g>
<g>
</g>
<g>
</g>
<g>
</g>
<g>
</g>
<g>
</g>
<g>
</g>
<g>
</g>
<g>
</g>
<g>
</g>
<g>
</g>
<g>
</g>
<g>
</g>
</svg>
