<?xml version="1.0" encoding="iso-8859-1"?>
<!-- Generator: Adobe Illustrator 19.0.0, SVG Export Plug-In . SVG Version: 6.00 Build 0)  -->
<svg version="1.1" id="Capa_1" xmlns="http://www.w3.org/2000/svg" xmlns:xlink="http://www.w3.org/1999/xlink" x="0px" y="0px"
	 viewBox="0 0 384 384" style="enable-background:new 0 0 384 384;" xml:space="preserve">
<g>
	<g>
		<path d="M101.488,78.864L78.864,56.24c-6.24-6.248-16.384-6.248-22.624,0c-6.248,6.248-6.248,16.376,0,22.624l22.624,22.624
			c3.12,3.128,7.216,4.688,11.312,4.688c4.096,0,8.192-1.56,11.312-4.688C107.736,95.24,107.736,85.112,101.488,78.864z"/>
	</g>
</g>
<g>
	<g>
		<path d="M48,176H16c-8.832,0-16,7.168-16,16c0,8.832,7.168,16,16,16h32c8.832,0,16-7.168,16-16C64,183.168,56.832,176,48,176z"/>
	</g>
</g>
<g>
	<g>
		<path d="M101.488,282.512c-6.24-6.248-16.384-6.248-22.624,0L56.24,305.136c-6.248,6.248-6.248,16.376,0,22.624
			c3.12,3.128,7.216,4.688,11.312,4.688s8.192-1.56,11.312-4.688l22.624-22.624C107.736,298.888,107.736,288.76,101.488,282.512z"/>
	</g>
</g>
<g>
	<g>
		<path d="M192,320c-8.832,0-16,7.168-16,16v32c0,8.832,7.168,16,16,16c8.832,0,16-7.168,16-16v-32C208,327.168,200.832,320,192,320
			z"/>
	</g>
</g>
<g>
	<g>
		<path d="M327.76,305.136l-22.624-22.624c-6.24-6.248-16.384-6.248-22.624,0c-6.248,6.248-6.248,16.376,0,22.624l22.624,22.624
			c3.12,3.128,7.216,4.688,11.312,4.688s8.192-1.56,11.312-4.688C334.008,321.512,334.008,311.384,327.76,305.136z"/>
	</g>
</g>
<g>
	<g>
		<path d="M368,176h-32c-8.832,0-16,7.168-16,16c0,8.832,7.168,16,16,16h32c8.832,0,16-7.168,16-16C384,183.168,376.832,176,368,176
			z"/>
	</g>
</g>
<g>
	<g>
		<path d="M327.76,56.24c-6.24-6.248-16.384-6.248-22.624,0l-22.624,22.624c-6.248,6.248-6.248,16.376,0,22.624
			c3.12,3.128,7.216,4.688,11.312,4.688s8.192-1.56,11.312-4.688l22.624-22.624C334.008,72.616,334.008,62.488,327.76,56.24z"/>
	</g>
</g>
<g>
	<g>
		<path d="M192,0c-8.832,0-16,7.168-16,16v32c0,8.832,7.168,16,16,16c8.832,0,16-7.168,16-16V16C208,7.168,200.832,0,192,0z"/>
	</g>
</g>
<g>
	<g>
		<path d="M192,88c-57.344,0-104,46.656-104,104s46.656,104,104,104s104-46.656,104-104S249.344,88,192,88z M192,264
			c-39.696,0-72-32.304-72-72s32.304-72,72-72s72,32.304,72,72S231.696,264,192,264z"/>
	</g>
</g>
<g>
</g>
<g>
</g>
<g>
</g>
<g>
</g>
<g>
</g>
<g>
</g>
<g>
</g>
<g>
</g>
<g>
</g>
<g>
</g>
<g>
</g>
<g>
</g>
<g>
</g>
<g>
</g>
<g>
</g>
</svg>
