<svg xmlns="http://www.w3.org/2000/svg" width="20" height="20" viewBox="0 0 20 20">
  <metadata><?xpacket begin="﻿" id="W5M0MpCehiHzreSzNTczkc9d"?>
<x:xmpmeta xmlns:x="adobe:ns:meta/" x:xmptk="Adobe XMP Core 5.6-c140 79.160451, 2017/05/06-01:08:21        ">
   <rdf:RDF xmlns:rdf="http://www.w3.org/1999/02/22-rdf-syntax-ns#">
      <rdf:Description rdf:about=""/>
   </rdf:RDF>
</x:xmpmeta>
                                                                                                    
                                                                                                    
                                                                                                    
                                                                                                    
                                                                                                    
                                                                                                    
                                                                                                    
                                                                                                    
                                                                                                    
                                                                                                    
                                                                                                    
                                                                                                    
                                                                                                    
                                                                                                    
                                                                                                    
                                                                                                    
                                                                                                    
                                                                                                    
                                                                                                    
                                                                                                    
                           
<?xpacket end="w"?></metadata>
<defs>
    <style>
      .cls-1 {
        fill: #9dabc2;
        fill-rule: evenodd;
      }
    </style>
  </defs>
  <path id="矩形_10_拷贝" data-name="矩形 10 拷贝" class="cls-1" d="M19,20V19.992H18.539c-0.014,0-.025.008-0.039,0.008s-0.025-.008-0.039-0.008H1.539C1.525,19.992,1.514,20,1.5,20a0.394,0.394,0,1,1-.039-0.008H1V20a1.625,1.625,0,0,1,0-3L9,2a1,1,0,1,1,2,0l8,15A1.625,1.625,0,0,1,19,20ZM10,5L3,18H17Zm0,5a1,1,0,0,1,1,1v2a1,1,0,0,1-2,0V11A1,1,0,0,1,10,10Zm0,5a1,1,0,1,1-1,1A1,1,0,0,1,10,15Z"/>
</svg>
