<svg xmlns="http://www.w3.org/2000/svg" width="14" height="14" viewBox="0 0 14 14">
  <metadata><?xpacket begin="﻿" id="W5M0MpCehiHzreSzNTczkc9d"?>
<x:xmpmeta xmlns:x="adobe:ns:meta/" x:xmptk="Adobe XMP Core 5.6-c140 79.160451, 2017/05/06-01:08:21        ">
   <rdf:RDF xmlns:rdf="http://www.w3.org/1999/02/22-rdf-syntax-ns#">
      <rdf:Description rdf:about=""/>
   </rdf:RDF>
</x:xmpmeta>
                                                                                                    
                                                                                                    
                                                                                                    
                                                                                                    
                                                                                                    
                                                                                                    
                                                                                                    
                                                                                                    
                                                                                                    
                                                                                                    
                                                                                                    
                                                                                                    
                                                                                                    
                                                                                                    
                                                                                                    
                                                                                                    
                                                                                                    
                                                                                                    
                                                                                                    
                                                                                                    
                           
<?xpacket end="w"?></metadata>
<defs>
    <style>
      .cls-1 {
        fill: #bcc3ca;
        fill-rule: evenodd;
      }
    </style>
  </defs>
  <path id="矩形_4" data-name="矩形 4" class="cls-1" d="M11.5,14a2.494,2.494,0,0,1-1.476-4.509L9.077,6.608A3.416,3.416,0,0,1,5.443,6.32L3.746,8,3.694,7.948A2,2,0,1,1,2,7a1.982,1.982,0,0,1,1.036.3L2.991,7.253l1.7-1.682A3.5,3.5,0,1,1,9.826,6.1l0.989,3.009A2.474,2.474,0,0,1,11.5,9,2.5,2.5,0,1,1,11.5,14ZM2,7.99A1.01,1.01,0,1,0,3.01,9,1.01,1.01,0,0,0,2,7.99ZM9.984,3.5A2.484,2.484,0,1,0,7.5,5.984,2.484,2.484,0,0,0,9.984,3.5ZM11.5,9.986A1.514,1.514,0,1,0,13.014,11.5,1.514,1.514,0,0,0,11.5,9.986Z"/>
</svg>
