<?xml version="1.0" standalone="no"?><!DOCTYPE svg PUBLIC "-//W3C//DTD SVG 1.1//EN" "http://www.w3.org/Graphics/SVG/1.1/DTD/svg11.dtd"><svg t="1574409946081" class="icon" viewBox="0 0 1024 1024" version="1.1" xmlns="http://www.w3.org/2000/svg" p-id="1681" xmlns:xlink="http://www.w3.org/1999/xlink" width="200" height="200"><defs><style type="text/css"></style></defs><path d="M506.8 154.8c34 18.6 68.3 36.9 102.1 55.8 89.3 50.1 178.3 100.5 267.5 150.7 24 13.5 29.7 35.2 13.6 53.5-12.6 14.3-35.8 17.4-54.2 7.2-7-3.8-13.9-7.8-22.2-12.4V816c0 18.2-10.1 29.7-27.8 36.6-20.7 8-51.7-9.4-52.4-30.9-0.1-2 0-4.1 0-6.2 0-148.1-0.1-296.2 0.2-444.3 0-6.1-2.6-9.2-8.2-12.3-44.1-24.6-88-49.5-132-74.3-29.8-16.8-59.5-33.6-89.5-50-2.4-1.3-7.7-0.9-10.3 0.5-47.7 26.5-95.1 53.4-142.7 80.1-26.5 14.9-53 29.7-79.7 44.5-4.6 2.5-6.9 5.4-6.6 10.5 0.5 10 0.2 19.9 0.2 30.8H343.1c15.8 0 24.8 7.8 24.9 21.6 0.1 40.8 0 81.6 0 122.4v6.4H454.6c16.8 0 25.2 7.1 25.2 21.6 0.1 40.6 0.1 81.1-0.1 121.7 0 5.7 1.7 7.3 8.3 7.2 35.7-0.3 71.3-0.1 107-0.1 14.4 0 23.8 7.8 23.8 20.2 0.1 37.6 0.1 75.2 0 112.8 0 11.5-10.3 20.1-23.4 20.1H228.1c-25.4 0-43.3-16.1-43.4-38.9-0.1-77 0-154 0-231V418.2v-8.7c-8.6 4.6-15.9 8.4-22.9 12.5-22.5 13-46.2 3-56.1-10.5-11.9-16.2-6.3-36.9 13.6-48.2 68.1-38.5 136.4-76.8 204.6-115.2 50.2-28.3 100.3-56.8 150.6-85 5.4-3 11.3-5.4 17-8.1 4.8-0.2 10-0.2 15.3-0.2z" fill="#3FA9F5" p-id="1682"></path><path d="M317.1 639.5c1.7 10.6 9 19.6 19.1 23.6 0.7 0.3 1.4 0.6 2 0.9 3.9 1.7 8.1 2.6 12.4 2.6 6.4 0 12.7-2 17.9-5.8l4.3 4.3c-6.3 8.7-7.5 20.3-3.2 30.2 0.3 0.7 0.6 1.4 0.9 2 4 10.1 13 17.3 23.6 19.1v6.1c-10.6 1.7-19.6 9-23.6 19.1-0.3 0.7-0.6 1.4-0.9 2-4.4 10-3.1 21.5 3.2 30.2l-4.3 4.3c-5.2-3.7-11.5-5.8-17.9-5.8-4.3 0-8.4 0.9-12.4 2.6-0.7 0.3-1.4 0.6-2 0.9-10.1 4-17.3 13-19.1 23.6H311c-1.7-10.6-9-19.6-19.1-23.6-0.7-0.3-1.4-0.6-2-0.9-3.9-1.7-8.1-2.6-12.4-2.6-6.4 0-12.7 2-17.9 5.8l-4.3-4.3c6.3-8.7 7.5-20.3 3.2-30.2-0.3-0.7-0.6-1.4-0.9-2-4-10.1-13-17.3-23.6-19.1v-6.1c10.6-1.7 19.6-9 23.6-19.1 0.3-0.7 0.6-1.4 0.9-2 4.4-10 3.1-21.5-3.2-30.2l4.3-4.3c5.2 3.7 11.5 5.8 17.9 5.8 4.3 0 8.4-0.9 12.4-2.6 0.7-0.3 1.4-0.6 2-0.9 10.1-4 17.3-13 19.1-23.6h6.1m8.1-20h-22.4c-5.3 0-9.7 3.9-10.5 9.1l-1.1 7.5c-0.5 3.8-3.1 7-6.7 8.4-0.9 0.4-1.8 0.7-2.7 1.1-1.4 0.6-2.9 0.9-4.4 0.9-2.3 0-4.5-0.7-6.3-2.1l-6-4.5c-1.9-1.4-4.1-2.1-6.4-2.1-2.7 0-5.4 1-7.5 3.1l-15.9 15.9c-3.7 3.7-4.1 9.6-1 13.9l4.5 6c2.3 3.1 2.7 7.2 1.2 10.7-0.4 0.9-0.8 1.8-1.1 2.7-1.4 3.6-4.6 6.2-8.4 6.7l-7.5 1.1c-5.2 0.7-9.1 5.2-9.1 10.5v22.4c0 5.3 3.9 9.7 9.1 10.5l7.5 1.1c3.8 0.5 7 3.1 8.4 6.7 0.4 0.9 0.7 1.8 1.1 2.7 1.5 3.5 1.1 7.6-1.2 10.7l-4.5 6c-3.2 4.2-2.8 10.1 1 13.9l15.9 15.9c2.1 2.1 4.8 3.1 7.5 3.1 2.2 0 4.5-0.7 6.4-2.1l6-4.5c1.9-1.4 4.1-2.1 6.3-2.1 1.5 0 3 0.3 4.4 0.9 0.9 0.4 1.8 0.8 2.7 1.1 3.6 1.4 6.2 4.6 6.7 8.4l1.1 7.5c0.7 5.2 5.2 9.1 10.5 9.1h22.4c5.3 0 9.7-3.9 10.5-9.1l1.1-7.5c0.5-3.8 3.1-7 6.7-8.4 0.9-0.4 1.8-0.7 2.7-1.1 1.4-0.6 2.9-0.9 4.4-0.9 2.3 0 4.5 0.7 6.3 2.1l6 4.5c1.9 1.4 4.1 2.1 6.4 2.1 2.7 0 5.4-1 7.5-3.1l15.9-15.9c3.7-3.7 4.1-9.6 1-13.9l-4.5-6c-2.3-3.1-2.7-7.2-1.2-10.7 0.4-0.9 0.8-1.8 1.1-2.7 1.4-3.6 4.6-6.2 8.4-6.7l7.5-1.1c5.2-0.7 9.1-5.2 9.1-10.5v-22.4c0-5.3-3.9-9.7-9.1-10.5l-7.5-1.1c-3.8-0.5-7-3.1-8.4-6.7-0.4-0.9-0.7-1.8-1.1-2.7-1.5-3.5-1.1-7.6 1.2-10.7l4.5-6c3.2-4.2 2.8-10.1-1-13.9l-15.9-15.9c-2.1-2.1-4.8-3.1-7.5-3.1-2.2 0-4.5 0.7-6.4 2.1l-6 4.5c-1.9 1.4-4.1 2.1-6.3 2.1-1.5 0-3-0.3-4.4-0.9-0.9-0.4-1.8-0.8-2.7-1.1-3.6-1.4-6.2-4.6-6.7-8.4l-1.1-7.5c-0.7-5.2-5.2-9.1-10.5-9.1z" fill="#FFFFFF" p-id="1683"></path><path d="M314.3 753.3c-18.7 0-33.9-15.2-33.9-33.9s15.2-33.9 33.9-33.9 33.9 15.2 33.9 33.9-15.3 33.9-33.9 33.9z" fill="#FFFFFF" p-id="1684"></path><path d="M314.3 695.6c13.2 0 23.9 10.7 23.9 23.9s-10.7 23.9-23.9 23.9-23.9-10.7-23.9-23.9 10.7-23.9 23.9-23.9m0-20c-24.2 0-43.9 19.6-43.9 43.9 0 24.2 19.6 43.9 43.9 43.9 24.2 0 43.9-19.6 43.9-43.9-0.1-24.3-19.7-43.9-43.9-43.9z" fill="#FFFFFF" p-id="1685"></path></svg>