<svg xmlns="http://www.w3.org/2000/svg" width="20" height="20" viewBox="0 0 20 20">
  <metadata><?xpacket begin="﻿" id="W5M0MpCehiHzreSzNTczkc9d"?>
<x:xmpmeta xmlns:x="adobe:ns:meta/" x:xmptk="Adobe XMP Core 5.6-c140 79.160451, 2017/05/06-01:08:21        ">
   <rdf:RDF xmlns:rdf="http://www.w3.org/1999/02/22-rdf-syntax-ns#">
      <rdf:Description rdf:about=""/>
   </rdf:RDF>
</x:xmpmeta>
                                                                                                    
                                                                                                    
                                                                                                    
                                                                                                    
                                                                                                    
                                                                                                    
                                                                                                    
                                                                                                    
                                                                                                    
                                                                                                    
                                                                                                    
                                                                                                    
                                                                                                    
                                                                                                    
                                                                                                    
                                                                                                    
                                                                                                    
                                                                                                    
                                                                                                    
                                                                                                    
                           
<?xpacket end="w"?></metadata>
<defs>
    <style>
      .cls-1 {
        fill: #9dabc2;
        fill-rule: evenodd;
      }
    </style>
  </defs>
  <path id="矩形_46" data-name="矩形 46" class="cls-1" d="M12.887,10.345h0s-3.232.66-3.232,0.646-0.646-.646-0.646-0.646L9.655,7.113h0L16.766,0,20,3.234Zm-1.939-1.94,0.646,0.646,5.818-5.818-0.646-.647ZM4,9H7v2H4V9Zm9,6H4V13h9v2ZM2,18H15V11h2v8a1,1,0,0,1-1,1H1a1,1,0,0,1-1-1V1A1,1,0,0,1,1,0H9V2H2V18Z"/>
</svg>
