<svg xmlns="http://www.w3.org/2000/svg" width="20" height="20" viewBox="0 0 20 20">
  <metadata><?xpacket begin="﻿" id="W5M0MpCehiHzreSzNTczkc9d"?>
<x:xmpmeta xmlns:x="adobe:ns:meta/" x:xmptk="Adobe XMP Core 5.6-c140 79.160451, 2017/05/06-01:08:21        ">
   <rdf:RDF xmlns:rdf="http://www.w3.org/1999/02/22-rdf-syntax-ns#">
      <rdf:Description rdf:about=""/>
   </rdf:RDF>
</x:xmpmeta>
                                                                                                    
                                                                                                    
                                                                                                    
                                                                                                    
                                                                                                    
                                                                                                    
                                                                                                    
                                                                                                    
                                                                                                    
                                                                                                    
                                                                                                    
                                                                                                    
                                                                                                    
                                                                                                    
                                                                                                    
                                                                                                    
                                                                                                    
                                                                                                    
                                                                                                    
                                                                                                    
                           
<?xpacket end="w"?></metadata>
<defs>
    <style>
      .cls-1 {
        fill: #9dabc2;
        fill-rule: evenodd;
      }
    </style>
  </defs>
  <path id="矩形_5_拷贝_4" data-name="矩形 5 拷贝 4" class="cls-1" d="M19.587,10.017L10.94,14.773a2.218,2.218,0,0,1-1.922,0L0.37,10.017a0.55,0.55,0,0,1,0-1.057l0.857-.472,7.79,4.284a2.047,2.047,0,0,0,.965.219L10,13l0.027-.013a2.02,2.02,0,0,0,.913-0.214L15.793,10.1,16,10s0-.009,0-0.01l2.73-1.5L19.587,8.96A0.55,0.55,0,0,1,19.587,10.017Zm0-4L10.94,10.773a2.218,2.218,0,0,1-1.922,0L0.37,6.017a0.55,0.55,0,0,1,0-1.057L9.018,0.2A2.218,2.218,0,0,1,10.94.2L19.587,4.96A0.55,0.55,0,0,1,19.587,6.017ZM16,5c-0.059,0-6-2.993-6-2.993S4.022,4.987,4,5A7.689,7.689,0,0,0,4,6l6,3,6-3S16.013,5,16,5ZM0.37,12.96l0.857-.471,7.79,4.284a2.045,2.045,0,0,0,.965.219L10,17l0.027-.013a2.017,2.017,0,0,0,.913-0.214L15.793,14.1,16,14s0-.009,0-0.011l2.73-1.5,0.857,0.471a0.55,0.55,0,0,1,0,1.057L10.94,18.773a2.218,2.218,0,0,1-1.922,0L0.37,14.017A0.55,0.55,0,0,1,.37,12.96Z"/>
</svg>
