<svg xmlns="http://www.w3.org/2000/svg" width="20" height="20" viewBox="0 0 20 20">
  <metadata><?xpacket begin="﻿" id="W5M0MpCehiHzreSzNTczkc9d"?>
<x:xmpmeta xmlns:x="adobe:ns:meta/" x:xmptk="Adobe XMP Core 5.6-c140 79.160451, 2017/05/06-01:08:21        ">
   <rdf:RDF xmlns:rdf="http://www.w3.org/1999/02/22-rdf-syntax-ns#">
      <rdf:Description rdf:about=""/>
   </rdf:RDF>
</x:xmpmeta>
                                                                                                    
                                                                                                    
                                                                                                    
                                                                                                    
                                                                                                    
                                                                                                    
                                                                                                    
                                                                                                    
                                                                                                    
                                                                                                    
                                                                                                    
                                                                                                    
                                                                                                    
                                                                                                    
                                                                                                    
                                                                                                    
                                                                                                    
                                                                                                    
                                                                                                    
                                                                                                    
                           
<?xpacket end="w"?></metadata>
<defs>
    <style>
      .cls-1 {
        fill: #9dabc2;
        fill-rule: evenodd;
      }
    </style>
  </defs>
  <path id="矩形_27" data-name="矩形 27" class="cls-1" d="M10,20V16a2,2,0,0,1,2-2h2V13.816a3,3,0,1,1,2,0V14h2a2,2,0,0,1,2,2v4H10Zm5-10a1,1,0,1,0,1,1A1,1,0,0,0,15,10Zm3,7a1,1,0,0,0-1-1H13a1,1,0,0,0-1,1v1h6V17ZM14,2H2V18H7.523a8.971,8.971,0,0,0,.994,2H1a1,1,0,0,1-1-1V1A1,1,0,0,1,1,0H15a1,1,0,0,1,1,1V6a9.008,9.008,0,0,0-2,.231V2ZM4,12H9v2H4V12ZM4,4h8V6H4V4ZM4,8h7v2H4V8Z"/>
</svg>
