<svg xmlns="http://www.w3.org/2000/svg" width="20" height="20" viewBox="0 0 20 20">
  <metadata><?xpacket begin="﻿" id="W5M0MpCehiHzreSzNTczkc9d"?>
<x:xmpmeta xmlns:x="adobe:ns:meta/" x:xmptk="Adobe XMP Core 5.6-c140 79.160451, 2017/05/06-01:08:21        ">
   <rdf:RDF xmlns:rdf="http://www.w3.org/1999/02/22-rdf-syntax-ns#">
      <rdf:Description rdf:about=""/>
   </rdf:RDF>
</x:xmpmeta>
                                                                                                    
                                                                                                    
                                                                                                    
                                                                                                    
                                                                                                    
                                                                                                    
                                                                                                    
                                                                                                    
                                                                                                    
                                                                                                    
                                                                                                    
                                                                                                    
                                                                                                    
                                                                                                    
                                                                                                    
                                                                                                    
                                                                                                    
                                                                                                    
                                                                                                    
                                                                                                    
                           
<?xpacket end="w"?></metadata>
<defs>
    <style>
      .cls-1 {
        fill: #9dabc2;
        fill-rule: evenodd;
      }
    </style>
  </defs>
  <path id="矩形_38" data-name="矩形 38" class="cls-1" d="M18,8V5a3.238,3.238,0,0,0-2-3H4A3.238,3.238,0,0,0,2,5V15a3.238,3.238,0,0,0,2,3H8v2H4a4,4,0,0,1-4-4V4A4,4,0,0,1,4,0H16a4,4,0,0,1,4,4V8H18Zm-3.98,8.157A5.94,5.94,0,0,1,11,17a6.046,6.046,0,1,1,4.405-1.954,1.03,1.03,0,0,1,.36.232L18.7,18.216a1.039,1.039,0,1,1-1.469,1.469L14.3,16.746A1.016,1.016,0,0,1,14.02,16.157ZM11,7a4,4,0,1,0,4,4A4,4,0,0,0,11,7Z"/>
</svg>
