<svg xmlns="http://www.w3.org/2000/svg" width="20" height="20" viewBox="0 0 20 20">
  <metadata><?xpacket begin="﻿" id="W5M0MpCehiHzreSzNTczkc9d"?>
<x:xmpmeta xmlns:x="adobe:ns:meta/" x:xmptk="Adobe XMP Core 5.6-c140 79.160451, 2017/05/06-01:08:21        ">
   <rdf:RDF xmlns:rdf="http://www.w3.org/1999/02/22-rdf-syntax-ns#">
      <rdf:Description rdf:about=""/>
   </rdf:RDF>
</x:xmpmeta>
                                                                                                    
                                                                                                    
                                                                                                    
                                                                                                    
                                                                                                    
                                                                                                    
                                                                                                    
                                                                                                    
                                                                                                    
                                                                                                    
                                                                                                    
                                                                                                    
                                                                                                    
                                                                                                    
                                                                                                    
                                                                                                    
                                                                                                    
                                                                                                    
                                                                                                    
                                                                                                    
                           
<?xpacket end="w"?></metadata>
<defs>
    <style>
      .cls-1 {
        fill: #9dabc2;
        fill-rule: evenodd;
      }
    </style>
  </defs>
  <path id="矩形_20" data-name="矩形 20" class="cls-1" d="M19,20H15a1,1,0,0,1-1-1V15a1,1,0,0,1,1-1h1V8h2v6h1a1,1,0,0,1,1,1v4A1,1,0,0,1,19,20Zm-1-4H16v2h2V16ZM19,6H15a1,1,0,0,1-1-1V4H8V2h6V1a1,1,0,0,1,1-1h4a1,1,0,0,1,1,1V5A1,1,0,0,1,19,6ZM18,2H16V4h2V2ZM12,18H6v1a1,1,0,0,1-1,1H1a1,1,0,0,1-1-1V15a1,1,0,0,1,1-1H5a1,1,0,0,1,1,1v1h6v2ZM4,16H2v2H4V16ZM5,6H4v6H2V6H1A1,1,0,0,1,0,5V1A1,1,0,0,1,1,0H5A1,1,0,0,1,6,1V5A1,1,0,0,1,5,6ZM4,2H2V4H4V2Z"/>
</svg>
