<svg xmlns="http://www.w3.org/2000/svg" width="30" height="30" viewBox="0 0 30 30">
  <metadata><?xpacket begin="﻿" id="W5M0MpCehiHzreSzNTczkc9d"?>
<x:xmpmeta xmlns:x="adobe:ns:meta/" x:xmptk="Adobe XMP Core 5.6-c138 79.159824, 2016/09/14-01:09:01        ">
   <rdf:RDF xmlns:rdf="http://www.w3.org/1999/02/22-rdf-syntax-ns#">
      <rdf:Description rdf:about=""/>
   </rdf:RDF>
</x:xmpmeta>
                                                                                                    
                                                                                                    
                                                                                                    
                                                                                                    
                                                                                                    
                                                                                                    
                                                                                                    
                                                                                                    
                                                                                                    
                                                                                                    
                                                                                                    
                                                                                                    
                                                                                                    
                                                                                                    
                                                                                                    
                                                                                                    
                                                                                                    
                                                                                                    
                                                                                                    
                                                                                                    
                           
<?xpacket end="w"?></metadata>
<defs>
    <style>
      .cls-1 {
        fill: #67aaf5;
        fill-rule: evenodd;
      }
    </style>
  </defs>
  <path id="形状_1_拷贝" data-name="形状 1 拷贝" class="cls-1" d="M19.03,10.313a3.354,3.354,0,0,0-2.288-.24s0-.025,0-0.025C16.429,5.743,13.463,5,11.933,5A4.733,4.733,0,0,0,7.176,9.573C7.167,9.749,7.189,9.886,7.19,10.05a3.485,3.485,0,0,0-3.765,1.69A4.123,4.123,0,0,0,4.3,16.562c1.55,1.457,3.863.4,3.863,0.4a0.256,0.256,0,0,1-.118-0.079,0.827,0.827,0,0,0,.565-0.409,1.742,1.742,0,0,1-.419.157c-0.079.031-.022-0.1-0.022-0.1,1.071-.693,1.026-1.062,1.026-1.062l0.082-.089-0.082.089a2.48,2.48,0,0,1-.565.409c0.4-.4.146-0.252,0.146-0.252a2.882,2.882,0,0,1-3.315.19,2.633,2.633,0,0,1-.832-3.581,2.368,2.368,0,0,1,2.627-1.11,4.557,4.557,0,0,0,1.375,2.805,12.2,12.2,0,0,1-1.417.421c-0.125.028-.248,0.053-0.366,0.072l0.366-.072c0.373-.074.969-0.194,1.529-0.311,0.04,0.034.073,0.051,0.111,0.08a12.977,12.977,0,0,1-3.486.7,8.26,8.26,0,0,0,3.858-.449,3.018,3.018,0,0,0,.3.15,0.389,0.389,0,0,1,0-.2,1.052,1.052,0,0,0,.832.4,2.489,2.489,0,0,1-.462-0.4c-0.089-.075.092-0.1,0.092-0.1,1.491,0.813,1.85.5,1.85,0.5a3.255,3.255,0,0,1-.832-0.4c0.706,0.207.37,0,.37,0a6.158,6.158,0,0,1-.715-0.433,31.74,31.74,0,0,0,4.54-2.159,9.805,9.805,0,0,1-2.068,2.791,2.76,2.76,0,0,0-.925,1.79,1.331,1.331,0,0,1,.277-0.2,2.174,2.174,0,0,0-.462,1.095A10.27,10.27,0,0,1,13.6,15.022h0.093a6.36,6.36,0,0,0-1.44,2.305L0,30V0H29Zm-9,3.067a4.241,4.241,0,0,1-1.035-1.54,5.056,5.056,0,0,0,1.924.5,8.419,8.419,0,0,1-1.3-.6,3.463,3.463,0,0,1,.647.2c0.055,0.036,1.387.5,1.387,0.5a18.224,18.224,0,0,1-2.921-1.727C8.723,10.588,8.7,10.474,8.7,10.347a3.406,3.406,0,0,1,3.422-3.681,3.721,3.721,0,0,1,3.422,3.681c0,0.068-.023.136-0.028,0.2-0.017.009-.034,0.015-0.051,0.025A52.854,52.854,0,0,1,10.027,13.38Zm8.124-2.157-5.2,5.384a11.9,11.9,0,0,1,1.3-1.485,8.146,8.146,0,0,0,2.364-4.012A2.579,2.579,0,0,1,18.151,11.223Z"/>
</svg>
