<svg xmlns="http://www.w3.org/2000/svg" width="20" height="20" viewBox="0 0 20 20">
  <metadata><?xpacket begin="﻿" id="W5M0MpCehiHzreSzNTczkc9d"?>
<x:xmpmeta xmlns:x="adobe:ns:meta/" x:xmptk="Adobe XMP Core 5.6-c140 79.160451, 2017/05/06-01:08:21        ">
   <rdf:RDF xmlns:rdf="http://www.w3.org/1999/02/22-rdf-syntax-ns#">
      <rdf:Description rdf:about=""/>
   </rdf:RDF>
</x:xmpmeta>
                                                                                                    
                                                                                                    
                                                                                                    
                                                                                                    
                                                                                                    
                                                                                                    
                                                                                                    
                                                                                                    
                                                                                                    
                                                                                                    
                                                                                                    
                                                                                                    
                                                                                                    
                                                                                                    
                                                                                                    
                                                                                                    
                                                                                                    
                                                                                                    
                                                                                                    
                                                                                                    
                           
<?xpacket end="w"?></metadata>
<defs>
    <style>
      .cls-1 {
        fill: #9dabc2;
        fill-rule: evenodd;
      }
    </style>
  </defs>
  <path id="椭圆_8_拷贝" data-name="椭圆 8 拷贝" class="cls-1" d="M20,13v2H19V13h1Zm-0.988,4.58L17.58,19.012l-0.838-.838a4.97,4.97,0,0,1-5.485,0l-0.838.838L8.988,17.58l0.838-.838a4.97,4.97,0,0,1,0-5.485L8.988,10.42,10.42,8.988l0.838,0.838a4.97,4.97,0,0,1,5.485,0l0.838-.838,1.432,1.432-0.837.838a4.971,4.971,0,0,1,0,5.485ZM11,14a3,3,0,1,0,3-3A3,3,0,0,0,11,14Zm4,6H13V19h2v1ZM8,15V13H9v2H8Zm5-7h2V9H13V8ZM4,10V8H7v2H4ZM4,4h7V6H4V4Zm9,2.05V2H2V18H7.534a7.488,7.488,0,0,0,2.29,2H1a1,1,0,0,1-1-1V1A1,1,0,0,1,1,0H14a1,1,0,0,1,1,1V6.151A7.532,7.532,0,0,0,13.5,6C13.329,6,13.168,6.039,13,6.05Z"/>
</svg>
