<?xml version="1.0" standalone="no"?><!DOCTYPE svg PUBLIC "-//W3C//DTD SVG 1.1//EN" "http://www.w3.org/Graphics/SVG/1.1/DTD/svg11.dtd"><svg t="1599728536146" class="icon" viewBox="0 0 1024 1024" version="1.1" xmlns="http://www.w3.org/2000/svg" p-id="920" xmlns:xlink="http://www.w3.org/1999/xlink" width="200" height="200"><defs><style type="text/css"></style></defs><path d="M903.896 60c15.894 0 30.976 6.278 42.376 17.676C957.67 89.076 964 104.106 964 120v784c0 15.894-6.382 30.924-17.78 42.324-11.398 11.398-26.534 17.676-42.428 17.676h-784c-15.894 0-30.82-6.278-42.22-17.676C66.174 934.924 60 919.894 60 904V120c0-15.894 6.174-30.924 17.572-42.324C88.97 66.278 103.898 60 119.792 60H904m-0.208-60h-784C53.792 0 0 54 0 120v784c0 66 53.792 120 119.792 120h784c66 0 120.208-54 120.208-120V120c0-66-54.104-120-120.104-120h-0.104z" fill="#ffffff" p-id="921"></path><path d="M832 386c0 16.5-13.5 30-30 30H222c-16.5 0-30-13.5-30-30s13.5-30 30-30h580c16.5 0 30 13.5 30 30zM832 512c0 16.5-13.5 30-30 30H222c-16.5 0-30-13.5-30-30s13.5-30 30-30h580c16.5 0 30 13.5 30 30zM832 638c0 16.5-13.5 30-30 30H222c-16.5 0-30-13.5-30-30s13.5-30 30-30h580c16.5 0 30 13.5 30 30zM398.956 282c-16.5 0-20.454-9.546-8.786-21.214l100.41-100.41c11.668-11.668 30.76-11.668 42.426 0l100.41 100.41c11.668 11.668 7.714 21.214-8.786 21.214H398.956zM624.628 740c16.5 0 20.454 9.546 8.786 21.214l-100.41 100.41c-11.668 11.668-30.76 11.668-42.426 0l-100.41-100.41c-11.668-11.668-7.714-21.214 8.786-21.214h225.674z" fill="#ffffff" p-id="922"></path></svg>