<svg xmlns="http://www.w3.org/2000/svg" width="20" height="20" viewBox="0 0 20 20">
  <metadata><?xpacket begin="﻿" id="W5M0MpCehiHzreSzNTczkc9d"?>
<x:xmpmeta xmlns:x="adobe:ns:meta/" x:xmptk="Adobe XMP Core 5.6-c140 79.160451, 2017/05/06-01:08:21        ">
   <rdf:RDF xmlns:rdf="http://www.w3.org/1999/02/22-rdf-syntax-ns#">
      <rdf:Description rdf:about=""/>
   </rdf:RDF>
</x:xmpmeta>
                                                                                                    
                                                                                                    
                                                                                                    
                                                                                                    
                                                                                                    
                                                                                                    
                                                                                                    
                                                                                                    
                                                                                                    
                                                                                                    
                                                                                                    
                                                                                                    
                                                                                                    
                                                                                                    
                                                                                                    
                                                                                                    
                                                                                                    
                                                                                                    
                                                                                                    
                                                                                                    
                           
<?xpacket end="w"?></metadata>
<defs>
    <style>
      .cls-1 {
        fill: #9dabc2;
        fill-rule: evenodd;
      }
    </style>
  </defs>
  <path id="形状_1" data-name="形状 1" class="cls-1" d="M15,19.995V17.539A8.172,8.172,0,0,0,17.934,12.2H16V10.166h1.907A8.054,8.054,0,0,0,11,3.107V5.074H9V3.107a8.054,8.054,0,0,0-6.907,7.059H4V12.2H2.066A8.173,8.173,0,0,0,5,17.539v2.456a10.206,10.206,0,0,1-5-8.811A10.093,10.093,0,0,1,10,1,10.093,10.093,0,0,1,20,11.184,10.206,10.206,0,0,1,15,19.995Zm-5-9.829,4-2.037L12,12.2A2,2,0,1,1,10,10.166Z"/>
</svg>
