<svg xmlns="http://www.w3.org/2000/svg" width="20" height="20" viewBox="0 0 20 20">
  <metadata><?xpacket begin="﻿" id="W5M0MpCehiHzreSzNTczkc9d"?>
<x:xmpmeta xmlns:x="adobe:ns:meta/" x:xmptk="Adobe XMP Core 5.6-c140 79.160451, 2017/05/06-01:08:21        ">
   <rdf:RDF xmlns:rdf="http://www.w3.org/1999/02/22-rdf-syntax-ns#">
      <rdf:Description rdf:about=""/>
   </rdf:RDF>
</x:xmpmeta>
                                                                                                    
                                                                                                    
                                                                                                    
                                                                                                    
                                                                                                    
                                                                                                    
                                                                                                    
                                                                                                    
                                                                                                    
                                                                                                    
                                                                                                    
                                                                                                    
                                                                                                    
                                                                                                    
                                                                                                    
                                                                                                    
                                                                                                    
                                                                                                    
                                                                                                    
                                                                                                    
                           
<?xpacket end="w"?></metadata>
<defs>
    <style>
      .cls-1 {
        fill: #9dabc2;
        fill-rule: evenodd;
      }
    </style>
  </defs>
  <path id="椭圆_10_拷贝_2" data-name="椭圆 10 拷贝 2" class="cls-1" d="M10,15c-4.971,0-9-1.791-9-4a2,2,0,0,1,.318-1,4.664,4.664,0,0,0,2.035,1.676C4.247,12.549,6.867,13,10,13s5.754-.451,6.647-1.324A4.665,4.665,0,0,0,18.682,10,2,2,0,0,1,19,11C19,13.209,14.971,15,10,15Zm0-5C5.029,10,1,7.761,1,5s4.029-5,9-5,9,2.239,9,5S14.971,10,10,10Zm0-8C6.134,2,3,3.343,3,5s3.134,3,7,3,7-1.343,7-3S13.866,2,10,2ZM3.353,16.676C4.247,17.549,6.867,18,10,18s5.754-.451,6.647-1.324A4.665,4.665,0,0,0,18.682,15,2,2,0,0,1,19,16c0,2.209-4.029,4-9,4s-9-1.791-9-4a2,2,0,0,1,.318-1A4.664,4.664,0,0,0,3.353,16.676Z"/>
</svg>
