<svg xmlns="http://www.w3.org/2000/svg" width="20" height="20" viewBox="0 0 20 20">
  <metadata><?xpacket begin="﻿" id="W5M0MpCehiHzreSzNTczkc9d"?>
<x:xmpmeta xmlns:x="adobe:ns:meta/" x:xmptk="Adobe XMP Core 5.6-c140 79.160451, 2017/05/06-01:08:21        ">
   <rdf:RDF xmlns:rdf="http://www.w3.org/1999/02/22-rdf-syntax-ns#">
      <rdf:Description rdf:about=""/>
   </rdf:RDF>
</x:xmpmeta>
                                                                                                    
                                                                                                    
                                                                                                    
                                                                                                    
                                                                                                    
                                                                                                    
                                                                                                    
                                                                                                    
                                                                                                    
                                                                                                    
                                                                                                    
                                                                                                    
                                                                                                    
                                                                                                    
                                                                                                    
                                                                                                    
                                                                                                    
                                                                                                    
                                                                                                    
                                                                                                    
                           
<?xpacket end="w"?></metadata>
<defs>
    <style>
      .cls-1 {
        fill: #9dabc2;
        fill-rule: evenodd;
      }
    </style>
  </defs>
  <path id="矩形_24_拷贝_3" data-name="矩形 24 拷贝 3" class="cls-1" d="M18,19H10a1,1,0,0,1-1-1V13a1,1,0,0,1,1-1h8a1,1,0,0,1,1,1v5A1,1,0,0,1,18,19Zm-1-5H11v3h6V14Zm1-4H13a1,1,0,0,1-1-1V1a1,1,0,0,1,1-1h5a1,1,0,0,1,1,1V9A1,1,0,0,1,18,10ZM17,2H14V8h3V2ZM9,7H1A1,1,0,0,1,0,6V1A1,1,0,0,1,1,0H9a1,1,0,0,1,1,1V6A1,1,0,0,1,9,7ZM8,2H2V5H8V2ZM1,9H6a1,1,0,0,1,1,1v8a1,1,0,0,1-1,1H1a1,1,0,0,1-1-1V10A1,1,0,0,1,1,9Zm1,8H5V11H2v6Z"/>
</svg>
