<svg xmlns="http://www.w3.org/2000/svg" width="20" height="20" viewBox="0 0 20 20">
  <metadata><?xpacket begin="﻿" id="W5M0MpCehiHzreSzNTczkc9d"?>
<x:xmpmeta xmlns:x="adobe:ns:meta/" x:xmptk="Adobe XMP Core 5.6-c140 79.160451, 2017/05/06-01:08:21        ">
   <rdf:RDF xmlns:rdf="http://www.w3.org/1999/02/22-rdf-syntax-ns#">
      <rdf:Description rdf:about=""/>
   </rdf:RDF>
</x:xmpmeta>
                                                                                                    
                                                                                                    
                                                                                                    
                                                                                                    
                                                                                                    
                                                                                                    
                                                                                                    
                                                                                                    
                                                                                                    
                                                                                                    
                                                                                                    
                                                                                                    
                                                                                                    
                                                                                                    
                                                                                                    
                                                                                                    
                                                                                                    
                                                                                                    
                                                                                                    
                                                                                                    
                           
<?xpacket end="w"?></metadata>
<defs>
    <style>
      .cls-1 {
        fill: #9dacc1;
        fill-rule: evenodd;
      }
    </style>
  </defs>
  <path id="椭圆_15" data-name="椭圆 15" class="cls-1" d="M18,9.816V19a1,1,0,0,1-2,0V9.816a2.983,2.983,0,0,1,0-5.633V1a1,1,0,0,1,2,0V4.184A2.983,2.983,0,0,1,18,9.816ZM17,6a1,1,0,1,0,1,1A1,1,0,0,0,17,6Zm-6,9.816V19a1,1,0,0,1-2,0V15.816a2.983,2.983,0,0,1,0-5.633V1a1,1,0,0,1,2,0v9.184A2.983,2.983,0,0,1,11,15.816ZM10,12a1,1,0,1,0,1,1A1,1,0,0,0,10,12ZM4,9.816V19a1,1,0,0,1-2,0V9.816A2.983,2.983,0,0,1,2,4.184V1A1,1,0,0,1,4,1V4.184A2.983,2.983,0,0,1,4,9.816ZM3,6A1,1,0,1,0,4,7,1,1,0,0,0,3,6Z"/>
</svg>
