<svg xmlns="http://www.w3.org/2000/svg" width="48" height="48" viewBox="0 0 48 48">
  <metadata><?xpacket begin="﻿" id="W5M0MpCehiHzreSzNTczkc9d"?>
<x:xmpmeta xmlns:x="adobe:ns:meta/" x:xmptk="Adobe XMP Core 5.6-c138 79.159824, 2016/09/14-01:09:01        ">
   <rdf:RDF xmlns:rdf="http://www.w3.org/1999/02/22-rdf-syntax-ns#">
      <rdf:Description rdf:about=""/>
   </rdf:RDF>
</x:xmpmeta>
                                                                                                    
                                                                                                    
                                                                                                    
                                                                                                    
                                                                                                    
                                                                                                    
                                                                                                    
                                                                                                    
                                                                                                    
                                                                                                    
                                                                                                    
                                                                                                    
                                                                                                    
                                                                                                    
                                                                                                    
                                                                                                    
                                                                                                    
                                                                                                    
                                                                                                    
                                                                                                    
                           
<?xpacket end="w"?></metadata>
<defs>
    <style>
      .cls-1 {
        fill: #fff;
        fill-rule: evenodd;
      }
    </style>
  </defs>
  <path id="DNS" class="cls-1" d="M42.418,17.847A4.023,4.023,0,0,0,39.648,17a4.16,4.16,0,0,0-2.781.765,2.37,2.37,0,0,0-.873,1.845,2.066,2.066,0,0,0,.618,1.542,7.946,7.946,0,0,0,3.171,1.24A19.653,19.653,0,0,1,43.3,23.507a4.928,4.928,0,0,1,2.049,1.774,4.622,4.622,0,0,1,.661,2.474,5.056,5.056,0,0,1-.727,2.616,4.92,4.92,0,0,1-2.087,1.91,6.739,6.739,0,0,1-3.063.682,8.45,8.45,0,0,1-3.616-.688,5.2,5.2,0,0,1-2.287-2.07,6.269,6.269,0,0,1-.873-3.126l1.984-.19A5.1,5.1,0,0,0,36,29.03a3.648,3.648,0,0,0,1.6,1.353,5.6,5.6,0,0,0,2.439.516,5.4,5.4,0,0,0,2.125-.391,2.977,2.977,0,0,0,1.371-1.074,2.651,2.651,0,0,0,.45-1.489,2.408,2.408,0,0,0-.434-1.43,3.213,3.213,0,0,0-1.431-1.026,26.151,26.151,0,0,0-2.83-.848,13.6,13.6,0,0,1-3.068-1.086,4.449,4.449,0,0,1-1.7-1.62,4.25,4.25,0,0,1-.558-2.165,4.724,4.724,0,0,1,.683-2.462,4.324,4.324,0,0,1,1.995-1.738,7,7,0,0,1,2.916-.593,7.366,7.366,0,0,1,3.117.623,4.6,4.6,0,0,1,2.076,1.833,5.621,5.621,0,0,1,.781,2.741l-2.016.166A3.694,3.694,0,0,0,42.418,17.847ZM26.8,4.233a24.18,24.18,0,0,1,8.358,8.76H32.483A30.14,30.14,0,0,0,24,4.6a30.134,30.134,0,0,0-8.483,8.39H12.845A24.18,24.18,0,0,1,21.2,4.231,19.992,19.992,0,0,0,7.344,12.992H4.951A21.989,21.989,0,0,1,22.293,2.07V2c0.05,0.019.1,0.042,0.146,0.061,0.513-.036,1.024-0.078,1.545-0.078s1.051,0.042,1.573.079c0.051-.019.1-0.043,0.15-0.062v0.07A21.989,21.989,0,0,1,43.019,12.992H40.664A19.982,19.982,0,0,0,26.8,4.233ZM10.312,15.522a5.216,5.216,0,0,1,2.331,1.246,7.124,7.124,0,0,1,1.881,2.972,12.67,12.67,0,0,1,.623,4.135,13.229,13.229,0,0,1-.423,3.512A8.9,8.9,0,0,1,13.64,29.92,6.055,6.055,0,0,1,12.193,31.5a5.639,5.639,0,0,1-1.9.872,9.93,9.93,0,0,1-2.553.3H2.007V15.273H7.482A12.168,12.168,0,0,1,10.312,15.522Zm-6.2,1.8V30.614H7.5a7.566,7.566,0,0,0,2.466-.32,3.474,3.474,0,0,0,1.426-.9,5.621,5.621,0,0,0,1.165-2.2,11.709,11.709,0,0,0,.418-3.352,8.73,8.73,0,0,0-.819-4.194,4.269,4.269,0,0,0-1.989-1.964,7.559,7.559,0,0,0-2.721-.356H4.11ZM2,23.652v0.635c0-.107-0.015-0.21-0.015-0.317S2,23.759,2,23.652Zm28.541-8.379V32.667H28.384L20.036,19V32.667H18.02V15.273h2.157l8.348,13.656V15.273h2.017Zm-9.4,28.463a24.169,24.169,0,0,1-8.32-8.759H15.5A30.16,30.16,0,0,0,24,43.418a30.169,30.169,0,0,0,8.5-8.441h2.679a24.168,24.168,0,0,1-8.31,8.754,19.986,19.986,0,0,0,13.8-8.754H43a21.989,21.989,0,0,1-17.294,10.89V46c-0.1-.037-0.191-0.082-0.289-0.12-0.476.031-.95,0.072-1.433,0.072s-0.939-.041-1.406-0.071c-0.1.037-.189,0.082-0.285,0.119V45.868A21.989,21.989,0,0,1,4.968,34.977H7.339A19.993,19.993,0,0,0,21.145,43.736Z"/>
</svg>
