<svg xmlns="http://www.w3.org/2000/svg" width="20" height="20" viewBox="0 0 20 20">
  <metadata><?xpacket begin="﻿" id="W5M0MpCehiHzreSzNTczkc9d"?>
<x:xmpmeta xmlns:x="adobe:ns:meta/" x:xmptk="Adobe XMP Core 5.6-c140 79.160451, 2017/05/06-01:08:21        ">
   <rdf:RDF xmlns:rdf="http://www.w3.org/1999/02/22-rdf-syntax-ns#">
      <rdf:Description rdf:about=""/>
   </rdf:RDF>
</x:xmpmeta>
                                                                                                    
                                                                                                    
                                                                                                    
                                                                                                    
                                                                                                    
                                                                                                    
                                                                                                    
                                                                                                    
                                                                                                    
                                                                                                    
                                                                                                    
                                                                                                    
                                                                                                    
                                                                                                    
                                                                                                    
                                                                                                    
                                                                                                    
                                                                                                    
                                                                                                    
                                                                                                    
                           
<?xpacket end="w"?></metadata>
<defs>
    <style>
      .cls-1 {
        fill: #9dabc2;
        fill-rule: evenodd;
      }
    </style>
  </defs>
  <path id="矩形_52_拷贝_2" data-name="矩形 52 拷贝 2" class="cls-1" d="M19,20H15a3.712,3.712,0,0,0,0-1V18h3V15h1a4.851,4.851,0,0,0,1,0v4A1,1,0,0,1,19,20Zm-3-9c-0.489,3.08-3.477,5-7,5s-6.511-1.92-7-5V9H5V7H9V5h2V7h2V9h3V6l4,4H16v1ZM4,11c0.463,2.075,2.581,3.182,5,3.182S13.537,13.075,14,11H4ZM19,5H18V2H15V1a3.712,3.712,0,0,0,0-1h4a1,1,0,0,1,1,1V5A4.855,4.855,0,0,0,19,5ZM2,5H1A4.855,4.855,0,0,0,0,5V1A1,1,0,0,1,1,0H5A3.715,3.715,0,0,0,5,1V2H2V5ZM1,15H2v3H5v1a3.716,3.716,0,0,0,0,1H1a1,1,0,0,1-1-1V15A4.851,4.851,0,0,0,1,15Z"/>
</svg>
