<svg xmlns="http://www.w3.org/2000/svg" width="48" height="48" viewBox="0 0 48 48">
  <metadata><?xpacket begin="﻿" id="W5M0MpCehiHzreSzNTczkc9d"?>
<x:xmpmeta xmlns:x="adobe:ns:meta/" x:xmptk="Adobe XMP Core 5.6-c138 79.159824, 2016/09/14-01:09:01        ">
   <rdf:RDF xmlns:rdf="http://www.w3.org/1999/02/22-rdf-syntax-ns#">
      <rdf:Description rdf:about=""/>
   </rdf:RDF>
</x:xmpmeta>
                                                                                                    
                                                                                                    
                                                                                                    
                                                                                                    
                                                                                                    
                                                                                                    
                                                                                                    
                                                                                                    
                                                                                                    
                                                                                                    
                                                                                                    
                                                                                                    
                                                                                                    
                                                                                                    
                                                                                                    
                                                                                                    
                                                                                                    
                                                                                                    
                                                                                                    
                                                                                                    
                           
<?xpacket end="w"?></metadata>
<defs>
    <style>
      .cls-1 {
        fill: #fff;
        fill-rule: evenodd;
      }
    </style>
  </defs>
  <path id="圆角矩形_2" data-name="圆角矩形 2" class="cls-1" d="M45.6,47.994H25.995V48h-3.99V47.994H2.4A2.419,2.419,0,0,1,0,45.557V2.437A2.419,2.419,0,0,1,2.4,0H45.6A2.419,2.419,0,0,1,48,2.437v43.12A2.419,2.419,0,0,1,45.6,47.994ZM46.014,1.985H1.986V46.008H46.014V1.985Zm-27.009,32H17V15.006h2.008V33.988Zm10.2-18.981a4.773,4.773,0,0,1,4.8,4.745v2.373A5.066,5.066,0,0,1,29,27H24v7l-1.994-.012V15.006h7.2Zm-3.254,2H23.979V25h1.993L26,25h4a2,2,0,0,0,2-2V19a2,2,0,0,0-2-2H26C25.984,17,25.969,17,25.952,17Z"/>
</svg>
