<svg xmlns="http://www.w3.org/2000/svg" width="20" height="20" viewBox="0 0 20 20">
  <metadata><?xpacket begin="﻿" id="W5M0MpCehiHzreSzNTczkc9d"?>
<x:xmpmeta xmlns:x="adobe:ns:meta/" x:xmptk="Adobe XMP Core 5.6-c140 79.160451, 2017/05/06-01:08:21        ">
   <rdf:RDF xmlns:rdf="http://www.w3.org/1999/02/22-rdf-syntax-ns#">
      <rdf:Description rdf:about=""/>
   </rdf:RDF>
</x:xmpmeta>
                                                                                                    
                                                                                                    
                                                                                                    
                                                                                                    
                                                                                                    
                                                                                                    
                                                                                                    
                                                                                                    
                                                                                                    
                                                                                                    
                                                                                                    
                                                                                                    
                                                                                                    
                                                                                                    
                                                                                                    
                                                                                                    
                                                                                                    
                                                                                                    
                                                                                                    
                                                                                                    
                           
<?xpacket end="w"?></metadata>
<defs>
    <style>
      .cls-1 {
        fill: #9dacc1;
        fill-rule: evenodd;
      }
    </style>
  </defs>
  <path id="椭圆_14_拷贝" data-name="椭圆 14 拷贝" class="cls-1" d="M16.816,17a2.983,2.983,0,0,1-5.633,0H0V15H11.184a2.983,2.983,0,0,1,5.633,0H20v2H16.816ZM14,15a1,1,0,1,0,1,1A1,1,0,0,0,14,15ZM6,13a2.991,2.991,0,0,1-2.816-2H0V9H3.184A2.983,2.983,0,0,1,8.816,9H20v2H8.816A2.991,2.991,0,0,1,6,13ZM6,9a1,1,0,1,0,1,1A1,1,0,0,0,6,9Zm7-2a2.991,2.991,0,0,1-2.816-2H0V3H10.184a2.983,2.983,0,0,1,5.633,0H20V5H15.816A2.991,2.991,0,0,1,13,7Zm0-4a1,1,0,1,0,1,1A1,1,0,0,0,13,3Z"/>
</svg>
