<?xml version="1.0" standalone="no"?><!DOCTYPE svg PUBLIC "-//W3C//DTD SVG 1.1//EN" "http://www.w3.org/Graphics/SVG/1.1/DTD/svg11.dtd"><svg t="1571110700738" class="icon" viewBox="0 0 1024 1024" version="1.1" xmlns="http://www.w3.org/2000/svg" p-id="7463" xmlns:xlink="http://www.w3.org/1999/xlink" width="32" height="32"><defs><style type="text/css"></style></defs><path d="M610.911998 543.968009c-18.304 0-35.167999 9.984-43.903999 26.048l-103.359998 190.047996a49.919999 49.919999 0 0 0 0 47.711999l103.359998 190.047997c8.736 16.064 25.6 26.079999 43.903999 26.079999h201.599996c18.304 0 35.167999-10.048 43.903999-26.079999l103.391998-190.015997a50.015999 50.015999 0 0 0 0-47.775999L856.415993 569.984009a49.951999 49.951999 0 0 0-43.903999-26.048h-201.599996z m192.031996 363.775993A40.319999 40.319999 0 0 1 767.999995 927.968002H655.455997c-14.4 0-27.743999-7.712-34.943999-20.192l-59.775999-103.647998a40.223999 40.223999 0 0 1 0-40.351999l59.775999-103.647998c7.2-12.48 20.544-20.16 34.943999-20.159999H767.999995c14.4 0 27.743999 7.68 34.943999 20.191999l59.775999 103.647998a40.271999 40.271999 0 0 1 0 40.287999l-59.775999 103.647998zM425.280002 282.048014a49.983999 49.983999 0 0 0-43.903999-26.079999H179.712006a49.919999 49.919999 0 0 0-43.903999 26.079999L32.448009 472.096011a49.919999 49.919999 0 0 0 0 47.711999l103.359998 190.047996c8.736 16.064 25.6 26.079999 43.903999 26.08h201.663997c18.304 0 35.167999-10.048 43.903999-26.08l103.359998-190.047996a49.919999 49.919999 0 0 0 0-47.711999L425.280002 282.048014z m387.231992 197.919997c18.304 0 35.167999-10.016 43.903999-26.08L959.807991 263.840015a50.015999 50.015999 0 0 0 0-47.775999L856.415993 26.048019A49.951999 49.951999 0 0 0 812.511994 0.00002h-201.599996c-18.304 0-35.167999 9.984-43.903999 26.047999l-103.359998 190.047997a49.919999 49.919999 0 0 0 0 47.711999l103.359998 190.079996c8.736 16.064 25.6 26.079999 43.903999 26.08h201.599996z" p-id="7464"></path></svg>