<?xml version="1.0" encoding="UTF-8"?>
<svg width="20px" height="20px" viewBox="0 0 20 20" version="1.1" xmlns="http://www.w3.org/2000/svg" xmlns:xlink="http://www.w3.org/1999/xlink">
    <!-- Generator: Sketch 54.1 (76490) - https://sketchapp.com -->
    <title>llrs</title>
    <desc>Created with Sketch.</desc>
    <g id="品牌" stroke="none" stroke-width="1" fill="none" fill-rule="evenodd">
        <g id="品牌-1" transform="translate(-116.000000, -464.000000)" fill="#000000" fill-rule="nonzero">
            <g id="llrs" transform="translate(116.000000, 464.000000)">
                <path d="M19.184,13.243 L16.245,16.174 C15.9462079,16.4712585 15.4974413,16.5585626 15.109,16.395 C14.8568628,16.2936026 14.6568528,16.0939536 14.555,15.842 C14.4990237,15.7017065 14.4747777,15.5507666 14.484,15.4 L14.484,5.5 C14.484,4.94771525 14.9317153,4.5 15.484,4.5 C16.0362847,4.5 16.484,4.94771525 16.484,5.5 L16.484,13.011 L17.719,11.78 C17.972982,11.4852908 18.37044,11.3573513 18.7486475,11.4485621 C19.1268551,11.5397729 19.4223035,11.8348181 19.514031,12.2129006 C19.6057584,12.5909832 19.4783619,12.9886156 19.184,13.243 L19.184,13.243 Z M12.49,19.5 C11.941029,19.5 11.496,19.054971 11.496,18.506 L11.496,10.969 L10.269,12.2 C10.0759666,12.3946874 9.81316247,12.5042017 9.539,12.5042017 C9.26483753,12.5042017 9.0020334,12.3946874 8.809,12.2 C8.40622708,11.7931581 8.40622708,11.1378419 8.809,10.731 L11.73,7.8 C12.0253422,7.50251324 12.4719545,7.41461615 12.858,7.578 C13.1112711,7.679442 13.311386,7.88100442 13.411,8.135 C13.4667345,8.27399935 13.4916409,8.42343808 13.484,8.573 L13.484,18.506 C13.484,19.054971 13.038971,19.5 12.49,19.5 L12.49,19.5 Z M10.084,7.444 L6.606,10.911 C5.83724263,11.677005 4.59375737,11.677005 3.825,10.911 L1.044,8.137 C0.675341672,7.76977464 0.468110694,7.27084933 0.468110694,6.7505 C0.468110694,6.23015067 0.675341672,5.73122536 1.044,5.364 L4.521,1.9 L3.825,1.2 L4.525,0.507 L5.216,1.2 L9.384,5.364 L10.084,6.057 L11.475,7.444 L10.775,8.137 L10.084,7.444 Z M7.997,5.364 L6.606,3.977 L5.906,3.284 L2.435,6.751 L7.997,6.751 L8.697,6.058 L7.997,5.364 Z"></path>
            </g>
        </g>
    </g>
</svg>