<?xml version="1.0" standalone="no"?><!DOCTYPE svg PUBLIC "-//W3C//DTD SVG 1.1//EN" "http://www.w3.org/Graphics/SVG/1.1/DTD/svg11.dtd"><svg t="1582610009810" class="icon" viewBox="0 0 1024 1024" version="1.1" xmlns="http://www.w3.org/2000/svg" p-id="1442" xmlns:xlink="http://www.w3.org/1999/xlink" width="200" height="200"><defs><style type="text/css"></style></defs><path d="M671.891093 190.746449c-8.147967 0-14.993856-2.556225-20.545657-7.668674a68.602683 68.602683 0 0 1-13.883496-17.869609 92.056045 92.056045 0 0 1-8.323707-20.937079c-1.853263-7.149441-2.779894-13.10864-2.779895-17.877597V0.755041h2.220721c6.662161 0 12.956864 0.678997 18.876122 2.04498 5.927246 1.357994 13.140593 4.593216 21.656017 9.697678 8.515424 5.11245 18.876122 12.261891 31.090084 21.456312 12.22195 9.186433 27.583263 21.280571 46.091929 36.266439 19.986483 16.335874 35.898982 30.123512 47.745486 41.362912 11.846504 11.231413 20.913114 20.769326 27.207817 28.597765 6.286715 7.828438 10.17697 14.474623 11.662776 19.922577 1.477817 5.447954 2.212732 10.208923 2.212732 14.298883v16.343862H671.891093zM1017.237062 671.843932c2.22072 5.447954 3.706526 12.261891 4.441441 20.433822 0.742903 8.171931-2.955635 16.00037-11.103602 23.485315-3.698538 3.410962-7.029618 6.646184-9.985253 9.705666-2.971611 3.06747-5.559789 5.623695-7.780509 7.668674a53.441075 53.441075 0 0 1-7.772521 6.126952l-94.3886-85.801283a354.125004 354.125004 0 0 0 14.993856-12.261891 247.857947 247.857947 0 0 1 13.875507-11.231413c8.882881-7.492934 18.508665-10.728156 28.877352-9.705666 10.360699 1.02249 18.876122 3.235222 25.538284 6.630208 7.405064 3.410962 15.361313 9.370162 23.876737 17.885586 8.507436 8.507436 14.985868 17.534104 19.427308 27.06403zM625.255966 766.839636c16.279957 0 29.971736-4.081971 41.083326-12.253903l-215.433833 206.33527H144.422094c-14.067225 0-29.428538-3.754455-46.091928-11.239401a196.102383 196.102383 0 0 1-46.635126-29.628243 170.731852 170.731852 0 0 1-36.090699-42.385402c-9.617796-16.00037-14.434682-32.511984-14.434682-49.542832V132.520441c0-14.298882 3.514809-29.276762 10.544427-44.941627A147.062808 147.062808 0 0 1 40.599427 45.185423a174.126838 174.126838 0 0 1 41.642499-31.665234C97.77898 5.012753 114.066925 0.755041 131.105761 0.755041h425.2919v127.683429c0 12.940888 2.22072 26.896278 6.662161 41.874157a133.434934 133.434934 0 0 0 20.545657 41.370901c9.258327 12.597395 21.28856 23.149811 36.090699 31.665234 14.802139 8.515424 32.57589 12.765148 53.305275 12.765148h162.120569v338.10067L682.994694 739.264361c8.147967-10.895908 12.213962-22.814306 12.213962-35.755195 0-17.701857-6.84589-32.855477-20.545657-45.452872-13.691779-12.597395-30.163453-18.900087-49.415021-18.900087H208.830971c-19.24358 0-35.531525 6.302692-48.855846 18.900087-13.324322 12.597395-19.986483 27.751015-19.986483 45.452872 0 17.709845 6.662161 32.687725 19.986483 44.941628 13.324322 12.261891 29.612267 18.388842 48.863834 18.388842h416.424996zM208.830971 383.797338c-19.251568 0-35.539513 6.302692-48.863835 18.900087-13.324322 12.597395-19.986483 27.743027-19.986482 45.452873 0 17.701857 6.662161 32.687725 19.986482 44.941627 13.324322 12.253903 29.612267 18.388842 48.863835 18.388842h416.424995c19.24358 0 35.707265-6.13494 49.407033-18.388842 13.699767-12.253903 20.545657-27.23977 20.545657-44.941627 0-17.709845-6.84589-32.855477-20.545657-45.452873-13.691779-12.597395-30.163453-18.900087-49.415021-18.900087H208.830971z m418.637728 511.748216l14.434681-13.284381 27.766992-25.530295a3832.340142 3832.340142 0 0 0 36.641885-34.221459 4000.148311 4000.148311 0 0 1 39.972965-37.280941c31.832987-29.28475 67.739957-61.972475 107.720911-98.063174l93.27824 85.801283-107.72091 99.085664-39.972966 36.769696-36.641884 33.710214a1433.562818 1433.562818 0 0 0-26.097458 24.507805c-7.029618 6.813937-10.919873 10.560404-11.662775 11.239401-3.698538 2.723977-7.772521 5.615706-12.213962 8.683176-4.441441 3.059482-8.882881 5.615706-13.324322 7.660686-4.441441 2.04498-11.28733 4.593216-20.545657 7.660687a667.014907 667.014907 0 0 1-28.318177 8.683176 576.748219 576.748219 0 0 1-27.759004 7.149441c-8.882881 2.04498-15.545042 3.402974-19.986483 4.081971-8.882881 1.357994-14.810127 0.343493-17.765762-3.059481-2.963623-3.402974-3.706526-9.194421-2.22072-17.366352 0.734915-4.081971 2.22072-10.216911 4.44144-18.388842 2.22072-8.171931 4.808898-16.511615 7.772521-25.019051l8.323707-24.004548c2.596166-7.492934 4.633157-12.597395 6.110975-15.321372a81.136173 81.136173 0 0 1 17.765763-23.493304z" p-id="1443"></path></svg>