<svg xmlns="http://www.w3.org/2000/svg" width="20" height="20" viewBox="0 0 20 20">
  <metadata><?xpacket begin="﻿" id="W5M0MpCehiHzreSzNTczkc9d"?>
<x:xmpmeta xmlns:x="adobe:ns:meta/" x:xmptk="Adobe XMP Core 5.6-c140 79.160451, 2017/05/06-01:08:21        ">
   <rdf:RDF xmlns:rdf="http://www.w3.org/1999/02/22-rdf-syntax-ns#">
      <rdf:Description rdf:about=""/>
   </rdf:RDF>
</x:xmpmeta>
                                                                                                    
                                                                                                    
                                                                                                    
                                                                                                    
                                                                                                    
                                                                                                    
                                                                                                    
                                                                                                    
                                                                                                    
                                                                                                    
                                                                                                    
                                                                                                    
                                                                                                    
                                                                                                    
                                                                                                    
                                                                                                    
                                                                                                    
                                                                                                    
                                                                                                    
                                                                                                    
                           
<?xpacket end="w"?></metadata>
<defs>
    <style>
      .cls-1 {
        fill: #9dabc2;
        fill-rule: evenodd;
      }
    </style>
  </defs>
  <path id="椭圆_7" data-name="椭圆 7" class="cls-1" d="M16,10a3.99,3.99,0,0,1-3.258-6.308h0A5.933,5.933,0,0,0,10,3a5.659,5.659,0,0,0-1.451.191A3.994,3.994,0,0,0,7.054,1.584a7.88,7.88,0,0,1,7.359.746A4,4,0,1,1,16,10ZM13.415,2.971c0.048-.041.1-0.081,0.145-0.12C13.51,2.89,13.463,2.93,13.415,2.971ZM16,4a2,2,0,1,0,2,2A2,2,0,0,0,16,4ZM4.1,9.99a5.911,5.911,0,0,0,1.468,2.987A3.96,3.96,0,0,0,5,15c0,0.081.019,0.157,0.024,0.236a7.968,7.968,0,0,1-3-5.779h0A3.986,3.986,0,1,1,4.1,9.99ZM3.01,9.862C2.967,9.851,2.927,9.835,2.884,9.823,2.927,9.836,2.967,9.85,3.01,9.862ZM4,4A2,2,0,1,0,6,6,2,2,0,0,0,4,4Zm6,8a3.985,3.985,0,0,1,3.4,1.913,6.017,6.017,0,0,0,2.29-3.151A3.961,3.961,0,0,0,17,11a4.006,4.006,0,0,0,.739-0.075,8.006,8.006,0,0,1-3.747,5C13.993,15.949,14,15.973,14,16A4,4,0,1,1,10,12Zm3.794,2.791c0.014,0.045.029,0.089,0.042,0.134C13.822,14.88,13.808,14.836,13.794,14.791ZM10,18a2,2,0,1,0-2-2A2,2,0,0,0,10,18Z"/>
</svg>
