<svg width="16" height="16" viewBox="0 0 16 16" fill="none" xmlns="http://www.w3.org/2000/svg">
<path d="M8.00016 2.66659C10.9402 2.66659 13.3335 5.05992 13.3335 7.99992C13.3335 10.9399 10.9402 13.3333 8.00016 13.3333C5.06016 13.3333 2.66683 10.9399 2.66683 7.99992C2.66683 5.05992 5.06016 2.66659 8.00016 2.66659ZM8.00016 1.33325C4.32016 1.33325 1.3335 4.31992 1.3335 7.99992C1.3335 11.6799 4.32016 14.6666 8.00016 14.6666C11.6802 14.6666 14.6668 11.6799 14.6668 7.99992C14.6668 4.31992 11.6802 1.33325 8.00016 1.33325Z" fill="#4F4F4F"/>
<path d="M9.771 9.74707L10.8611 4.88569L5.99976 5.97583L9.771 9.74707Z" fill="#4F4F4F"/>
<path d="M9.33025 9.35218L5.54605 10.2008L6.39227 6.42712L8.42926 6.02358L9.92436 6.77114L9.33025 9.35218Z" stroke="#4F4F4F"/>
</svg>
