<svg xmlns="http://www.w3.org/2000/svg" width="56" height="56" viewBox="0 0 56 56">
  <metadata><?xpacket begin="﻿" id="W5M0MpCehiHzreSzNTczkc9d"?>
<x:xmpmeta xmlns:x="adobe:ns:meta/" x:xmptk="Adobe XMP Core 5.6-c138 79.159824, 2016/09/14-01:09:01        ">
   <rdf:RDF xmlns:rdf="http://www.w3.org/1999/02/22-rdf-syntax-ns#">
      <rdf:Description rdf:about=""/>
   </rdf:RDF>
</x:xmpmeta>
                                                                                                    
                                                                                                    
                                                                                                    
                                                                                                    
                                                                                                    
                                                                                                    
                                                                                                    
                                                                                                    
                                                                                                    
                                                                                                    
                                                                                                    
                                                                                                    
                                                                                                    
                                                                                                    
                                                                                                    
                                                                                                    
                                                                                                    
                                                                                                    
                                                                                                    
                                                                                                    
                           
<?xpacket end="w"?></metadata>
<defs>
    <style>
      .cls-1 {
        fill: #fff;
        fill-rule: evenodd;
      }
    </style>
  </defs>
  <path id="有状态负载.svg" class="cls-1" d="M273.962,1488.62a2.04,2.04,0,0,1,.038.38v15a2,2,0,0,1-2,2H226a2,2,0,0,1-2-2v-15a2,2,0,0,1,.522-1.34,0.98,0.98,0,0,1,.03-0.51L232.98,1464h32.444l8.646,23.75A0.985,0.985,0,0,1,273.962,1488.62Zm-9.94-22.62H234.38l-7.643,21H242a0.932,0.932,0,0,1,1,1,6,6,0,0,0,12,0,0.93,0.93,0,0,1,1-1h15.667ZM272,1489H256.931a7.993,7.993,0,0,1-15.862,0H226v15h46v-15Zm-36-9a1,1,0,0,1,1-1h24a1,1,0,0,1,0,2H237A1,1,0,0,1,236,1480Zm22-6H240a1,1,0,0,1,0-2h18A1,1,0,0,1,258,1474Z" transform="translate(-221.063 -1457)"/>
</svg>
