<svg xmlns="http://www.w3.org/2000/svg" width="56" height="56" viewBox="0 0 56 56">
  <metadata><?xpacket begin="﻿" id="W5M0MpCehiHzreSzNTczkc9d"?>
<x:xmpmeta xmlns:x="adobe:ns:meta/" x:xmptk="Adobe XMP Core 5.6-c138 79.159824, 2016/09/14-01:09:01        ">
   <rdf:RDF xmlns:rdf="http://www.w3.org/1999/02/22-rdf-syntax-ns#">
      <rdf:Description rdf:about=""/>
   </rdf:RDF>
</x:xmpmeta>
                                                                                                    
                                                                                                    
                                                                                                    
                                                                                                    
                                                                                                    
                                                                                                    
                                                                                                    
                                                                                                    
                                                                                                    
                                                                                                    
                                                                                                    
                                                                                                    
                                                                                                    
                                                                                                    
                                                                                                    
                                                                                                    
                                                                                                    
                                                                                                    
                                                                                                    
                                                                                                    
                           
<?xpacket end="w"?></metadata>
<defs>
    <style>
      .cls-1 {
        fill: #0a457f;
        fill-rule: evenodd;
      }
    </style>
  </defs>
  <path id="VPC_大.svg" data-name="VPC 大.svg" class="cls-1" d="M167.888,1692.37l-12.5,21.65L154,1715H127l-1.232-1.37-12.5-21.65L113,1690l0.656-.98,12.5-21.65a0.936,0.936,0,0,1,.4-0.37H154l1,0.98,12.5,21.65L168,1691ZM166,1691l-0.232-.37-12.5-21.65c-0.007-.01-0.006-0.02-0.012-0.03a1.085,1.085,0,0,1-.256.05H128a0.984,0.984,0,0,1-.42-0.1L115.975,1689H116l-1,1.99,12.5,21.64a0.984,0.984,0,0,1,.122.45A0.959,0.959,0,0,1,128,1713h25.666l-0.01.02A0.691,0.691,0,0,0,154,1713h-0.334l12.49-21.63Zm-20.5,7a4.143,4.143,0,0,1-.5-0.03V1698H135v-0.03c-0.165.01-.33,0.03-0.5,0.03a4.489,4.489,0,0,1-.4-8.96,5.967,5.967,0,0,1,11.088-2.01c0.106,0,.207-0.03.315-0.03A5.5,5.5,0,0,1,145.5,1698Zm0-9a4.066,4.066,0,0,0-.5.06V1689h-1.158a3.983,3.983,0,0,0-7.842,1c0,0.09.03,0.17,0.036,0.26a1.98,1.98,0,0,0-.812.86,2.495,2.495,0,1,0-.724,4.88,2.743,2.743,0,0,0,.5-0.05V1696h10v-0.05a4.11,4.11,0,0,0,.5.05A3.5,3.5,0,0,0,145.5,1689Z" transform="translate(-112.5 -1663)"/>
</svg>
