<svg xmlns="http://www.w3.org/2000/svg" width="54" height="54" viewBox="0 0 54 54">
  <metadata><?xpacket begin="﻿" id="W5M0MpCehiHzreSzNTczkc9d"?>
<x:xmpmeta xmlns:x="adobe:ns:meta/" x:xmptk="Adobe XMP Core 5.6-c138 79.159824, 2016/09/14-01:09:01        ">
   <rdf:RDF xmlns:rdf="http://www.w3.org/1999/02/22-rdf-syntax-ns#">
      <rdf:Description rdf:about=""/>
   </rdf:RDF>
</x:xmpmeta>
                                                                                                    
                                                                                                    
                                                                                                    
                                                                                                    
                                                                                                    
                                                                                                    
                                                                                                    
                                                                                                    
                                                                                                    
                                                                                                    
                                                                                                    
                                                                                                    
                                                                                                    
                                                                                                    
                                                                                                    
                                                                                                    
                                                                                                    
                                                                                                    
                                                                                                    
                                                                                                    
                           
<?xpacket end="w"?></metadata>
<defs>
    <style>
      .cls-1 {
        fill: #0a457f;
        fill-rule: evenodd;
      }
    </style>
  </defs>
  <path id="应用监控大.svg" class="cls-1" d="M1786,1406h-24v6h8a1,1,0,0,1,0,2h-18a1,1,0,0,1,0-2h8v-6h-24a2.006,2.006,0,0,1-2-2v-34a2.006,2.006,0,0,1,2-2h50a2.006,2.006,0,0,1,2,2v34A2.006,2.006,0,0,1,1786,1406Zm0-36h-50v34h50v-34Zm-26,25v-8a1,1,0,0,1,2,0v8A1,1,0,0,1,1760,1395Zm14-17a1,1,0,0,1,1,1v16a1,1,0,0,1-2,0v-16A1,1,0,0,1,1774,1378Zm-26,18a1,1,0,0,1-1-1v-11a1,1,0,0,1,2,0v11A1,1,0,0,1,1748,1396Z" transform="translate(-1734 -1364)"/>
</svg>
