<svg xmlns="http://www.w3.org/2000/svg" width="52" height="52" viewBox="0 0 52 52">
  <metadata><?xpacket begin="﻿" id="W5M0MpCehiHzreSzNTczkc9d"?>
<x:xmpmeta xmlns:x="adobe:ns:meta/" x:xmptk="Adobe XMP Core 5.6-c138 79.159824, 2016/09/14-01:09:01        ">
   <rdf:RDF xmlns:rdf="http://www.w3.org/1999/02/22-rdf-syntax-ns#">
      <rdf:Description rdf:about=""/>
   </rdf:RDF>
</x:xmpmeta>
                                                                                                    
                                                                                                    
                                                                                                    
                                                                                                    
                                                                                                    
                                                                                                    
                                                                                                    
                                                                                                    
                                                                                                    
                                                                                                    
                                                                                                    
                                                                                                    
                                                                                                    
                                                                                                    
                                                                                                    
                                                                                                    
                                                                                                    
                                                                                                    
                                                                                                    
                                                                                                    
                           
<?xpacket end="w"?></metadata>
<defs>
    <style>
      .cls-1 {
        fill: #0a457f;
        fill-rule: evenodd;
      }
    </style>
  </defs>
  <path id="Kafka-大.svg" class="cls-1" d="M174,1386a6.971,6.971,0,0,1-4.97-2.07,1.029,1.029,0,0,1-.244.19l-9.953,5.17A8.934,8.934,0,0,1,159,1391a9.183,9.183,0,0,1-.134,1.5l10.173,5.56a6.982,6.982,0,1,1-1.2,1.62l-9.53-5.21a8.976,8.976,0,0,1-7.32,5.45c0,0.03.015,0.05,0.015,0.08v3c0,0.03-.014.05-0.016,0.08a7,7,0,1,1-1.969,0c0-.03-0.015-0.05-0.015-0.08v-3c0-.02.01-0.04,0.011-0.06a8.994,8.994,0,0,1,0-17.88c0-.02-0.011-0.04-0.011-0.06v-3c0-.03.013-0.05,0.015-0.08a7,7,0,1,1,1.969,0c0,0.03.016,0.05,0.016,0.08v3a0.418,0.418,0,0,1-.015.07,9.009,9.009,0,0,1,7.238,5.28l9.632-5A6.919,6.919,0,0,1,167,1379,7,7,0,1,1,174,1386Zm0,22a5,5,0,1,0-5-5A5,5,0,0,0,174,1408Zm-29,2a5,5,0,1,0,5-5A5,5,0,0,0,145,1410Zm10-38a5,5,0,1,0-5,5A5,5,0,0,0,155,1372Zm-5,12a7,7,0,1,0,7,7A7,7,0,0,0,150,1384Zm24-10a5,5,0,1,0,5,5A5,5,0,0,0,174,1374Z" transform="translate(-135 -1365)"/>
</svg>
