<?xml version="1.0" encoding="utf-8"?>
<!-- Generator: Adobe Illustrator 21.1.0, SVG Export Plug-In . SVG Version: 6.00 Build 0)  -->
<svg version="1.1" id="图层_1" xmlns="http://www.w3.org/2000/svg" xmlns:xlink="http://www.w3.org/1999/xlink" x="0px" y="0px"
	 viewBox="0 0 48 48" style="enable-background:new 0 0 48 48;" xml:space="preserve">
<style type="text/css">
	.st0{fill:#6F7C92;}
</style>
<path id="矩形_3_副本_7" class="st0" d="M14.7,40c-2,0-3.7-1.6-3.7-3.6c0,0,0,0,0,0V10l0,0V3.6c0-2,1.6-3.7,3.7-3.6c0,0,0,0,0,0
	H35l9,8.2v28.1c0,2-1.6,3.7-3.7,3.7c0,0,0,0,0,0 M39.3,38c2,0,2.7-1,2.7-3V11h-5.8c0,0,0,0,0,0H33V2H15.7c-2,0-2.7,0.6-2.7,2.6V10
	l0,0v25.4c0,2,0.6,2.6,2.7,2.6 M35,2.8V9h6.8L35,2.8z M17,25h14v2H17V25z M17,18h7v2h-7V18z M32,46h3.6c-0.6,1.2-1.9,2-3.3,2H6.7
	c-2,0-3.7-1.6-3.7-3.6c0,0,0,0,0,0V13.7c0-1.4,0.8-2.6,2-3.2V46H32z"/>
</svg>
