<svg xmlns="http://www.w3.org/2000/svg" width="56" height="56" viewBox="0 0 56 56">
  <metadata><?xpacket begin="﻿" id="W5M0MpCehiHzreSzNTczkc9d"?>
<x:xmpmeta xmlns:x="adobe:ns:meta/" x:xmptk="Adobe XMP Core 5.6-c138 79.159824, 2016/09/14-01:09:01        ">
   <rdf:RDF xmlns:rdf="http://www.w3.org/1999/02/22-rdf-syntax-ns#">
      <rdf:Description rdf:about=""/>
   </rdf:RDF>
</x:xmpmeta>
                                                                                                    
                                                                                                    
                                                                                                    
                                                                                                    
                                                                                                    
                                                                                                    
                                                                                                    
                                                                                                    
                                                                                                    
                                                                                                    
                                                                                                    
                                                                                                    
                                                                                                    
                                                                                                    
                                                                                                    
                                                                                                    
                                                                                                    
                                                                                                    
                                                                                                    
                                                                                                    
                           
<?xpacket end="w"?></metadata>
<defs>
    <style>
      .cls-1 {
        fill: #fff;
        fill-rule: evenodd;
      }
    </style>
  </defs>
  <path id="Deployment.svg" class="cls-1" d="M274,1314H263v2a2,2,0,0,1-2,2H237a2,2,0,0,1-2-2v-2H224a2,2,0,0,1-2-2v-28a2,2,0,0,1,2-2h11v-8a2,2,0,0,1,2-2h24a2,2,0,0,1,2,2v8h11a2,2,0,0,1,2,2v28A2,2,0,0,1,274,1314Zm-39-12h-7v2h7v-2Zm0,4h-7a2,2,0,0,1-2-2v-2a2,2,0,0,1,2-2h7v-9h-6a1,1,0,0,1,0-2h6v-5H224v28h11v-6Zm26-32H237v42h24v-42Zm2,30h7v-2h-7v2Zm11-20H263v5h6a1,1,0,0,1,0,2h-6v9h7a2,2,0,0,1,2,2v2a2,2,0,0,1-2,2h-7v6h11v-28Zm-31,17h12a2,2,0,0,1,2,2v4a2,2,0,0,1-2,2H243a2,2,0,0,1-2-2v-4A2,2,0,0,1,243,1301Zm0,6h12v-4H243v4Zm11-14H244a1,1,0,0,1,0-2h10A1,1,0,0,1,254,1293Zm0-6H244a1,1,0,0,1,0-2h10A1,1,0,0,1,254,1287Zm0-6H244a1,1,0,0,1,0-2h10A1,1,0,0,1,254,1281Z" transform="translate(-221 -1267)"/>
</svg>
