<?xml version="1.0" encoding="UTF-8"?>
<svg width="20px" height="20px" viewBox="0 0 20 20" version="1.1" xmlns="http://www.w3.org/2000/svg" xmlns:xlink="http://www.w3.org/1999/xlink">
    <!-- Generator: Sketch 61.2 (89653) - https://sketch.com -->
    <title>ic_导出日志</title>
    <desc>Created with Sketch.</desc>
    <g id="新增图标" stroke="none" stroke-width="1" fill="none" fill-rule="evenodd">
        <g id="轻舟日志" transform="translate(-408.000000, -234.000000)" fill="#848798" fill-rule="nonzero">
            <g id="编组-5备份-6" transform="translate(408.000000, 234.000000)">
                <path d="M16.0088154,12.4929871 L18.8372425,15.3214142 C18.9240257,15.4081974 18.9722386,15.518945 18.9818811,15.6323555 L18.9818811,15.7191754 C18.9746492,15.8042332 18.9457215,15.8877932 18.895098,15.9608688 L18.8372425,16.0301167 L16.0088154,18.8585438 C15.8135532,19.0538059 15.4969707,19.0538059 15.3017086,18.8585438 C15.1281423,18.6849774 15.1088571,18.415553 15.2438532,18.2206849 L15.3017086,18.151437 L17.2764351,16.1755404 L9.45843506,16.1755981 C9.18229268,16.1755981 8.95843506,15.9517405 8.95843506,15.6755981 C8.95843506,15.3994558 9.18229268,15.1755981 9.45843506,15.1755981 L17.2774351,15.1755404 L15.3017086,13.2000938 C15.1064465,13.0048317 15.1064465,12.6882492 15.3017086,12.4929871 C15.4969707,12.2977249 15.8135532,12.2977249 16.0088154,12.4929871 Z M16,1 C17.1045695,1 18,1.8954305 18,3 L18,11 L17,11 L17,3 C17,2.48716416 16.6139598,2.06449284 16.1166211,2.00672773 L16,2 L4,2 C3.48716416,2 3.06449284,2.38604019 3.00672773,2.88337887 L3,3 L3,17 C3,17.5128358 3.38604019,17.9355072 3.88337887,17.9932723 L4,18 L7,18 L7,19 L4,19 C2.8954305,19 2,18.1045695 2,17 L2,3 C2,1.8954305 2.8954305,1 4,1 L16,1 Z M6.5,5 L13.5,5 C13.7761424,5 14,5.22385763 14,5.5 C14,5.77614237 13.7761424,6 13.5,6 L6.5,6 C6.22385763,6 6,5.77614237 6,5.5 C6,5.22385763 6.22385763,5 6.5,5 Z M6.5,9 L10.5,9 C10.7761424,9 11,9.22385763 11,9.5 C11,9.77614237 10.7761424,10 10.5,10 L6.5,10 C6.22385763,10 6,9.77614237 6,9.5 C6,9.22385763 6.22385763,9 6.5,9 Z" id="形状结合"></path>
            </g>
        </g>
    </g>
</svg>