<?xml version="1.0" encoding="UTF-8"?>
<svg width="20px" height="20px" viewBox="0 0 20 20" version="1.1" xmlns="http://www.w3.org/2000/svg" xmlns:xlink="http://www.w3.org/1999/xlink">
    <!-- Generator: Sketch 61.2 (89653) - https://sketch.com -->
    <title>ic_感兴趣</title>
    <desc>Created with Sketch.</desc>
    <g id="新增图标" stroke="none" stroke-width="1" fill-rule="evenodd">
        <g id="画板" transform="translate(-574.000000, -184.000000)" stroke="#000">
            <g id="编组-5备份-2" transform="translate(574.000000, 184.000000)">
                <circle id="椭圆形" cx="10" cy="10" r="9.5"></circle>
                <path d="M13.979847,8.89164833 C13.944799,8.78440915 13.8329883,8.59697868 13.4758419,8.54497815 L12.0544941,8.33849987 C11.7051573,8.28764221 11.2775339,7.97716287 11.1209609,7.66020728 L10.4853354,6.37219425 C10.3255242,6.04838144 10.1127602,6 10,6 C9.88723409,6 9.67447002,6.04838144 9.51465888,6.37219425 L8.87884292,7.66020729 C8.72246038,7.9769724 8.29502748,8.28764222 7.94550013,8.33849988 L6.5241524,8.54497816 C6.16681545,8.59678821 6.05500479,8.78440915 6.0201473,8.89164834 C5.98548028,8.99888751 5.96548008,9.21622304 6.22414937,9.4682256 L7.25273122,10.4707119 C7.50568616,10.7173811 7.66892591,11.2198624 7.60911578,11.5680564 L7.36644665,12.9836898 C7.31939855,13.2575973 7.39520885,13.416837 7.46720958,13.5023617 C7.61349678,13.6756968 7.87559467,13.6995066 8.15178794,13.5545527 L9.42284843,12.886165 C9.71961334,12.7305444 10.2803809,12.7303539 10.5771458,12.886165 L11.8485873,13.5545527 C11.9712552,13.6189343 12.0882088,13.6516965 12.1965908,13.6516965 C12.3320208,13.6516965 12.4514505,13.5987436 12.5327847,13.5023617 C12.6047854,13.4170275 12.6805957,13.2575973 12.6337381,12.9838803 L12.391069,11.5680564 C12.3314493,11.2200529 12.4944986,10.7175716 12.7474535,10.4709024 L13.7760354,9.46841607 C14.0345142,9.21622304 14.014514,8.99888751 13.979847,8.89164833 Z" id="路径"></path>
            </g>
        </g>
    </g>
</svg>