<?xml version="1.0" encoding="UTF-8"?>
<svg width="20px" height="20px" viewBox="0 0 20 20" version="1.1" xmlns="http://www.w3.org/2000/svg" xmlns:xlink="http://www.w3.org/1999/xlink">
    <!-- Generator: Sketch 61.2 (89653) - https://sketch.com -->
    <title>ic_快捷查询列表</title>
    <desc>Created with Sketch.</desc>
    <g id="新增图标" stroke="none" stroke-width="1" fill="none" fill-rule="evenodd">
        <g id="轻舟日志" transform="translate(-596.000000, -234.000000)" fill="#848798" fill-rule="nonzero">
            <g id="编组-5备份-10" transform="translate(596.000000, 234.000000)">
                <path d="M14,11 C16.209139,11 18,12.790861 18,15 C18,15.9268071 17.684794,16.7799939 17.1557352,17.4582071 L18.8471039,19.1429644 C19.0423655,19.3375747 19.0428935,19.6536284 18.8482831,19.84889 L18.847694,19.8494801 L18.8471039,19.8500702 C18.6520724,20.0451017 18.3359453,20.0453657 18.1405882,19.8506602 L16.4482647,18.163466 C15.7716643,18.6878632 14.9222839,19 14,19 C11.790861,19 10,17.209139 10,15 C10,12.790861 11.790861,11 14,11 Z M16,1 C17.1045695,1 18,1.8954305 18,3 L18,11 L17,11 L17,3 C17,2.48716416 16.6139598,2.06449284 16.1166211,2.00672773 L16,2 L4,2 C3.48716416,2 3.06449284,2.38604019 3.00672773,2.88337887 L3,3 L3,17 C3,17.5128358 3.38604019,17.9355072 3.88337887,17.9932723 L4,18 L7,18 L7,19 L4,19 C2.8954305,19 2,18.1045695 2,17 L2,3 C2,1.8954305 2.8954305,1 4,1 L16,1 Z M14,12 C12.3431458,12 11,13.3431458 11,15 C11,16.6568542 12.3431458,18 14,18 C15.6568542,18 17,16.6568542 17,15 C17,13.3431458 15.6568542,12 14,12 Z M10.5,9 C10.7761424,9 11,9.22385763 11,9.5 C11,9.77614237 10.7761424,10 10.5,10 L6.5,10 C6.22385763,10 6,9.77614237 6,9.5 C6,9.22385763 6.22385763,9 6.5,9 L10.5,9 Z M13.5,5 C13.7761424,5 14,5.22385763 14,5.5 C14,5.77614237 13.7761424,6 13.5,6 L6.5,6 C6.22385763,6 6,5.77614237 6,5.5 C6,5.22385763 6.22385763,5 6.5,5 L13.5,5 Z" id="形状结合"></path>
            </g>
        </g>
    </g>
</svg>