<?xml version="1.0" encoding="UTF-8"?>
<svg width="20px" height="20px" viewBox="0 0 20 20" version="1.1" xmlns="http://www.w3.org/2000/svg" xmlns:xlink="http://www.w3.org/1999/xlink">
    <!-- Generator: Sketch 61.2 (89653) - https://sketch.com -->
    <title>ic_另存为快捷查询</title>
    <desc>Created with Sketch.</desc>
    <g id="新增图标" stroke="none" stroke-width="1" fill="none" fill-rule="evenodd">
        <g id="轻舟日志" transform="translate(-500.000000, -234.000000)" fill="#848798" fill-rule="nonzero">
            <g id="编组-5备份-8" transform="translate(500.000000, 234.000000)">
                <path d="M15.0301167,12.5016598 L17.8585438,15.3300869 C18.0321101,15.5036533 18.0513953,15.7730777 17.9163992,15.9679458 L17.8585438,16.0371937 L15.0301167,18.8656208 C14.8348545,19.060883 14.518272,19.060883 14.3230099,18.8656208 C14.1494435,18.6920545 14.1301584,18.4226301 14.2651544,18.2277619 L14.3230099,18.158514 L16.3123302,16.1682132 L9.94433022,16.168335 C9.66818784,16.168335 9.44433022,15.9444773 9.44433022,15.668335 C9.44433022,15.3921926 9.66818784,15.168335 9.94433022,15.168335 L16.2833302,15.1682132 L14.3230099,13.2087666 C14.1277477,13.0135044 14.1277477,12.6969219 14.3230099,12.5016598 C14.518272,12.3063976 14.8348545,12.3063976 15.0301167,12.5016598 Z M16,1 C17.1045695,1 18,1.8954305 18,3 L18,12 L17,12 L17,3 C17,2.48716416 16.6139598,2.06449284 16.1166211,2.00672773 L16,2 L15,2 L15,5 C15,6.1045695 14.1045695,7 13,7 L7,7 C5.8954305,7 5,6.1045695 5,5 L5,2 L4,2 C3.48716416,2 3.06449284,2.38604019 3.00672773,2.88337887 L3,3 L3,17 C3,17.5128358 3.38604019,17.9355072 3.88337887,17.9932723 L4,18 L10,18 L10,19 L4,19 C2.8954305,19 2,18.1045695 2,17 L2,3 C2,1.8954305 2.8954305,1 4,1 L16,1 Z M14,2 L6,2 L6,5 C6,5.51283584 6.38604019,5.93550716 6.88337887,5.99327227 L7,6 L13,6 C13.5128358,6 13.9355072,5.61395981 13.9932723,5.11662113 L14,5 L14,2 Z" id="形状结合"></path>
            </g>
        </g>
    </g>
</svg>