<?xml version="1.0" encoding="UTF-8"?>
<svg width="18px" height="18px" viewBox="0 0 18 18" version="1.1" xmlns="http://www.w3.org/2000/svg" xmlns:xlink="http://www.w3.org/1999/xlink">
    <g  stroke-width="1" fill="none" fill-rule="evenodd">
        <g id="画板" transform="translate(-207.000000, -60.000000)" fill="#4A4E58" fill-rule="nonzero">
            <path d="M220.025111,59.9644814 L224.021903,63.9992153 L223.999,64.0204814 L223.999969,76 C223.999969,77.1045695 223.104539,78 221.999969,78 L210,78 C208.895431,78 208,77.1045695 208,76 L208,62 C208,60.8954305 208.895431,60 210,60 L219.99,59.9994814 L220.025111,59.9644814 Z M218.51,61.4994814 L210,61.5 C209.723858,61.5 209.5,61.7238576 209.5,62 L209.5,76 C209.5,76.2761424 209.723858,76.5 210,76.5 L221.999969,76.5 C222.276112,76.5 222.499969,76.2761424 222.499969,76 L222.499,65.5204814 L219.510681,65.520813 C218.958396,65.520813 218.510681,65.0730977 218.510681,64.520813 L218.51,61.4994814 Z M220.01,62.0804814 L220.010681,64.020813 L221.932,64.0204814 L220.01,62.0804814 Z" id="形状结合"></path>
            <g id="json" transform="translate(210.000000, 67.000000)" stroke="#4A4E58" stroke-width="0.4">
                <path d="M2.78483072,0.260375977 L3.61816406,0.260375977 L3.61816406,1.09370931 L2.78483072,1.09370931 L2.78483072,3.17704265 C2.78483072,3.63727994 2.41173468,4.01037598 1.95149739,4.01037598 C2.41173468,4.01037598 2.78483072,4.38347202 2.78483072,4.84370931 L2.78483072,6.92704265 L3.61816406,6.92704265 L3.61816406,7.76037598 L2.78483072,7.76037598 C2.33816405,7.64870931 1.95149739,7.38745931 1.95149739,6.92704265 L1.95149739,5.26037598 C1.95149739,5.03936224 1.86370003,4.82740064 1.70741971,4.67112033 C1.5511394,4.51484001 1.3391778,4.42704265 1.11816406,4.42704265 L0.701497393,4.42704265 L0.701497393,3.59370931 L1.11816406,3.59370931 C1.57840135,3.59370931 1.95149739,3.22061327 1.95149739,2.76037598 L1.95149739,1.09370931 C1.95149739,0.633472017 2.32459343,0.260375977 2.78483072,0.260375977 Z M10.0608724,1.09370931 L10.0608724,2.76037598 C10.0608724,3.22061327 10.4339684,3.59370931 10.8942057,3.59370931 L11.3108724,3.59370931 L11.3108724,4.42704265 L10.8942057,4.42704265 C10.673192,4.42704265 10.4612304,4.51484001 10.3049501,4.67112033 C10.1486698,4.82740064 10.0608724,5.03936224 10.0608724,5.26037598 L10.0608724,6.92704265 C10.0608724,7.38745932 9.67420572,7.64870932 9.22753906,7.76037598 L8.39420572,7.76037598 L8.39420572,6.92704265 L9.22753906,6.92704265 L9.22753906,4.84370931 C9.22753906,4.38347202 9.6006351,4.01037598 10.0608724,4.01037598 C9.83985865,4.01037598 9.62789706,3.92257861 9.47161674,3.7662983 C9.31533643,3.61001798 9.22753906,3.39805639 9.22753906,3.17704265 L9.22753906,1.09370931 L8.39420572,1.09370931 L8.39420572,0.260375977 L9.22753906,0.260375977 C9.68777635,0.260375977 10.0608724,0.633472017 10.0608724,1.09370931 Z M6,5.26037598 C6.14887586,5.26035318 6.28645257,5.33976442 6.36089708,5.46869089 C6.43534159,5.59761737 6.43534159,5.75646792 6.36089708,5.88539439 C6.28645257,6.01432087 6.14887586,6.0937321 6,6.09370931 C5.76990627,6.09367408 5.58339712,5.90713638 5.58339712,5.67704264 C5.58339712,5.4469489 5.76990627,5.2604112 6,5.26037598 Z M4.33333333,5.26037598 C4.48220919,5.26035318 4.6197859,5.33976442 4.69423041,5.46869089 C4.76867492,5.59761737 4.76867492,5.75646792 4.69423041,5.88539439 C4.6197859,6.01432087 4.48220919,6.0937321 4.33333333,6.09370931 C4.1032396,6.09367408 3.91673045,5.90713638 3.91673045,5.67704264 C3.91673045,5.4469489 4.1032396,5.2604112 4.33333333,5.26037598 Z M7.66666667,5.26037598 C7.81554252,5.26035318 7.95311924,5.33976442 8.02756375,5.46869089 C8.10200826,5.59761737 8.10200826,5.75646792 8.02756375,5.88539439 C7.95311924,6.01432087 7.81554252,6.0937321 7.66666667,6.09370931 C7.43657294,6.09367408 7.25006379,5.90713638 7.25006379,5.67704264 C7.25006379,5.4469489 7.43657294,5.2604112 7.66666667,5.26037598 Z" id="形状"></path>
            </g>
        </g>
    </g>
</svg>