<svg width="16" height="16" viewBox="0 0 16 16" fill="none" xmlns="http://www.w3.org/2000/svg">
<path d="M7.825 1.35159C7.93329 1.28907 8.06671 1.28907 8.175 1.35159L13.6702 4.52424C13.7785 4.58676 13.8452 4.70231 13.8452 4.82735V11.1727C13.8452 11.2977 13.7785 11.4132 13.6702 11.4758L8.175 14.6484C8.06671 14.7109 7.93329 14.7109 7.825 14.6484L2.32981 11.4758C2.22152 11.4132 2.15481 11.2977 2.15481 11.1726V4.82735C2.15481 4.70231 2.22152 4.58676 2.32981 4.52424L7.825 1.35159Z" stroke="#4F4F4F" stroke-width="1.3"/>
<path d="M2 4.5L7.55279 7.27639C7.83431 7.41716 8.16569 7.41716 8.44721 7.27639L14 4.5" stroke="#4F4F4F" stroke-width="1.3"/>
<path d="M8 7V14.5" stroke="#4F4F4F" stroke-width="1.3"/>
</svg>
