<svg xmlns="http://www.w3.org/2000/svg" width="20" height="20" viewBox="0 0 20 20">
  <metadata><?xpacket begin="﻿" id="W5M0MpCehiHzreSzNTczkc9d"?>
<x:xmpmeta xmlns:x="adobe:ns:meta/" x:xmptk="Adobe XMP Core 5.6-c140 79.160451, 2017/05/06-01:08:21        ">
   <rdf:RDF xmlns:rdf="http://www.w3.org/1999/02/22-rdf-syntax-ns#">
      <rdf:Description rdf:about=""/>
   </rdf:RDF>
</x:xmpmeta>
                                                                                                    
                                                                                                    
                                                                                                    
                                                                                                    
                                                                                                    
                                                                                                    
                                                                                                    
                                                                                                    
                                                                                                    
                                                                                                    
                                                                                                    
                                                                                                    
                                                                                                    
                                                                                                    
                                                                                                    
                                                                                                    
                                                                                                    
                                                                                                    
                                                                                                    
                                                                                                    
                           
<?xpacket end="w"?></metadata>
<defs>
    <style>
      .cls-1 {
        fill: #9dabc2;
        fill-rule: evenodd;
      }
    </style>
  </defs>
  <path id="矩形_25_拷贝" data-name="矩形 25 拷贝" class="cls-1" d="M16,20H4a4,4,0,0,1-4-4V11H2v4a3.238,3.238,0,0,0,2,3H16a3.238,3.238,0,0,0,2-3V11h2v5A4,4,0,0,1,16,20Zm-1-4H5a1,1,0,0,1-1-1V1A1,1,0,0,1,5,0H15a1,1,0,0,1,1,1V15A1,1,0,0,1,15,16ZM14,2H6V5h8V2Zm0,5H6V9h8V7Zm0,4H6v3h8V11Z"/>
</svg>
