<svg xmlns="http://www.w3.org/2000/svg" width="20" height="20" viewBox="0 0 20 20">
  <metadata><?xpacket begin="﻿" id="W5M0MpCehiHzreSzNTczkc9d"?>
<x:xmpmeta xmlns:x="adobe:ns:meta/" x:xmptk="Adobe XMP Core 5.6-c140 79.160451, 2017/05/06-01:08:21        ">
   <rdf:RDF xmlns:rdf="http://www.w3.org/1999/02/22-rdf-syntax-ns#">
      <rdf:Description rdf:about=""/>
   </rdf:RDF>
</x:xmpmeta>
                                                                                                    
                                                                                                    
                                                                                                    
                                                                                                    
                                                                                                    
                                                                                                    
                                                                                                    
                                                                                                    
                                                                                                    
                                                                                                    
                                                                                                    
                                                                                                    
                                                                                                    
                                                                                                    
                                                                                                    
                                                                                                    
                                                                                                    
                                                                                                    
                                                                                                    
                                                                                                    
                           
<?xpacket end="w"?></metadata>
<defs>
    <style>
      .cls-1 {
        fill: #9dabc2;
        fill-rule: evenodd;
      }
    </style>
  </defs>
  <path id="椭圆_8_拷贝_3" data-name="椭圆 8 拷贝 3" class="cls-1" d="M16,19a3.991,3.991,0,0,1-3.859-3H7.858a4.026,4.026,0,1,1-3.041-4.906L6.825,6.408a4,4,0,1,1,6.35,0l2,4.677A4,4,0,1,1,16,19ZM4,13a2,2,0,1,0,2,2A2,2,0,0,0,4,13ZM10,2a2,2,0,1,0,2,2A2,2,0,0,0,10,2Zm1.691,5.613a3.887,3.887,0,0,1-3.382,0L6.482,11.875A4.021,4.021,0,0,1,7.858,14h4.283a3.98,3.98,0,0,1,1.38-2.117ZM16,13a2,2,0,1,0,2,2A2,2,0,0,0,16,13Z"/>
</svg>
