<svg xmlns="http://www.w3.org/2000/svg" width="48" height="48" viewBox="0 0 48 48">
  <metadata><?xpacket begin="﻿" id="W5M0MpCehiHzreSzNTczkc9d"?>
<x:xmpmeta xmlns:x="adobe:ns:meta/" x:xmptk="Adobe XMP Core 5.6-c138 79.159824, 2016/09/14-01:09:01        ">
   <rdf:RDF xmlns:rdf="http://www.w3.org/1999/02/22-rdf-syntax-ns#">
      <rdf:Description rdf:about=""/>
   </rdf:RDF>
</x:xmpmeta>
                                                                                                    
                                                                                                    
                                                                                                    
                                                                                                    
                                                                                                    
                                                                                                    
                                                                                                    
                                                                                                    
                                                                                                    
                                                                                                    
                                                                                                    
                                                                                                    
                                                                                                    
                                                                                                    
                                                                                                    
                                                                                                    
                                                                                                    
                                                                                                    
                                                                                                    
                                                                                                    
                           
<?xpacket end="w"?></metadata>
<defs>
    <style>
      .cls-1 {
        fill: #fff;
        fill-rule: evenodd;
      }
    </style>
  </defs>
  <path id="圆角矩形_4_副本_3" data-name="圆角矩形 4 副本 3" class="cls-1" d="M46,48H2a2,2,0,0,1-2-2V2A2,2,0,0,1,2,0H46a2,2,0,0,1,2,2V46A2,2,0,0,1,46,48ZM46,3a1,1,0,0,0-1-1H3A1,1,0,0,0,2,3V45a1,1,0,0,0,1,1H45a1,1,0,0,0,1-1V3ZM37,36H20a1,1,0,1,1,0-2H37A1,1,0,0,1,37,36Zm0-11H20a1,1,0,1,1,0-2H37A1,1,0,0,1,37,25Zm0-11H20a1,1,0,1,1,0-2H37A1,1,0,0,1,37,14ZM11.5,36h-1a0.5,0.5,0,0,1-.5-0.5v-1a0.5,0.5,0,0,1,.5-0.5h1a0.5,0.5,0,0,1,.5.5v1A0.5,0.5,0,0,1,11.5,36Zm0-11h-1a0.5,0.5,0,0,1-.5-0.5v-1a0.5,0.5,0,0,1,.5-0.5h1a0.5,0.5,0,0,1,.5.5v1A0.5,0.5,0,0,1,11.5,25Zm0-11h-1a0.5,0.5,0,0,1-.5-0.5v-1a0.5,0.5,0,0,1,.5-0.5h1a0.5,0.5,0,0,1,.5.5v1A0.5,0.5,0,0,1,11.5,14Z"/>
</svg>
