<?xml version="1.0" encoding="UTF-8"?>
<svg width="18px" height="18px" viewBox="0 0 18 18" version="1.1" xmlns="http://www.w3.org/2000/svg" xmlns:xlink="http://www.w3.org/1999/xlink">
    <!-- Generator: Sketch 61.2 (89653) - https://sketch.com -->
    <title>原始日志</title>
    <desc>Created with Sketch.</desc>
    <g id="新增图标" stroke="none" stroke-width="1" fill="none" fill-rule="evenodd">
        <g id="画板" transform="translate(-115.000000, -60.000000)">
            <path d="M131.263015,70.3492988 L131.262451,76 C131.262451,77.1045695 130.367021,78 129.262451,78 L118,78 C116.895431,78 116,77.1045695 116,76 L116,74 L117.5,74 L117.5,76 C117.5,76.2761424 117.723858,76.5 118,76.5 L129.262451,76.5 C129.538594,76.5 129.762451,76.2761424 129.762451,76 L129.762083,70.3594659 C129.990403,70.4501504 130.23938,70.5 130.5,70.5 C130.770202,70.5 131.027889,70.4464176 131.263015,70.3492988 Z M117.75,71.7287598 C118.164214,71.7287598 118.5,72.0645462 118.5,72.4787598 C118.5,72.8929733 118.164214,73.2287598 117.75,73.2287598 L115.75,73.2287598 C115.335786,73.2287598 115,72.8929733 115,72.4787598 C115,72.0645462 115.335786,71.7287598 115.75,71.7287598 L117.75,71.7287598 Z M125.779175,71 C126.193388,71 126.529175,71.3357864 126.529175,71.75 C126.529175,72.1642136 126.193388,72.5 125.779175,72.5 L121.279175,72.5 C120.864961,72.5 120.529175,72.1642136 120.529175,71.75 C120.529175,71.3357864 120.864961,71 121.279175,71 L125.779175,71 Z M117.5,67 L117.5,71 L116,71 L116,67 L117.5,67 Z M125.779175,68 C126.193388,68 126.529175,68.3357864 126.529175,68.75 C126.529175,69.1642136 126.193388,69.5 125.779175,69.5 L121.279175,69.5 C120.864961,69.5 120.529175,69.1642136 120.529175,68.75 C120.529175,68.3357864 120.864961,68 121.279175,68 L125.779175,68 Z M129.262451,60 C130.367021,60 131.262451,60.8954305 131.262451,62 L131.263015,66.6507012 C131.027889,66.5535824 130.770202,66.5 130.5,66.5 C130.23938,66.5 129.990403,66.5498496 129.762083,66.6405341 L129.762451,62 C129.762451,61.7238576 129.538594,61.5 129.262451,61.5 L118,61.5 C117.723858,61.5 117.5,61.7238576 117.5,62 L117.5,64 L116,64 L116,62 C116,60.8954305 116.895431,60 118,60 L129.262451,60 Z M125.779175,65 C126.193388,65 126.529175,65.3357864 126.529175,65.75 C126.529175,66.1642136 126.193388,66.5 125.779175,66.5 L121.279175,66.5 C120.864961,66.5 120.529175,66.1642136 120.529175,65.75 C120.529175,65.3357864 120.864961,65 121.279175,65 L125.779175,65 Z M117.75,64.7461548 C118.164214,64.7461548 118.5,65.0819412 118.5,65.4961548 C118.5,65.9103683 118.164214,66.2461548 117.75,66.2461548 L115.75,66.2461548 C115.335786,66.2461548 115,65.9103683 115,65.4961548 C115,65.0819412 115.335786,64.7461548 115.75,64.7461548 L117.75,64.7461548 Z" id="形状结合" fill="#4A4E58" fill-rule="nonzero"></path>
            <path d="M130.5,70.25 C131.466498,70.25 132.25,69.4664983 132.25,68.5 C132.25,67.5335017 131.466498,66.75 130.5,66.75 C129.533502,66.75 128.75,67.5335017 128.75,68.5 C128.75,69.4664983 129.533502,70.25 130.5,70.25 Z" id="椭圆形" stroke="#4A4E58" stroke-width="1.5"></path>
        </g>
    </g>
</svg>