<?xml version="1.0" encoding="UTF-8"?>
<svg width="18px" height="18px" viewBox="0 0 18 18" version="1.1" xmlns="http://www.w3.org/2000/svg" xmlns:xlink="http://www.w3.org/1999/xlink">
    <g stroke-width="1" stroke="#000">
        <g transform="translate(-78.000000, -132.000000)">
            <path d="M94,132 C95.1045695,132 96,132.895431 96,134 L96,148 C96,149.104569 95.1045695,150 94,150 L81,150 C79.8954305,150 79,149.104569 79,148 L79,146 L80.5,146 L80.5,148 C80.5,148.276142 80.7238576,148.5 81,148.5 L94,148.5 C94.2761424,148.5 94.5,148.276142 94.5,148 L94.5,134 C94.5,133.723858 94.2761424,133.5 94,133.5 L81,133.5 C80.7238576,133.5 80.5,133.723858 80.5,134 L80.5,136 L79,136 L79,134 C79,132.895431 79.8954305,132 81,132 L94,132 Z M80.75,143.72876 C81.1642136,143.72876 81.5,144.064546 81.5,144.47876 C81.5,144.892973 81.1642136,145.22876 80.75,145.22876 L78.75,145.22876 C78.3357864,145.22876 78,144.892973 78,144.47876 C78,144.064546 78.3357864,143.72876 78.75,143.72876 L80.75,143.72876 Z M90.25,143 C90.6642136,143 91,143.335786 91,143.75 C91,144.164214 90.6642136,144.5 90.25,144.5 L84.75,144.5 C84.3357864,144.5 84,144.164214 84,143.75 C84,143.335786 84.3357864,143 84.75,143 L90.25,143 Z M80.5,139 L80.5,143 L79,143 L79,139 L80.5,139 Z M90.25,140 C90.6642136,140 91,140.335786 91,140.75 C91,141.164214 90.6642136,141.5 90.25,141.5 L84.75,141.5 C84.3357864,141.5 84,141.164214 84,140.75 C84,140.335786 84.3357864,140 84.75,140 L90.25,140 Z M90.25,137 C90.6642136,137 91,137.335786 91,137.75 C91,138.164214 90.6642136,138.5 90.25,138.5 L84.75,138.5 C84.3357864,138.5 84,138.164214 84,137.75 C84,137.335786 84.3357864,137 84.75,137 L90.25,137 Z M80.75,136.746155 C81.1642136,136.746155 81.5,137.081941 81.5,137.496155 C81.5,137.910368 81.1642136,138.246155 80.75,138.246155 L78.75,138.246155 C78.3357864,138.246155 78,137.910368 78,137.496155 C78,137.081941 78.3357864,136.746155 78.75,136.746155 L80.75,136.746155 Z"></path>
        </g>
    </g>
</svg>