<?xml version="1.0" encoding="utf-8"?>
<!-- Generator: Adobe Illustrator 24.0.3, SVG Export Plug-In . SVG Version: 6.00 Build 0)  -->
<svg version="1.1" id="图层_1" xmlns="http://www.w3.org/2000/svg" xmlns:xlink="http://www.w3.org/1999/xlink" x="0px" y="0px"
	 viewBox="0 0 18 18" style="enable-background:new 0 0 18 18;" xml:space="preserve">
<style type="text/css">
	.st0{fill:#848798;}
	.st1{fill-rule:evenodd;clip-rule:evenodd;fill:#848798;}
</style>
<g>
	<path id="形状结合" class="st0" d="M15,0c1.1,0,2,0.9,2,2v14c0,1.1-0.9,2-2,2H3c-1.1,0-2-0.9-2-2V2c0-1.1,0.9-2,2-2l2,0v2L3,2
		v14h12V2l-2,0V0L15,0z"/>
	<polygon id="矩形" class="st1" points="6,0 12,0 12,2 6,2 	"/>
	<polygon id="矩形_1_" class="st1" points="5,6 13,6 13,8 5,8 	"/>
	<polygon id="矩形_2_" class="st1" points="5,10 13,10 13,12 5,12 	"/>
</g>
</svg>
