<?xml version="1.0" encoding="UTF-8"?>
<svg width="18px" height="18px" viewBox="0 0 18 18" version="1.1" xmlns="http://www.w3.org/2000/svg" xmlns:xlink="http://www.w3.org/1999/xlink">
    <!-- Generator: Sketch 61.2 (89653) - https://sketch.com -->
    <g stroke-width="1" stroke="#000">
        <g transform="translate(-78.000000, -264.000000)">
            <path stroke="#000" d="M94,264 C95.1045695,264 96,264.895431 96,266 L96,280 C96,281.104569 95.1045695,282 94,282 L81,282 C79.8954305,282 79,281.104569 79,280 L79,278 L80.5,278 L80.5,280 C80.5,280.276142 80.7238576,280.5 81,280.5 L94,280.5 C94.2761424,280.5 94.5,280.276142 94.5,280 L94.5,266 C94.5,265.723858 94.2761424,265.5 94,265.5 L81,265.5 C80.7238576,265.5 80.5,265.723858 80.5,266 L80.5,268 L79,268 L79,266 C79,264.895431 79.8954305,264 81,264 L94,264 Z M80.75,275.72876 C81.1642136,275.72876 81.5,276.064546 81.5,276.47876 C81.5,276.892973 81.1642136,277.22876 80.75,277.22876 L78.75,277.22876 C78.3357864,277.22876 78,276.892973 78,276.47876 C78,276.064546 78.3357864,275.72876 78.75,275.72876 L80.75,275.72876 Z M87,269 C88.6568542,269 90,270.343146 90,272 C90,272.490294 89.8823838,272.953116 89.6738272,273.361793 L91.4142136,275.103553 C91.7071068,275.396447 91.7071068,275.87132 91.4142136,276.164214 C91.1213203,276.457107 90.6464466,276.457107 90.3535534,276.164214 L88.6768292,274.487984 C88.1981242,274.811251 87.6211044,275 87,275 C85.3431458,275 84,273.656854 84,272 C84,270.343146 85.3431458,269 87,269 Z M80.5,271 L80.5,275 L79,275 L79,271 L80.5,271 Z M87,270.5 C86.1715729,270.5 85.5,271.171573 85.5,272 C85.5,272.828427 86.1715729,273.5 87,273.5 C87.8284271,273.5 88.5,272.828427 88.5,272 C88.5,271.171573 87.8284271,270.5 87,270.5 Z M80.75,268.746155 C81.1642136,268.746155 81.5,269.081941 81.5,269.496155 C81.5,269.910368 81.1642136,270.246155 80.75,270.246155 L78.75,270.246155 C78.3357864,270.246155 78,269.910368 78,269.496155 C78,269.081941 78.3357864,268.746155 78.75,268.746155 L80.75,268.746155 Z"></path>
        </g>
    </g>
</svg>