<?xml version="1.0" encoding="UTF-8"?>
<svg width="18px" height="18px" viewBox="0 0 18 18" version="1.1" xmlns="http://www.w3.org/2000/svg" xmlns:xlink="http://www.w3.org/1999/xlink">
    <!-- Generator: Sketch 59.1 (86144) - https://sketch.com -->
    <title>日志管理</title>
    <desc>Created with Sketch.</desc>
    <g id="导航调整" stroke="none" stroke-width="1" fill="none" fill-rule="evenodd">
        <g id="Operator-管理备份" transform="translate(-78.000000, -132.000000)">
            <g id="编组-13" transform="translate(78.000000, 132.000000)">
                <g id="编组-17">
                    <rect id="矩形备份-26" fill="#528AE2" opacity="0" x="0" y="0" width="18" height="18"></rect>
                    <path d="M16,0 C17.1045695,0 18,0.8954305 18,2 L18,16 C18,17.1045695 17.1045695,18 16,18 L3,18 C1.8954305,18 1,17.1045695 1,16 L1,14 L2.5,14 L2.5,16 C2.5,16.2761424 2.72385763,16.5 3,16.5 L16,16.5 C16.2761424,16.5 16.5,16.2761424 16.5,16 L16.5,2 C16.5,1.72385763 16.2761424,1.5 16,1.5 L3,1.5 C2.72385763,1.5 2.5,1.72385763 2.5,2 L2.5,4 L1,4 L1,2 C1,0.8954305 1.8954305,0 3,0 L16,0 Z M2.75,11.7287598 C3.16421356,11.7287598 3.5,12.0645462 3.5,12.4787598 C3.5,12.8929733 3.16421356,13.2287598 2.75,13.2287598 L0.75,13.2287598 C0.335786438,13.2287598 5.07265313e-17,12.8929733 0,12.4787598 C-5.07265313e-17,12.0645462 0.335786438,11.7287598 0.75,11.7287598 L2.75,11.7287598 Z M12.25,11 C12.6642136,11 13,11.3357864 13,11.75 C13,12.1642136 12.6642136,12.5 12.25,12.5 L6.75,12.5 C6.33578644,12.5 6,12.1642136 6,11.75 C6,11.3357864 6.33578644,11 6.75,11 L12.25,11 Z M2.5,7 L2.5,11 L1,11 L1,7 L2.5,7 Z M12.25,8 C12.6642136,8 13,8.33578644 13,8.75 C13,9.16421356 12.6642136,9.5 12.25,9.5 L6.75,9.5 C6.33578644,9.5 6,9.16421356 6,8.75 C6,8.33578644 6.33578644,8 6.75,8 L12.25,8 Z M12.25,5 C12.6642136,5 13,5.33578644 13,5.75 C13,6.16421356 12.6642136,6.5 12.25,6.5 L6.75,6.5 C6.33578644,6.5 6,6.16421356 6,5.75 C6,5.33578644 6.33578644,5 6.75,5 L12.25,5 Z M2.75,4.74615479 C3.16421356,4.74615479 3.5,5.08194122 3.5,5.49615479 C3.5,5.91036835 3.16421356,6.24615479 2.75,6.24615479 L0.75,6.24615479 C0.335786438,6.24615479 5.07265313e-17,5.91036835 0,5.49615479 C-5.07265313e-17,5.08194122 0.335786438,4.74615479 0.75,4.74615479 L2.75,4.74615479 Z" id="形状结合"></path>
                </g>
            </g>
        </g>
    </g>
</svg>