<svg xmlns="http://www.w3.org/2000/svg" width="20" height="20" viewBox="0 0 20 20">
  <metadata><?xpacket begin="﻿" id="W5M0MpCehiHzreSzNTczkc9d"?>
<x:xmpmeta xmlns:x="adobe:ns:meta/" x:xmptk="Adobe XMP Core 5.6-c140 79.160451, 2017/05/06-01:08:21        ">
   <rdf:RDF xmlns:rdf="http://www.w3.org/1999/02/22-rdf-syntax-ns#">
      <rdf:Description rdf:about=""/>
   </rdf:RDF>
</x:xmpmeta>
                                                                                                    
                                                                                                    
                                                                                                    
                                                                                                    
                                                                                                    
                                                                                                    
                                                                                                    
                                                                                                    
                                                                                                    
                                                                                                    
                                                                                                    
                                                                                                    
                                                                                                    
                                                                                                    
                                                                                                    
                                                                                                    
                                                                                                    
                                                                                                    
                                                                                                    
                                                                                                    
                           
<?xpacket end="w"?></metadata>
<defs>
    <style>
      .cls-1 {
        fill: #9dabc2;
        fill-rule: evenodd;
      }
    </style>
  </defs>
  <path id="椭圆_12" data-name="椭圆 12" class="cls-1" d="M19.29,14.491c-0.146.135-.3,0.256-0.457,0.382-0.106.086-.207,0.178-0.317,0.259-0.029.021-.054,0.047-0.083,0.068l0-.009a9.564,9.564,0,0,1-1.216.755,8.488,8.488,0,0,0-1.064-1.732,7.665,7.665,0,0,0,1.382-.832,5.584,5.584,0,0,0-4.541-2.393,5.431,5.431,0,0,0-.568.036,5.969,5.969,0,0,0,1.2-2,7.527,7.527,0,0,1,5.315,2.96l0.006-.007c0.123,0.16.228,0.336,0.339,0.506,0.07,0.108.149,0.208,0.214,0.32a8.077,8.077,0,0,1,.492.977A9.944,9.944,0,0,1,19.29,14.491ZM13.908,7.91A5.95,5.95,0,0,0,14,7a6.023,6.023,0,0,0-.12-1.194,2.007,2.007,0,0,0,1.086-1.794,1.971,1.971,0,0,0-1.934-2.006,1.873,1.873,0,0,0-1.181.428A5.954,5.954,0,0,0,10.115,1.4,3.787,3.787,0,0,1,13.032,0,3.941,3.941,0,0,1,16.9,4.011,3.978,3.978,0,0,1,13.908,7.91ZM12.1,7.019A4.049,4.049,0,1,1,8.049,3,4.034,4.034,0,0,1,12.1,7.019ZM8.049,5.009a2.009,2.009,0,1,0,2.024,2.009A2.017,2.017,0,0,0,8.049,5.009ZM14.235,15L14.241,15c0.129,0.161.239,0.336,0.355,0.507,0.074,0.108.156,0.209,0.225,0.32a7.978,7.978,0,0,1,.515.979,10.129,10.129,0,0,1-.735.716c-0.153.136-.317,0.257-0.478,0.383-0.111.086-.217,0.178-0.332,0.26-0.03.021-.057,0.047-0.087,0.068l0-.009a9.921,9.921,0,0,1-11.39,0l0,0.009c-0.031-.021-0.058-0.048-0.089-0.069C2.1,18.078,2,17.986,1.886,17.9c-0.161-.126-0.326-0.247-0.479-0.383A10.153,10.153,0,0,1,.672,16.8h0a7.958,7.958,0,0,1,.515-0.978c0.068-.111.15-0.211,0.223-0.318,0.117-.171.226-0.347,0.356-0.508L1.773,15A7.965,7.965,0,0,1,14.235,15ZM3.25,16.409a7.942,7.942,0,0,0,9.509,0A5.912,5.912,0,0,0,3.25,16.409Z"/>
</svg>
