<?xml version="1.0" standalone="no"?><!DOCTYPE svg PUBLIC "-//W3C//DTD SVG 1.1//EN" "http://www.w3.org/Graphics/SVG/1.1/DTD/svg11.dtd"><svg t="1599791416539" class="icon" viewBox="0 0 1024 1024" version="1.1" xmlns="http://www.w3.org/2000/svg" p-id="2708" xmlns:xlink="http://www.w3.org/1999/xlink" width="200" height="200"><defs><style type="text/css"></style></defs><path d="M899.2 387.2c-67.2 0-124.8 54.4-124.8 124.8s54.4 124.8 124.8 124.8S1024 579.2 1024 512s-54.4-124.8-124.8-124.8z m-774.4 0C54.4 387.2 0 444.8 0 512s54.4 124.8 124.8 124.8 124.8-54.4 124.8-124.8-57.6-124.8-124.8-124.8z m387.2 0c-67.2 0-124.8 54.4-124.8 124.8s54.4 124.8 124.8 124.8 124.8-54.4 124.8-124.8-57.6-124.8-124.8-124.8z" p-id="2709" fill="#ffffff"></path></svg>