<svg width="16" height="17" viewBox="0 0 16 17" fill="none" xmlns="http://www.w3.org/2000/svg">
<path d="M13.1667 2L2.83333 2.00666C2.1 2.00666 1.5 2.60666 1.5 3.34V10.1667C1.5 10.9 2.1 11.5 2.83333 11.5L13.1667 11.4933C13.9 11.4933 14.5 10.8933 14.5 10.16V3.33333C14.5 2.6 13.9 2 13.1667 2ZM13.1667 10.1667L2.83333 10.1733V3.33333L13.1667 3.32667V10.1667Z" fill="#4F4F4F"/>
<path fill-rule="evenodd" clip-rule="evenodd" d="M13 14.6667H9.88C9.6 15.44 8.86667 16 8 16C7.12726 16 6.38719 15.4444 6.11332 14.6667L3 14.6667L3 13.3334L6.11326 13.3334C6.38709 12.5557 7.12719 12 8 12C8.86667 12 9.6 12.56 9.88 13.3333H13V14.6667ZM7.33333 14C7.33333 14.3667 7.63333 14.6667 8 14.6667C8.36667 14.6667 8.66667 14.3667 8.66667 14C8.66667 13.6333 8.36667 13.3333 8 13.3333C7.63333 13.3333 7.33333 13.6333 7.33333 14Z" fill="#4F4F4F"/>
<path d="M7.3824 10.3867L7.3824 12.5L8.63867 12.5L8.63867 10.3867L7.3824 10.3867Z" fill="#4F4F4F"/>
</svg>
