<?xml version="1.0" encoding="utf-8"?>
<!-- Generator: Adobe Illustrator 24.0.3, SVG Export Plug-In . SVG Version: 6.00 Build 0)  -->
<svg version="1.1" id="图层_1" xmlns="http://www.w3.org/2000/svg" xmlns:xlink="http://www.w3.org/1999/xlink" x="0px" y="0px"
	 viewBox="0 0 18 18" style="enable-background:new 0 0 18 18;" xml:space="preserve">
<style type="text/css">
	.st0{stroke:#000000;}
</style>
<g>
	<g>
		<path class="st0" d="M4.8,16.5h8.5c0.4,0,0.8,0.3,0.8,0.8S13.7,18,13.2,18H4.8C4.3,18,4,17.7,4,17.2S4.3,16.5,4.8,16.5z M16.4,0
			C17.3,0,18,0.7,18,1.6v10.8c0,0.9-0.7,1.6-1.6,1.6H1.6C0.7,14,0,13.3,0,12.4V1.6C0,0.7,0.7,0,1.6,0H16.4z M16.5,12V8.7h-5.4
			c-0.2,0-0.4-0.1-0.5-0.3L9,5.2l-2.6,5.4c-0.1,0.2-0.3,0.3-0.5,0.3h0c-0.2,0-0.4-0.1-0.5-0.3l-1-1.8H1.5V12c0,0.3,0.2,0.5,0.5,0.5
			H16C16.3,12.5,16.5,12.3,16.5,12z M2,1.5c-0.3,0-0.5,0.2-0.5,0.5v5.2h3.2c0.2,0,0.4,0.1,0.5,0.3l0.7,1.2l2.6-5.4
			C8.6,3.1,8.8,3,9,3c0.2,0,0.4,0.1,0.5,0.3l2,3.9h5.1V2.1c0-0.1-0.1-0.3-0.2-0.4S16.2,1.5,16,1.5H2z"/>
	</g>
</g>
</svg>
