<svg xmlns="http://www.w3.org/2000/svg" width="48" height="48" viewBox="0 0 48 48">
  <metadata><?xpacket begin="﻿" id="W5M0MpCehiHzreSzNTczkc9d"?>
<x:xmpmeta xmlns:x="adobe:ns:meta/" x:xmptk="Adobe XMP Core 5.6-c140 79.160451, 2017/05/06-01:08:21        ">
   <rdf:RDF xmlns:rdf="http://www.w3.org/1999/02/22-rdf-syntax-ns#">
      <rdf:Description rdf:about=""/>
   </rdf:RDF>
</x:xmpmeta>
                                                                                                    
                                                                                                    
                                                                                                    
                                                                                                    
                                                                                                    
                                                                                                    
                                                                                                    
                                                                                                    
                                                                                                    
                                                                                                    
                                                                                                    
                                                                                                    
                                                                                                    
                                                                                                    
                                                                                                    
                                                                                                    
                                                                                                    
                                                                                                    
                                                                                                    
                                                                                                    
                           
<?xpacket end="w"?></metadata>
<defs>
    <style>
      .cls-1 {
        fill: #fff;
        fill-rule: evenodd;
      }
    </style>
  </defs>
  <path id="矩形_2_拷贝" data-name="矩形 2 拷贝" class="cls-1" d="M45,44H3a2,2,0,0,1-2-2V18a1.991,1.991,0,0,1,1.027-1.737A1.975,1.975,0,0,1,2,16L10,6c0-1.1,1.946-2.014,2-2H36c0.015-.017,2,0.9,2,2l8,10a1.982,1.982,0,0,1-.026.263A1.991,1.991,0,0,1,47,18V42A2,2,0,0,1,45,44ZM3,42H45V18H3V42ZM36,6H12L4,16H44ZM24,21h5l-5,4V23a6.993,6.993,0,0,0-4.889,12H16.518A9,9,0,0,1,24,21ZM21,36.3c0.08,0.038.165,0.067,0.246,0.1L23,35v1.915A6.584,6.584,0,0,0,24,37a6.993,6.993,0,0,0,4.889-12h2.594A9,9,0,0,1,24,39a8.58,8.58,0,0,1-1-.089V39H18l3-2.4V36.3Z"/>
</svg>
