<svg xmlns="http://www.w3.org/2000/svg" width="20" height="20" viewBox="0 0 20 20">
  <defs>
    <style>
      .cls-1 {
        fill: #8594a9;
        fill-rule: evenodd;
      }
    </style>
  </defs>
  <path id="圆角矩形_3_拷贝" data-name="圆角矩形 3 拷贝" class="cls-1" d="M17.965,5.827A0.945,0.945,0,0,1,18,6V18a1.01,1.01,0,0,1-1.725.7L4,4.669v9.515c0.088,0.031.174,0.062,0.258,0.1,0,0,.005-0.009.009-0.013L7,11.543V12a1,1,0,0,1,1,1H8.4l-0.663.662a0.962,0.962,0,0,1-.077.077L5.7,15.7l0,0A2.969,2.969,0,0,1,6,17a3,3,0,1,1-4-2.816V2.037a1,1,0,0,1,.288-0.752,1.009,1.009,0,0,1,1.427,0L16,15.326V6a0.945,0.945,0,0,1,.035-0.173A2.966,2.966,0,0,1,15.718,5.7s0,0.007-.006.01L13,8.418V8a1,1,0,0,1-1-1H11.561l2.72-2.715s0.009,0,.013-0.009A3,3,0,1,1,17.965,5.827ZM3,16a1,1,0,1,0,1,1A1,1,0,0,0,3,16ZM17,2a1,1,0,1,0,1,1A1,1,0,0,0,17,2Z"/>
</svg>
