<svg xmlns="http://www.w3.org/2000/svg" width="52" height="51.06" viewBox="0 0 52 51.06">
  <metadata><?xpacket begin="﻿" id="W5M0MpCehiHzreSzNTczkc9d"?>
<x:xmpmeta xmlns:x="adobe:ns:meta/" x:xmptk="Adobe XMP Core 5.6-c138 79.159824, 2016/09/14-01:09:01        ">
   <rdf:RDF xmlns:rdf="http://www.w3.org/1999/02/22-rdf-syntax-ns#">
      <rdf:Description rdf:about=""/>
   </rdf:RDF>
</x:xmpmeta>
                                                                                                    
                                                                                                    
                                                                                                    
                                                                                                    
                                                                                                    
                                                                                                    
                                                                                                    
                                                                                                    
                                                                                                    
                                                                                                    
                                                                                                    
                                                                                                    
                                                                                                    
                                                                                                    
                                                                                                    
                                                                                                    
                                                                                                    
                                                                                                    
                                                                                                    
                                                                                                    
                           
<?xpacket end="w"?></metadata>
<defs>
    <style>
      .cls-1 {
        fill: #0a457f;
        fill-rule: evenodd;
      }
    </style>
  </defs>
  <path id="Elasticsearch-大.svg" class="cls-1" d="M324.178,1407.02A1.066,1.066,0,0,0,324,1407a2,2,0,0,0-2,2v3.45h0V1416c0,1.6-2,2-2,2H284a2.04,2.04,0,0,1-2-2v-24h0a2,2,0,0,0-2-2,1.066,1.066,0,0,0-.178.02,2.975,2.975,0,0,0-1.444-1.67c0.193-.09-0.378-0.35-0.378-0.35h2a4,4,0,0,1,4,4h0v23a1.033,1.033,0,0,0,1,1h34a1.2,1.2,0,0,0,1-1v-6h0a4,4,0,0,1,4-4h2s-0.585.26-.378,0.35A2.975,2.975,0,0,0,324.178,1407.02Zm-44.356-21.04a1.066,1.066,0,0,0,.178.02,2,2,0,0,0,2-2h0v-12a1.959,1.959,0,0,1,2-2h1v2a1.033,1.033,0,0,0-1,1v11h0a4,4,0,0,1-4,4h-2s0.566-.27.378-0.35A2.975,2.975,0,0,0,279.822,1385.98ZM320,1401h0v-5a1.2,1.2,0,0,0-1-1v-2h1a1.905,1.905,0,0,1,2,2v3.55h0V1401a2,2,0,0,0,2,2,1.066,1.066,0,0,0,.178-0.02,2.975,2.975,0,0,0,1.444,1.67c-0.179.08,0.378,0.35,0.378,0.35h-2A4,4,0,0,1,320,1401Zm-18.609-7.48-6.525,11.3a1,1,0,1,1-1.732-1l6.525-11.3A14,14,0,1,1,301.391,1393.52Zm12.109-22.97a12,12,0,1,0,4.392,16.39A11.993,11.993,0,0,0,313.5,1370.55Z" transform="translate(-276 -1366.94)"/>
</svg>
