<svg id="目录.svg" xmlns="http://www.w3.org/2000/svg" width="32" height="32" viewBox="0 0 32 32">
  <metadata><?xpacket begin="﻿" id="W5M0MpCehiHzreSzNTczkc9d"?>
<x:xmpmeta xmlns:x="adobe:ns:meta/" x:xmptk="Adobe XMP Core 5.6-c138 79.159824, 2016/09/14-01:09:01        ">
   <rdf:RDF xmlns:rdf="http://www.w3.org/1999/02/22-rdf-syntax-ns#">
      <rdf:Description rdf:about=""/>
   </rdf:RDF>
</x:xmpmeta>
                                                                                                    
                                                                                                    
                                                                                                    
                                                                                                    
                                                                                                    
                                                                                                    
                                                                                                    
                                                                                                    
                                                                                                    
                                                                                                    
                                                                                                    
                                                                                                    
                                                                                                    
                                                                                                    
                                                                                                    
                                                                                                    
                                                                                                    
                                                                                                    
                                                                                                    
                                                                                                    
                           
<?xpacket end="w"?></metadata>
<defs>
    <style>
      .cls-1 {
        fill: #e0e7ec;
      }

      .cls-1, .cls-2 {
        fill-rule: evenodd;
      }

      .cls-2 {
        fill: #c9cfd8;
      }
    </style>
  </defs>
  <path id="矩形_101" data-name="矩形 101" class="cls-1" d="M316,1165h28a2,2,0,0,1,2,2v28a2,2,0,0,1-2,2H316a2,2,0,0,1-2-2v-28A2,2,0,0,1,316,1165Zm-1,1h30v30H315v-30Z" transform="translate(-314 -1165)"/>
  <path id="别表" class="cls-2" d="M322,1174h16a1,1,0,0,1,0,2H322A1,1,0,0,1,322,1174Zm0,6h16a1,1,0,0,1,0,2H322A1,1,0,0,1,322,1180Zm0,6h16a1,1,0,0,1,0,2H322A1,1,0,0,1,322,1186Z" transform="translate(-314 -1165)"/>
</svg>
