<svg xmlns="http://www.w3.org/2000/svg" width="20" height="20" viewBox="0 0 20 20">
  <metadata><?xpacket begin="﻿" id="W5M0MpCehiHzreSzNTczkc9d"?>
<x:xmpmeta xmlns:x="adobe:ns:meta/" x:xmptk="Adobe XMP Core 5.6-c140 79.160451, 2017/05/06-01:08:21        ">
   <rdf:RDF xmlns:rdf="http://www.w3.org/1999/02/22-rdf-syntax-ns#">
      <rdf:Description rdf:about=""/>
   </rdf:RDF>
</x:xmpmeta>
                                                                                                    
                                                                                                    
                                                                                                    
                                                                                                    
                                                                                                    
                                                                                                    
                                                                                                    
                                                                                                    
                                                                                                    
                                                                                                    
                                                                                                    
                                                                                                    
                                                                                                    
                                                                                                    
                                                                                                    
                                                                                                    
                                                                                                    
                                                                                                    
                                                                                                    
                                                                                                    
                           
<?xpacket end="w"?></metadata>
<defs>
    <style>
      .cls-1 {
        fill: #83a1c5;
        fill-rule: evenodd;
      }
    </style>
  </defs>
  <path id="矩形_8_拷贝" data-name="矩形 8 拷贝" class="cls-1" d="M18.5,7h-2A0.5,0.5,0,0,1,16,6.5v-1A0.5,0.5,0,0,1,16.5,5h2a0.5,0.5,0,0,1,.5.5v1A0.5,0.5,0,0,1,18.5,7Zm-3-3.141a0.482,0.482,0,0,1-.681,0l-0.681-.681a0.482,0.482,0,0,1,0-.681L15.5,1.134a0.482,0.482,0,0,1,.681,0l0.681,0.681a0.482,0.482,0,0,1,0,.681ZM12.5,3h-1A0.5,0.5,0,0,1,11,2.5v-2A0.5,0.5,0,0,1,11.5,0h1a0.5,0.5,0,0,1,.5.5v2A0.5,0.5,0,0,1,12.5,3ZM4,8H9v2H4V8Zm3,4v2H4V12H7ZM2,18H14V9h2V19a1,1,0,0,1-1,1H1a1,1,0,0,1-1-1V3A1,1,0,0,1,1,2H9V4H2V18Z"/>
</svg>
