<svg xmlns="http://www.w3.org/2000/svg" width="20" height="20" viewBox="0 0 20 20">
  <metadata><?xpacket begin="﻿" id="W5M0MpCehiHzreSzNTczkc9d"?>
<x:xmpmeta xmlns:x="adobe:ns:meta/" x:xmptk="Adobe XMP Core 5.6-c140 79.160451, 2017/05/06-01:08:21        ">
   <rdf:RDF xmlns:rdf="http://www.w3.org/1999/02/22-rdf-syntax-ns#">
      <rdf:Description rdf:about=""/>
   </rdf:RDF>
</x:xmpmeta>
                                                                                                    
                                                                                                    
                                                                                                    
                                                                                                    
                                                                                                    
                                                                                                    
                                                                                                    
                                                                                                    
                                                                                                    
                                                                                                    
                                                                                                    
                                                                                                    
                                                                                                    
                                                                                                    
                                                                                                    
                                                                                                    
                                                                                                    
                                                                                                    
                                                                                                    
                                                                                                    
                           
<?xpacket end="w"?></metadata>
<defs>
    <style>
      .cls-1 {
        fill: #84a2c4;
        fill-rule: evenodd;
      }
    </style>
  </defs>
  <path id="矩形_13" data-name="矩形 13" class="cls-1" d="M19,20H1a1,1,0,0,1-1-1S0.026,9.923,0,9.9,3,1,3,1A1,1,0,0,1,4,0H16a1,1,0,0,1,1,1s3,8.95,3,9v9A1,1,0,0,1,19,20ZM15.6,2.8A0.8,0.8,0,0,0,14.8,2H5.2a0.8,0.8,0,0,0-.8.8S2.942,7.078,2.3,9H8v1a2,2,0,0,0,4,0V9h5.672C17.017,7.026,15.6,2.8,15.6,2.8ZM18,11H13.859a3.981,3.981,0,0,1-7.717,0H2.009C2.012,13.023,2,17.2,2,17.2a0.8,0.8,0,0,0,.8.8H17.2a0.8,0.8,0,0,0,.8-0.8V11ZM6,6h8V8H6V6ZM7,3h6V5H7V3Z"/>
</svg>
