<svg xmlns="http://www.w3.org/2000/svg" width="20" height="20" viewBox="0 0 20 20">
  <metadata><?xpacket begin="﻿" id="W5M0MpCehiHzreSzNTczkc9d"?>
<x:xmpmeta xmlns:x="adobe:ns:meta/" x:xmptk="Adobe XMP Core 5.6-c140 79.160451, 2017/05/06-01:08:21        ">
   <rdf:RDF xmlns:rdf="http://www.w3.org/1999/02/22-rdf-syntax-ns#">
      <rdf:Description rdf:about=""/>
   </rdf:RDF>
</x:xmpmeta>
                                                                                                    
                                                                                                    
                                                                                                    
                                                                                                    
                                                                                                    
                                                                                                    
                                                                                                    
                                                                                                    
                                                                                                    
                                                                                                    
                                                                                                    
                                                                                                    
                                                                                                    
                                                                                                    
                                                                                                    
                                                                                                    
                                                                                                    
                                                                                                    
                                                                                                    
                                                                                                    
                           
<?xpacket end="w"?></metadata>
<defs>
    <style>
      .cls-1 {
        fill: #83a1c5;
        fill-rule: evenodd;
      }
    </style>
  </defs>
  <path id="矩形_10" data-name="矩形 10" class="cls-1" d="M19,19H1a1,1,0,0,1-1-1V4A0.982,0.982,0,0,1,.454,3.184L1,1H7L7.5,3H19a1,1,0,0,1,1,1V18A1,1,0,0,1,19,19ZM18,5H2V17H18V5Zm-3,8,1,2H8l1-2h6Zm-3-1a2,2,0,1,1,2-2A2,2,0,0,1,12,12Z"/>
</svg>
