<svg xmlns="http://www.w3.org/2000/svg" width="20" height="20" viewBox="0 0 20 20">
  <metadata><?xpacket begin="﻿" id="W5M0MpCehiHzreSzNTczkc9d"?>
<x:xmpmeta xmlns:x="adobe:ns:meta/" x:xmptk="Adobe XMP Core 5.6-c140 79.160451, 2017/05/06-01:08:21        ">
   <rdf:RDF xmlns:rdf="http://www.w3.org/1999/02/22-rdf-syntax-ns#">
      <rdf:Description rdf:about=""/>
   </rdf:RDF>
</x:xmpmeta>
                                                                                                    
                                                                                                    
                                                                                                    
                                                                                                    
                                                                                                    
                                                                                                    
                                                                                                    
                                                                                                    
                                                                                                    
                                                                                                    
                                                                                                    
                                                                                                    
                                                                                                    
                                                                                                    
                                                                                                    
                                                                                                    
                                                                                                    
                                                                                                    
                                                                                                    
                                                                                                    
                           
<?xpacket end="w"?></metadata>
<defs>
    <style>
      .cls-1 {
        fill: #83a1c5;
        fill-rule: evenodd;
      }
    </style>
  </defs>
  <path id="API" class="cls-1" d="M19,20H1a1,1,0,0,1-1-1V1A1,1,0,0,1,1,0H19a1,1,0,0,1,1,1V19A1,1,0,0,1,19,20ZM18,2H2V18H18V2ZM6.492,6.008l2.562,6.986H8.094L7.408,11.082h-2.8L3.96,12.995H3L5.563,6.008H6.492Zm0.647,4.285-1.016-2.9a3.392,3.392,0,0,1-.1-0.487H6a2.78,2.78,0,0,1-.109.487l-1.007,2.9H7.139Zm6.49-3.739a2,2,0,0,1,.6,1.561,2.145,2.145,0,0,1-.7,1.667,2.389,2.389,0,0,1-1.759.6H10.9v2.611H10.027V6.008h1.911A2.428,2.428,0,0,1,13.629,6.554ZM10.9,6.8V9.589h0.8a1.747,1.747,0,0,0,1.207-.372,1.363,1.363,0,0,0,.413-1.067A1.282,1.282,0,0,0,11.781,6.8H10.9Zm6.088-.032H16.336v5.462h0.647v0.762H14.821V12.233h0.647V6.771H14.821V6.008h2.163V6.771Z"/>
</svg>
