<svg width="18" height="18" viewBox="0 0 18 18" fill="none" xmlns="http://www.w3.org/2000/svg">
<path d="M12.4926 8.37L12.4999 7.01932L12.5 7C12.5 5.06702 10.933 3.5 9 3.5C7.06763 3.5 5.50104 5.06598 5.5 6.99811V7L5.50372 8.37039L4.16486 8.51837C2.66644 8.68399 1.5 9.95682 1.5 11.5C1.5 13.1569 2.84314 14.5 4.5 14.5H7C7.82843 14.5 8.5 13.8284 8.5 13V11.8157L7.70715 12.5355L6.64648 11.4749L9.43933 8.93933L11.9749 11.4749L10.9142 12.5355L10 11.6213V13C10 14.6569 8.65686 16 7 16H4.5C2.01471 16 0 13.9853 0 11.5C0 9.18369 1.75006 7.27615 4.00006 7.02747L4 7C4 4.23859 6.23859 2 9 2C11.7614 2 14 4.23859 14 7L13.9999 7.02747C16.2499 7.27615 18 9.18369 18 11.5C18 13.9853 15.9853 16 13.5 16H11.5V14.5H13.5C15.1569 14.5 16.5 13.1569 16.5 11.5C16.5 9.95682 15.3336 8.68399 13.8351 8.51837L12.4926 8.37Z" fill="#848695"/>
</svg>
