<svg xmlns="http://www.w3.org/2000/svg" width="22" height="22" viewBox="0 0 22 22">
  <metadata><?xpacket begin="﻿" id="W5M0MpCehiHzreSzNTczkc9d"?>
<x:xmpmeta xmlns:x="adobe:ns:meta/" x:xmptk="Adobe XMP Core 5.6-c138 79.159824, 2016/09/14-01:09:01        ">
   <rdf:RDF xmlns:rdf="http://www.w3.org/1999/02/22-rdf-syntax-ns#">
      <rdf:Description rdf:about=""/>
   </rdf:RDF>
</x:xmpmeta>
                                                                                                    
                                                                                                    
                                                                                                    
                                                                                                    
                                                                                                    
                                                                                                    
                                                                                                    
                                                                                                    
                                                                                                    
                                                                                                    
                                                                                                    
                                                                                                    
                                                                                                    
                                                                                                    
                                                                                                    
                                                                                                    
                                                                                                    
                                                                                                    
                                                                                                    
                                                                                                    
                           
<?xpacket end="w"?></metadata>
<defs>
    <style>
      .cls-1 {
        fill: #67aaf5;
        fill-rule: evenodd;
      }
    </style>
  </defs>
  <path id="插件.svg" class="cls-1" d="M705,1351v-3.06a0.372,0.372,0,0,0-.382-0.34h-2.993a0.268,0.268,0,0,1-.27-0.26v-2.95a0.4,0.4,0,0,0-.415-0.39h-1.071a0.4,0.4,0,0,0-.415.39v2.93a0.291,0.291,0,0,1-.294.28h-0.979a0.281,0.281,0,0,1-.292-0.27l0.008-2.94a0.4,0.4,0,0,0-.414-0.39h-1.069a0.4,0.4,0,0,0-.414.39v8.26a0.358,0.358,0,0,0,.371.35H703l-10,10v-22h22Zm-3.114.16a0.474,0.474,0,0,1-.485-0.46v-0.8a0.468,0.468,0,0,1,.485-0.46h0.846a0.468,0.468,0,0,1,.485.46v0.8a0.475,0.475,0,0,1-.485.46h-0.846Z" transform="translate(-693 -1341)"/>
</svg>
