<svg width="16" height="16" viewBox="0 0 16 16" fill="none" xmlns="http://www.w3.org/2000/svg">
<path d="M14.3335 11.9999L11.6668 9.33325L11.6668 11.3333L5.00016 11.3333C4.26683 11.3333 3.66683 10.7333 3.66683 9.99992C3.66683 9.26658 4.26683 8.66659 5.00016 8.66659L11.6668 8.66659C13.1402 8.66659 14.3335 7.47325 14.3335 5.99992C14.3335 4.52659 13.1402 3.33325 11.6668 3.33325L5.00016 3.33325L5.00016 1.33325L2.3335 3.99992L5.00016 6.66659L5.00016 4.66659L11.6668 4.66659C12.4002 4.66659 13.0002 5.26659 13.0002 5.99992C13.0002 6.73325 12.4002 7.33325 11.6668 7.33325L5.00016 7.33325C3.52683 7.33325 2.3335 8.52659 2.3335 9.99992C2.3335 11.4733 3.52683 12.6666 5.00016 12.6666L11.6668 12.6666L11.6668 14.6666L14.3335 11.9999Z" fill="#4F4F4F"/>
</svg>
