<svg width="16" height="16" viewBox="0 0 16 16" fill="none" xmlns="http://www.w3.org/2000/svg">
<path d="M7.6665 7C7.11317 7 6.6665 7.44667 6.6665 8C6.6665 8.55333 7.11317 9 7.6665 9C8.21984 9 8.6665 8.55333 8.6665 8C8.6665 7.44667 8.21984 7 7.6665 7ZM5.6665 3C5.11317 3 4.6665 3.44667 4.6665 4C4.6665 4.55333 5.11317 5 5.6665 5C6.21984 5 6.6665 4.55333 6.6665 4C6.6665 3.44667 6.21984 3 5.6665 3ZM9.6665 11C9.11317 11 8.6665 11.4533 8.6665 12C8.6665 12.5467 9.11984 13 9.6665 13C10.2132 13 10.6665 12.5467 10.6665 12C10.6665 11.4533 10.2198 11 9.6665 11ZM11.6665 12.6667H13.9998V11.3333H11.6665V12.6667ZM9.6665 8.66667H13.9998V7.33333H9.6665V8.66667ZM7.6665 3.33333V4.66667H13.9998V3.33333H7.6665Z" fill="#4F4F4F"/>
<path d="M1.6665 12.6668H7.99984V11.3335H1.6665V12.6668ZM1.6665 8.66683H5.99984V7.3335H1.6665V8.66683ZM1.6665 3.3335V4.66683H3.99984V3.3335H1.6665Z" fill="#4F4F4F"/>
</svg>
