<svg width="20" height="20" viewBox="0 0 20 20" fill="none" xmlns="http://www.w3.org/2000/svg">
<path d="M2 8.5C1.17 8.5 0.5 9.17 0.5 10C0.5 10.83 1.17 11.5 2 11.5C2.83 11.5 3.5 10.83 3.5 10C3.5 9.17 2.83 8.5 2 8.5ZM2 2.5C1.17 2.5 0.5 3.17 0.5 4C0.5 4.83 1.17 5.5 2 5.5C2.83 5.5 3.5 4.83 3.5 4C3.5 3.17 2.83 2.5 2 2.5ZM2 14.5C1.17 14.5 0.5 15.18 0.5 16C0.5 16.82 1.18 17.5 2 17.5C2.82 17.5 3.5 16.82 3.5 16C3.5 15.18 2.83 14.5 2 14.5ZM5 17H19V15H5V17ZM5 11H19V9H5V11ZM5 3V5H19V3H5Z" fill="#666666"/>
</svg>
