<?xml version="1.0" encoding="UTF-8"?>
<svg width="18px" height="18px" viewBox="0 0 18 18" version="1.1" xmlns="http://www.w3.org/2000/svg" xmlns:xlink="http://www.w3.org/1999/xlink">
    <!-- Generator: Sketch 59.1 (86144) - https://sketch.com -->
    <title>运维管理</title>
    <desc>Created with Sketch.</desc>
    <g id="导航调整" stroke="none" stroke-width="1" fill="none" fill-rule="evenodd">
        <g id="Operator-管理备份" transform="translate(-78.000000, -613.000000)">
            <g id="编组-13备份-5" transform="translate(78.000000, 613.000000)">
                <g id="编组-17">
                    <rect id="矩形备份-26" fill="#528AE2" opacity="0" x="0" y="0" width="18" height="18"></rect>
                    <path d="M13.25,16.5 C13.6642136,16.5 14,16.8357864 14,17.25 C14,17.6642136 13.6642136,18 13.25,18 L4.75,18 C4.33578644,18 4,17.6642136 4,17.25 C4,16.8357864 4.33578644,16.5 4.75,16.5 L13.25,16.5 Z M16.311039,0 C17.1864935,0 17.8983117,0.711818182 17.8983117,1.58727273 L17.8983117,13.4046218 C17.8983117,14.2800763 17.1864935,14.9918945 16.311039,14.9918945 L1.58727273,14.9918945 C0.711818182,14.9918945 -2.13162821e-14,14.2800763 -2.13162821e-14,13.4046218 L-2.13162821e-14,1.58727273 C-2.13162821e-14,0.711818182 0.711818182,0 1.58727273,0 L16.311039,0 Z M16.1958536,1.46489607 L1.86296786,1.46489607 C1.66543641,1.46489607 1.50530552,1.62502695 1.50530552,1.8225584 L1.50530552,13.2016115 C1.50530552,13.3991429 1.66543641,13.5592738 1.86296786,13.5592738 L16.1958536,13.5592738 C16.3933851,13.5592738 16.5535159,13.3991429 16.5535159,13.2016115 L16.5535159,1.8225584 C16.5535159,1.62502695 16.3933851,1.46489607 16.1958536,1.46489607 Z M9,2.97546387 C9.41421356,2.97546387 9.75,3.3112503 9.75,3.72546387 L9.75072171,4.58802477 C10.2794786,4.72477281 10.7521587,5.002468 11.1261063,5.3784544 L11.8705338,4.94975463 C12.2292533,4.74264785 12.6879461,4.86555421 12.8950529,5.22427368 C13.1021596,5.58299315 12.9792533,6.04168595 12.6205338,6.24879273 L11.8858325,6.67204 C11.9601842,6.93302813 12,7.20841473 12,7.49291992 C12,7.76488382 11.9636171,8.02851531 11.8954632,8.27920243 L12.6205338,8.69737426 C12.9792533,8.90448104 13.1021596,9.36317384 12.8950529,9.72189331 C12.6879461,10.0806128 12.2292533,10.2035191 11.8705338,9.99641236 L11.1511099,9.58194755 C10.7733266,9.9708485 10.2913339,10.258001 9.75072171,10.3978151 L9.75,11.2207031 C9.75,11.6349167 9.41421356,11.9707031 9,11.9707031 C8.58578644,11.9707031 8.25,11.6349167 8.25,11.2207031 L8.25028542,10.3980753 C7.70926473,10.2583576 7.22690799,9.97108998 6.84889012,9.58194755 L6.1294662,9.99641236 C5.77074673,10.2035191 5.31205393,10.0806128 5.10494714,9.72189331 C4.89784036,9.36317384 5.02074673,8.90448104 5.3794662,8.69737426 L6.10453679,8.27920243 C6.03638292,8.02851531 6,7.76488382 6,7.49291992 C6,7.20841473 6.0398158,6.93302813 6.11416753,6.67204 L5.3794662,6.24879273 C5.02074673,6.04168595 4.89784036,5.58299315 5.10494714,5.22427368 C5.31205393,4.86555421 5.77074673,4.74264785 6.1294662,4.94975463 L6.87389373,5.3784544 C7.24807868,5.00222931 7.72112166,4.72442026 8.25028542,4.58776449 L8.25,3.72546387 C8.25,3.3112503 8.58578644,2.97546387 9,2.97546387 Z M9,5.97546387 C8.17244271,5.97546387 7.5,6.64874503 7.5,7.47546387 C7.5,7.73823214 7.56801844,7.98549932 7.68736294,8.20057305 C7.69386314,8.20634725 7.69850317,8.21406412 7.70302336,8.22189331 L7.71791105,8.25309061 C7.97442969,8.67425881 8.4325274,8.95995451 8.95687844,8.97485199 L9,8.97070312 L9,8.97070312 L9.042,8.973 L9.14432404,8.9685806 C9.62651993,8.92235607 10.0425562,8.64696466 10.2822842,8.25309061 C10.2856059,8.24211761 10.2911611,8.23196605 10.2969766,8.22189331 L10.3128104,8.20057305 C10.4320663,7.98549932 10.5,7.73823214 10.5,7.47546387 C10.5,6.64874503 9.82755729,5.97546387 9,5.97546387 Z" id="形状结合" fill="#4A4E58" fill-rule="nonzero"></path>
                </g>
            </g>
        </g>
    </g>
</svg>