<svg xmlns="http://www.w3.org/2000/svg" width="20" height="20" viewBox="0 0 20 20">
  <metadata><?xpacket begin="﻿" id="W5M0MpCehiHzreSzNTczkc9d"?>
<x:xmpmeta xmlns:x="adobe:ns:meta/" x:xmptk="Adobe XMP Core 5.6-c140 79.160451, 2017/05/06-01:08:21        ">
   <rdf:RDF xmlns:rdf="http://www.w3.org/1999/02/22-rdf-syntax-ns#">
      <rdf:Description rdf:about=""/>
   </rdf:RDF>
</x:xmpmeta>
                                                                                                    
                                                                                                    
                                                                                                    
                                                                                                    
                                                                                                    
                                                                                                    
                                                                                                    
                                                                                                    
                                                                                                    
                                                                                                    
                                                                                                    
                                                                                                    
                                                                                                    
                                                                                                    
                                                                                                    
                                                                                                    
                                                                                                    
                                                                                                    
                                                                                                    
                                                                                                    
                           
<?xpacket end="w"?></metadata>
<defs>
    <style>
      .cls-1 {
        fill: #9dabc2;
        fill-rule: evenodd;
      }
    </style>
  </defs>
  <path id="矩形_3_拷贝_3" data-name="矩形 3 拷贝 3" class="cls-1" d="M19.738,5.581L15.581,9.738a0.84,0.84,0,0,1-1.188,0L10.236,5.581a0.84,0.84,0,0,1,0-1.188l4.157-4.157a0.84,0.84,0,0,1,1.188,0l4.157,4.157A0.84,0.84,0,0,1,19.738,5.581Zm-4.747-2.59-2,2,2,2,2-2ZM8,20H1a1,1,0,0,1-1-1V12a1,1,0,0,1,1-1H8a1,1,0,0,1,1,1v7A1,1,0,0,1,8,20ZM7,13H2v5H7V13Zm1-3H1A1,1,0,0,1,0,9V2A1,1,0,0,1,1,1H8A1,1,0,0,1,9,2V9A1,1,0,0,1,8,10ZM7,3H2V8H7V3Zm4,8h7a1,1,0,0,1,1,1v7a1,1,0,0,1-1,1H11a1,1,0,0,1-1-1V12A1,1,0,0,1,11,11Zm1,7h5V13H12v5Z"/>
</svg>
