<svg width="16" height="16" viewBox="0 0 16 16" fill="none" xmlns="http://www.w3.org/2000/svg">
<path d="M4.57098 10.9292L3.60644 11.8937C0.678714 8.96599 0.678714 4.21483 3.60644 1.28711L4.57098 2.25166C2.17495 4.64768 2.17495 8.53314 4.57098 10.9292Z" fill="#4F4F4F"/>
<path d="M6.50008 9.00007L5.53553 9.96462C3.67119 8.10028 3.67119 5.08054 5.53553 3.2162L6.50007 4.18075C5.17084 5.50998 5.17084 7.67084 6.50008 9.00007Z" fill="#4F4F4F"/>
<path d="M11.3828 2.25166L12.3474 1.28711C15.2751 4.21483 15.2751 8.96599 12.3474 11.8937L11.3828 10.9292C13.7788 8.53314 13.7788 4.64768 11.3828 2.25166Z" fill="#4F4F4F"/>
<path d="M9.45373 4.18075L10.4183 3.2162C12.2826 5.08054 12.2826 8.10028 10.4183 9.96462L9.45373 9.00007C10.783 7.67084 10.783 5.50998 9.45373 4.18075Z" fill="#4F4F4F"/>
<path d="M8 9V15" stroke="#4F4F4F" stroke-width="1.3"/>
<path d="M9 6.5C9 7.05228 8.55228 7.5 8 7.5C7.44772 7.5 7 7.05228 7 6.5C7 5.94772 7.44772 5.5 8 5.5C8.55228 5.5 9 5.94772 9 6.5Z" fill="#4F4F4F"/>
</svg>
