<svg xmlns="http://www.w3.org/2000/svg" width="20" height="20" viewBox="0 0 20 20">
  <metadata><?xpacket begin="﻿" id="W5M0MpCehiHzreSzNTczkc9d"?>
<x:xmpmeta xmlns:x="adobe:ns:meta/" x:xmptk="Adobe XMP Core 5.6-c140 79.160451, 2017/05/06-01:08:21        ">
   <rdf:RDF xmlns:rdf="http://www.w3.org/1999/02/22-rdf-syntax-ns#">
      <rdf:Description rdf:about=""/>
   </rdf:RDF>
</x:xmpmeta>
                                                                                                    
                                                                                                    
                                                                                                    
                                                                                                    
                                                                                                    
                                                                                                    
                                                                                                    
                                                                                                    
                                                                                                    
                                                                                                    
                                                                                                    
                                                                                                    
                                                                                                    
                                                                                                    
                                                                                                    
                                                                                                    
                                                                                                    
                                                                                                    
                                                                                                    
                                                                                                    
                           
<?xpacket end="w"?></metadata>
<defs>
    <style>
      .cls-1 {
        fill: #9dabc2;
        fill-rule: evenodd;
      }
    </style>
  </defs>
  <path id="矩形_18" data-name="矩形 18" class="cls-1" d="M11,19V17h8v2H11Zm7-4H12a1,1,0,0,1-1-1V2a1,1,0,0,1,1-1h6a1,1,0,0,1,1,1V14A1,1,0,0,1,18,15ZM17,3H13V13h4V3ZM1,17H9v2H1V17Zm7-2H2a1,1,0,0,1-1-1V2A1,1,0,0,1,2,1H8A1,1,0,0,1,9,2V14A1,1,0,0,1,8,15ZM7,3H3V13H7V3Z"/>
</svg>
