<svg xmlns="http://www.w3.org/2000/svg" width="20" height="20" viewBox="0 0 20 20">
  <metadata><?xpacket begin="﻿" id="W5M0MpCehiHzreSzNTczkc9d"?>
<x:xmpmeta xmlns:x="adobe:ns:meta/" x:xmptk="Adobe XMP Core 5.6-c140 79.160451, 2017/05/06-01:08:21        ">
   <rdf:RDF xmlns:rdf="http://www.w3.org/1999/02/22-rdf-syntax-ns#">
      <rdf:Description rdf:about=""/>
   </rdf:RDF>
</x:xmpmeta>
                                                                                                    
                                                                                                    
                                                                                                    
                                                                                                    
                                                                                                    
                                                                                                    
                                                                                                    
                                                                                                    
                                                                                                    
                                                                                                    
                                                                                                    
                                                                                                    
                                                                                                    
                                                                                                    
                                                                                                    
                                                                                                    
                                                                                                    
                                                                                                    
                                                                                                    
                                                                                                    
                           
<?xpacket end="w"?></metadata>
<defs>
    <style>
      .cls-1 {
        fill: #9dacc1;
        fill-rule: evenodd;
      }
    </style>
  </defs>
  <path id="圆角矩形_2_拷贝_2" data-name="圆角矩形 2 拷贝 2" class="cls-1" d="M17.992,20H15.975a1,1,0,0,1-1.008-1V17a1,1,0,0,1,1.008-1h2.017A1,1,0,0,1,19,17v2A1,1,0,0,1,17.992,20Zm0-6H15.975a1,1,0,0,1-1.008-1V11a1,1,0,0,1,1.008-1h2.017A1,1,0,0,1,19,11v2A1,1,0,0,1,17.992,14ZM8.917,8A4,4,0,1,1,12.95,4,4.017,4.017,0,0,1,8.917,8Zm0-6a2,2,0,1,0,2.017,2A2.008,2.008,0,0,0,8.917,2ZM5.325,12a7.017,7.017,0,0,0-3.219,4.223A14.446,14.446,0,0,0,5.551,17.57,7.506,7.506,0,0,0,7.207,19.9,16.165,16.165,0,0,1,.851,17.842V16.8C0.569,16.646.273,16.509,0,16.332A9.039,9.039,0,0,1,7.112,9.185,7.489,7.489,0,0,0,5.325,12Zm4.6-2h2.017a1,1,0,0,1,1.008,1v2a1,1,0,0,1-1.008,1H9.925a1,1,0,0,1-1.008-1V11A1,1,0,0,1,9.925,10Zm0,6h2.017a1,1,0,0,1,1.008,1v2a1,1,0,0,1-1.008,1H9.925a1,1,0,0,1-1.008-1V17A1,1,0,0,1,9.925,16Z"/>
</svg>
