<svg xmlns="http://www.w3.org/2000/svg" width="20" height="20" viewBox="0 0 20 20">
  <metadata><?xpacket begin="﻿" id="W5M0MpCehiHzreSzNTczkc9d"?>
<x:xmpmeta xmlns:x="adobe:ns:meta/" x:xmptk="Adobe XMP Core 5.6-c140 79.160451, 2017/05/06-01:08:21        ">
   <rdf:RDF xmlns:rdf="http://www.w3.org/1999/02/22-rdf-syntax-ns#">
      <rdf:Description rdf:about=""/>
   </rdf:RDF>
</x:xmpmeta>
                                                                                                    
                                                                                                    
                                                                                                    
                                                                                                    
                                                                                                    
                                                                                                    
                                                                                                    
                                                                                                    
                                                                                                    
                                                                                                    
                                                                                                    
                                                                                                    
                                                                                                    
                                                                                                    
                                                                                                    
                                                                                                    
                                                                                                    
                                                                                                    
                                                                                                    
                                                                                                    
                           
<?xpacket end="w"?></metadata>
<defs>
    <style>
      .cls-1 {
        fill: #9dabc2;
        fill-rule: evenodd;
      }
    </style>
  </defs>
  <path id="矩形_4" data-name="矩形 4" class="cls-1" d="M17,20a3,3,0,0,1-3-3c0-.1.019-0.185,0.028-0.278l-5.237-1.5a5.01,5.01,0,1,1-1.417-7.6l3.071-3.071a3,3,0,1,1,1.446,1.228L12,6,8.988,9.012A4.792,4.792,0,0,1,9.746,13.5l5.075,1.45A3,3,0,1,1,17,20ZM13,4a1,1,0,1,0-1-1A1,1,0,0,0,13,4ZM5,9a3,3,0,1,0,3,3A3,3,0,0,0,5,9Zm12,7a1,1,0,1,0,1,1A1,1,0,0,0,17,16Z"/>
</svg>
