<svg xmlns="http://www.w3.org/2000/svg" width="20" height="20" viewBox="0 0 20 20">
  <metadata><?xpacket begin="﻿" id="W5M0MpCehiHzreSzNTczkc9d"?>
<x:xmpmeta xmlns:x="adobe:ns:meta/" x:xmptk="Adobe XMP Core 5.6-c140 79.160451, 2017/05/06-01:08:21        ">
   <rdf:RDF xmlns:rdf="http://www.w3.org/1999/02/22-rdf-syntax-ns#">
      <rdf:Description rdf:about=""/>
   </rdf:RDF>
</x:xmpmeta>
                                                                                                    
                                                                                                    
                                                                                                    
                                                                                                    
                                                                                                    
                                                                                                    
                                                                                                    
                                                                                                    
                                                                                                    
                                                                                                    
                                                                                                    
                                                                                                    
                                                                                                    
                                                                                                    
                                                                                                    
                                                                                                    
                                                                                                    
                                                                                                    
                                                                                                    
                                                                                                    
                           
<?xpacket end="w"?></metadata>
<defs>
    <style>
      .cls-1 {
        fill: #9dabc2;
        fill-rule: evenodd;
      }
    </style>
  </defs>
  <path id="矩形_2" data-name="矩形 2" class="cls-1" d="M1,4.429C3.339,3.133,8.967.013,9,0c0.051-.021,2,0,2,0l9,4.989v10L11,20s-2.044-.006-2,0c0.023,0-9.011-5.01-9.011-5.01v-10l1-.554M9,18c-0.055-.011,2,0,2,0l7-4.008V7.616L11,12s-2.044-.006-2,0c0.018,0-4.862-3.045-7.008-4.384v6.376S9.053,18.01,9,18ZM11,2c0,0.058-2,0-2,0L1.992,5.991V6H3c0.132,0.088,6.049,4.01,6,4s2,0,2,0l5.985-4H18V5.991S11,1.946,11,2Z"/>
</svg>
