<svg xmlns="http://www.w3.org/2000/svg" width="20" height="20" viewBox="0 0 20 20">
  <metadata><?xpacket begin="﻿" id="W5M0MpCehiHzreSzNTczkc9d"?>
<x:xmpmeta xmlns:x="adobe:ns:meta/" x:xmptk="Adobe XMP Core 5.6-c140 79.160451, 2017/05/06-01:08:21        ">
   <rdf:RDF xmlns:rdf="http://www.w3.org/1999/02/22-rdf-syntax-ns#">
      <rdf:Description rdf:about=""/>
   </rdf:RDF>
</x:xmpmeta>
                                                                                                    
                                                                                                    
                                                                                                    
                                                                                                    
                                                                                                    
                                                                                                    
                                                                                                    
                                                                                                    
                                                                                                    
                                                                                                    
                                                                                                    
                                                                                                    
                                                                                                    
                                                                                                    
                                                                                                    
                                                                                                    
                                                                                                    
                                                                                                    
                                                                                                    
                                                                                                    
                           
<?xpacket end="w"?></metadata>
<defs>
    <style>
      .cls-1 {
        fill: #9dabc2;
        fill-rule: evenodd;
      }
    </style>
  </defs>
  <path id="椭圆_8_拷贝_4" data-name="椭圆 8 拷贝 4" class="cls-1" d="M11,20s-2.044-.006-2,0c0.023,0-9.011-5.01-9.011-5.01v-10l1-.554L1,4.429C3.339,3.133,8.967.013,9,0c0.051-.021,2,0,2,0l9,4.989v10ZM18,6h0V5.991S11,1.946,11,2,9,2,9,2L1.992,5.991V6H2V7.621L1.992,7.616v6.376S9.053,18.01,9,18s2,0,2,0l7-4.008V12h0V6Zm-3,4V9h1v2H15V10Zm0.012,3.58L13.58,15.012l-0.838-.838a4.97,4.97,0,0,1-5.485,0l-0.838.838L4.988,13.58l0.838-.838a4.97,4.97,0,0,1,0-5.485L4.988,6.42,6.42,4.988,7.257,5.825a4.97,4.97,0,0,1,5.485,0l0.838-.838L15.012,6.42l-0.838.838a4.97,4.97,0,0,1,0,5.485ZM10,7a3,3,0,1,0,3,3A3,3,0,0,0,10,7Zm1,5h0ZM9,12H9Zm2,4H9V15h2v1ZM4,11V9H5v2H4ZM9,4h2V5H9V4Z"/>
</svg>
