<svg xmlns="http://www.w3.org/2000/svg" width="20" height="20" viewBox="0 0 20 20">
  <metadata><?xpacket begin="﻿" id="W5M0MpCehiHzreSzNTczkc9d"?>
<x:xmpmeta xmlns:x="adobe:ns:meta/" x:xmptk="Adobe XMP Core 5.6-c140 79.160451, 2017/05/06-01:08:21        ">
   <rdf:RDF xmlns:rdf="http://www.w3.org/1999/02/22-rdf-syntax-ns#">
      <rdf:Description rdf:about=""/>
   </rdf:RDF>
</x:xmpmeta>
                                                                                                    
                                                                                                    
                                                                                                    
                                                                                                    
                                                                                                    
                                                                                                    
                                                                                                    
                                                                                                    
                                                                                                    
                                                                                                    
                                                                                                    
                                                                                                    
                                                                                                    
                                                                                                    
                                                                                                    
                                                                                                    
                                                                                                    
                                                                                                    
                                                                                                    
                                                                                                    
                           
<?xpacket end="w"?></metadata>
<defs>
    <style>
      .cls-1 {
        fill: #9dabc2;
        fill-rule: evenodd;
      }
    </style>
  </defs>
  <path id="矩形_10" data-name="矩形 10" class="cls-1" d="M19,20H5a4,4,0,0,1-4-4V5C1,2.791,2.791,3,5,3V1A1,1,0,0,1,6,0H19a1,1,0,0,1,1,1V19A1,1,0,0,1,19,20ZM18,2H7V15H5V5C3.343,5,3,5.343,3,7v8a2.991,2.991,0,0,0,2,2.816V18H18V2ZM9,13h7v2H9V13ZM9,9h7v2H9V9ZM9,5h7V7H9V5Z"/>
</svg>
