<svg xmlns="http://www.w3.org/2000/svg" width="20" height="20" viewBox="0 0 20 20">
  <metadata><?xpacket begin="﻿" id="W5M0MpCehiHzreSzNTczkc9d"?>
<x:xmpmeta xmlns:x="adobe:ns:meta/" x:xmptk="Adobe XMP Core 5.6-c140 79.160451, 2017/05/06-01:08:21        ">
   <rdf:RDF xmlns:rdf="http://www.w3.org/1999/02/22-rdf-syntax-ns#">
      <rdf:Description rdf:about=""/>
   </rdf:RDF>
</x:xmpmeta>
                                                                                                    
                                                                                                    
                                                                                                    
                                                                                                    
                                                                                                    
                                                                                                    
                                                                                                    
                                                                                                    
                                                                                                    
                                                                                                    
                                                                                                    
                                                                                                    
                                                                                                    
                                                                                                    
                                                                                                    
                                                                                                    
                                                                                                    
                                                                                                    
                                                                                                    
                                                                                                    
                           
<?xpacket end="w"?></metadata>
<defs>
    <style>
      .cls-1 {
        fill: #9dabc2;
        fill-rule: evenodd;
      }
    </style>
  </defs>
  <path id="椭圆_10" data-name="椭圆 10" class="cls-1" d="M19.652,7.5A9.93,9.93,0,0,1,20,10a9.93,9.93,0,0,1-.348,2.5c-0.07-.047-0.156-0.068-0.23-0.109,0.08,0.044.173,0.068,0.248,0.119a9.922,9.922,0,0,1-.78,2.056,1,1,0,1,0-.9,1.433A10.052,10.052,0,0,1,16.5,17.586a3.057,3.057,0,0,1-.547-0.417,3.014,3.014,0,0,0,.526.406,9.951,9.951,0,0,1-3.528,1.981h0a9.957,9.957,0,0,1-1.965.395,0.991,0.991,0,0,0-1.98,0,9.958,9.958,0,0,1-1.965-.395h0a9.949,9.949,0,0,1-3.528-1.981,3.017,3.017,0,0,0,.526-0.406,3.058,3.058,0,0,1-.547.417A10.043,10.043,0,0,1,2.012,16a1,1,0,1,0-.9-1.433,9.921,9.921,0,0,1-.78-2.056c0.076-.051.168-0.075,0.249-0.119C0.5,12.43.419,12.452,0.348,12.5A9.931,9.931,0,0,1,0,10,9.931,9.931,0,0,1,.348,7.5C0.419,7.548.5,7.57,0.579,7.611,0.5,7.567.406,7.543,0.33,7.492a9.92,9.92,0,0,1,.78-2.056A1,1,0,1,0,2.012,4,10.046,10.046,0,0,1,3.5,2.414a3.059,3.059,0,0,1,.547.417,3.019,3.019,0,0,0-.526-0.406A9.95,9.95,0,0,1,7.045.445h0A9.952,9.952,0,0,1,9.01.05,1,1,0,0,0,10,1,1,1,0,0,0,10.99.05a9.95,9.95,0,0,1,1.965.395h0a9.952,9.952,0,0,1,3.528,1.981,3.016,3.016,0,0,0-.526.406A3.057,3.057,0,0,1,16.5,2.414,10.055,10.055,0,0,1,17.988,4a1,1,0,1,0,.9,1.433,9.921,9.921,0,0,1,.78,2.056c-0.076.051-.168,0.075-0.248,0.119C19.5,7.57,19.581,7.548,19.652,7.5Zm-1.941.469h0A2.99,2.99,0,0,1,15,5a2.93,2.93,0,0,1,.376-1.421,2.964,2.964,0,0,0-.177.371,7.983,7.983,0,0,0-3.23-1.7,2.975,2.975,0,0,1-3.939,0A7.983,7.983,0,0,0,4.8,3.95a2.951,2.951,0,0,0-.177-0.371A2.93,2.93,0,0,1,5,5,2.99,2.99,0,0,1,2.289,7.971h0C2.193,7.98,2.1,8,2,8c0.1,0,.193-0.02.289-0.029A7.917,7.917,0,0,0,2,10a7.918,7.918,0,0,0,.289,2.029C2.193,12.02,2.1,12,2,12c0.1,0,.193.02,0.289,0.029h0A2.99,2.99,0,0,1,5,15a2.93,2.93,0,0,1-.376,1.422A2.952,2.952,0,0,0,4.8,16.05a7.984,7.984,0,0,0,3.23,1.7,2.975,2.975,0,0,1,3.939,0,7.984,7.984,0,0,0,3.23-1.7,2.965,2.965,0,0,0,.177.372A2.931,2.931,0,0,1,15,15a2.99,2.99,0,0,1,2.71-2.971h0C17.807,12.02,17.9,12,18,12c-0.1,0-.193.02-0.289,0.029A7.925,7.925,0,0,0,18,10a7.924,7.924,0,0,0-.289-2.029C17.807,7.98,17.9,8,18,8,17.9,8,17.807,7.98,17.711,7.971ZM10,14a4,4,0,1,1,4-4A4,4,0,0,1,10,14Zm0-6a2,2,0,1,0,2,2A2,2,0,0,0,10,8Z"/>
</svg>
