<?xml version="1.0" standalone="no"?><!DOCTYPE svg PUBLIC "-//W3C//DTD SVG 1.1//EN" "http://www.w3.org/Graphics/SVG/1.1/DTD/svg11.dtd"><svg t="1626056012045" class="icon" viewBox="0 0 1024 1024" version="1.1" xmlns="http://www.w3.org/2000/svg" p-id="1364" width="200" height="200" xmlns:xlink="http://www.w3.org/1999/xlink"><defs><style type="text/css"></style></defs><path d="M512.15872 1024C229.32992 1024 0.03584 794.79296 0.03584 512.01024S229.32992 0.0256 512.15872 0.0256s512.128 229.20704 512.128 511.98976S795.01824 1024 512.15872 1024z m460.80512-511.98976c0-253.89056-207.44704-460.46208-461.18912-460.46208s-460.16 206.57152-460.16 460.46208c0 253.83936 206.41792 460.41088 460.16 460.41088 253.7472 0.00512 461.18912-206.57152 461.18912-460.41088zM512.1536 219.02336l60.83584 145.38752c10.31168 24.74496 38.14912 45.36832 64.96256 47.43168l156.72832 12.37504-119.60832 102.08256c-19.58912 17.52576-30.93504 50.52416-24.74496 76.29824l36.09088 153.63584-135.08096-82.48832a83.03616 83.03616 0 0 0-40.21248-10.31168c-14.4384 0-28.87168 4.12672-40.21248 10.31168l-134.04672 82.48832 36.09088-153.63584c6.18496-25.77408-5.15584-58.77248-24.74496-76.29824L229.632 424.21248l156.72832-12.37504c25.7792-2.06336 54.64576-22.68672 64.96256-47.43168l60.83072-145.3824m0-48.4608c-7.2192 0-25.7792 3.09248-37.12 28.87168l-61.86496 148.48c-4.1216 10.31168-19.58912 20.62336-29.9008 21.65248L222.4128 382.97088c-28.87168 2.05824-37.12 18.56-39.18336 25.7792s-5.15584 25.7792 16.49664 44.3392l122.7008 105.17504c8.24832 7.21408 14.43328 24.74496 11.3408 35.05664l-37.12 156.72832c-5.15584 19.58912 1.03424 31.96416 6.18496 39.17824 6.18496 8.24832 16.49664 12.37504 26.80832 12.37504 8.24832 0 17.53088-3.09248 26.80832-8.24832l137.1392-83.52256c4.12672-3.09248 11.3408-4.12672 18.56-4.12672 7.2192 0 14.43328 2.06336 18.56 4.12672l137.1392 83.52256c9.28256 5.15584 17.52576 8.24832 26.8032 8.24832 10.3168 0 20.62336-5.15584 26.80832-12.37504 5.15584-7.21408 10.31168-19.58912 6.18496-39.17824l-37.12-156.72832c-2.05824-10.31168 3.09248-27.84256 11.34592-35.05664l122.7008-105.17504c21.65248-18.56 18.56-37.12 16.50176-44.3392-2.06336-7.2192-10.31168-23.71584-39.18336-25.7792l-160.84992-12.37504c-11.34592-1.02912-25.7792-12.37504-29.90592-21.65248l-61.86496-148.48c-11.33568-26.80832-29.89568-29.9008-37.11488-29.9008z" p-id="1365" fill="#515151"></path></svg>