<?xml version="1.0" standalone="no"?><!DOCTYPE svg PUBLIC "-//W3C//DTD SVG 1.1//EN" "http://www.w3.org/Graphics/SVG/1.1/DTD/svg11.dtd"><svg t="1571115083223" class="icon" viewBox="0 0 1024 1024" version="1.1" xmlns="http://www.w3.org/2000/svg" p-id="8953" xmlns:xlink="http://www.w3.org/1999/xlink" width="32" height="32"><defs><style type="text/css"></style></defs><path d="M591.503106 508.819876v496.099379c0 19.080745 0 19.080745 19.080745 19.080745h146.285714c146.285714 0 260.770186-114.484472 260.770187-260.770186V273.490683c0-25.440994 0-44.521739-6.360249-69.962733-31.801242-114.484472-133.565217-197.167702-254.409938-197.167702H610.583851c-19.080745-6.360248-19.080745-6.360248-19.080745 12.720497V508.819876z" p-id="8954"></path><path d="M896.795031 559.701863c0 57.242236-44.521739 101.763975-101.763975 101.763976-57.242236 0-101.763975-44.521739-101.763975-101.763976 0-57.242236 44.521739-101.763975 101.763975-101.763975 57.242236 0 101.763975 44.521739 101.763975 101.763975z" fill="#FFFFFF" p-id="8955"></path><path d="M254.409938 209.888199c-50.881988 0-95.403727 44.521739-95.403727 95.403726S203.52795 400.695652 254.409938 400.695652s95.403727-44.521739 95.403727-95.403727S305.291925 209.888199 254.409938 209.888199z" p-id="8956"></path><path d="M489.73913 508.819876V19.080745c0-19.080745 0-19.080745-12.720496-19.080745H241.689441C108.124224 12.720497 0 120.84472 0 254.409938v508.819876c0 19.080745 0 38.161491 6.360248 57.242236C31.801242 928.596273 139.925466 1017.639752 254.409938 1017.639752h222.608696c12.720497 0 12.720497 0 12.720496-12.720497V508.819876zM407.055901 508.819876v413.416149c0 12.720497 0 12.720497-12.720497 12.720497H260.770186c-101.763975 0-178.086957-76.322981-178.086956-178.086957V260.770186c0-101.763975 76.322981-178.086957 178.086956-178.086956h133.565218c6.360248 0 12.720497 0 12.720497 12.720497V508.819876z" p-id="8957"></path></svg>