<svg xmlns="http://www.w3.org/2000/svg" width="20" height="20" viewBox="0 0 20 20">
  <metadata><?xpacket begin="﻿" id="W5M0MpCehiHzreSzNTczkc9d"?>
<x:xmpmeta xmlns:x="adobe:ns:meta/" x:xmptk="Adobe XMP Core 5.6-c140 79.160451, 2017/05/06-01:08:21        ">
   <rdf:RDF xmlns:rdf="http://www.w3.org/1999/02/22-rdf-syntax-ns#">
      <rdf:Description rdf:about=""/>
   </rdf:RDF>
</x:xmpmeta>
                                                                                                    
                                                                                                    
                                                                                                    
                                                                                                    
                                                                                                    
                                                                                                    
                                                                                                    
                                                                                                    
                                                                                                    
                                                                                                    
                                                                                                    
                                                                                                    
                                                                                                    
                                                                                                    
                                                                                                    
                                                                                                    
                                                                                                    
                                                                                                    
                                                                                                    
                                                                                                    
                           
<?xpacket end="w"?></metadata>
<defs>
    <style>
      .cls-1 {
        fill: #9dacc1;
        fill-rule: evenodd;
      }
    </style>
  </defs>
  <path id="矩形_54" data-name="矩形 54" class="cls-1" d="M17.931,11A7.979,7.979,0,0,1,11,17.907V20H9V17.907A7.979,7.979,0,0,1,2.069,11H0V9H2.093A7.979,7.979,0,0,1,9,2.069V0h2V2.069A7.979,7.979,0,0,1,17.907,9H20v2H17.931ZM15.9,11H12.816A3.005,3.005,0,0,1,11,12.816v3.093A5.992,5.992,0,0,0,15.9,11ZM9,15.909V12.816A3.005,3.005,0,0,1,7.184,11H4.1A5.992,5.992,0,0,0,9,15.909ZM9,4.1A5.992,5.992,0,0,0,4.091,9H7.184A3.006,3.006,0,0,1,9,7.184V4.1ZM10,9a1,1,0,1,0,1,1A1,1,0,0,0,10,9Zm1-4.9V7.184A3.005,3.005,0,0,1,12.816,9h3.093A5.992,5.992,0,0,0,11,4.1Z"/>
</svg>
