<svg xmlns="http://www.w3.org/2000/svg" width="20" height="20" viewBox="0 0 20 20">
  <metadata><?xpacket begin="﻿" id="W5M0MpCehiHzreSzNTczkc9d"?>
<x:xmpmeta xmlns:x="adobe:ns:meta/" x:xmptk="Adobe XMP Core 5.6-c140 79.160451, 2017/05/06-01:08:21        ">
   <rdf:RDF xmlns:rdf="http://www.w3.org/1999/02/22-rdf-syntax-ns#">
      <rdf:Description rdf:about=""/>
   </rdf:RDF>
</x:xmpmeta>
                                                                                                    
                                                                                                    
                                                                                                    
                                                                                                    
                                                                                                    
                                                                                                    
                                                                                                    
                                                                                                    
                                                                                                    
                                                                                                    
                                                                                                    
                                                                                                    
                                                                                                    
                                                                                                    
                                                                                                    
                                                                                                    
                                                                                                    
                                                                                                    
                                                                                                    
                                                                                                    
                           
<?xpacket end="w"?></metadata>
<defs>
    <style>
      .cls-1 {
        fill: #9dabc2;
        fill-rule: evenodd;
      }
    </style>
  </defs>
  <path id="矩形_40" data-name="矩形 40" class="cls-1" d="M19,20H10a1,1,0,0,1-1-1V10a1,1,0,0,1,1-1h4v2H11v7h7V15h2v4A1,1,0,0,1,19,20Zm-3.991-4.67s-2,.659-2.014.673c-0.03.032,0.672-2.021,0.672-2.021l4.7-4.718a0.946,0.946,0,0,1,1.342,0,0.956,0.956,0,0,1,0,1.348ZM9,8a4,4,0,1,1,4-4A4,4,0,0,1,9,8ZM9,2a2,2,0,1,0,2,2A2,2,0,0,0,9,2ZM5.437,12a7.011,7.011,0,0,0-3.192,4.223A14.258,14.258,0,0,0,5.662,17.57,7.507,7.507,0,0,0,7.3,19.9,15.94,15.94,0,0,1,1,17.842V16.8c-0.279-.159-0.573-0.3-0.839-0.473A9,9,0,0,1,7.21,9.185,7.5,7.5,0,0,0,5.437,12Z"/>
</svg>
