<svg xmlns="http://www.w3.org/2000/svg" width="20" height="20" viewBox="0 0 20 20">
  <metadata><?xpacket begin="﻿" id="W5M0MpCehiHzreSzNTczkc9d"?>
<x:xmpmeta xmlns:x="adobe:ns:meta/" x:xmptk="Adobe XMP Core 5.6-c140 79.160451, 2017/05/06-01:08:21        ">
   <rdf:RDF xmlns:rdf="http://www.w3.org/1999/02/22-rdf-syntax-ns#">
      <rdf:Description rdf:about=""/>
   </rdf:RDF>
</x:xmpmeta>
                                                                                                    
                                                                                                    
                                                                                                    
                                                                                                    
                                                                                                    
                                                                                                    
                                                                                                    
                                                                                                    
                                                                                                    
                                                                                                    
                                                                                                    
                                                                                                    
                                                                                                    
                                                                                                    
                                                                                                    
                                                                                                    
                                                                                                    
                                                                                                    
                                                                                                    
                                                                                                    
                           
<?xpacket end="w"?></metadata>
<defs>
    <style>
      .cls-1 {
        fill: #9dabc2;
        fill-rule: evenodd;
      }
    </style>
  </defs>
  <path id="椭圆_8_拷贝_5" data-name="椭圆 8 拷贝 5" class="cls-1" d="M20,13v2H19V13h1Zm-0.988,4.58L17.58,19.012l-0.838-.838a4.97,4.97,0,0,1-5.485,0l-0.838.838L8.988,17.58l0.838-.838a4.971,4.971,0,0,1,0-5.485L8.988,10.42,10.42,8.988l0.838,0.838a4.97,4.97,0,0,1,5.485,0l0.838-.838,1.432,1.432-0.838.838a4.97,4.97,0,0,1,0,5.485ZM14,11a3,3,0,1,0,3,3A3,3,0,0,0,14,11Zm1,9H13V19h2v1ZM8,15V13H9v2H8Zm5-7h2V9H13V8ZM10,8a4,4,0,1,1,4-4A4,4,0,0,1,10,8Zm0-6a2,2,0,1,0,2,2A2,2,0,0,0,10,2ZM6.437,12a7.012,7.012,0,0,0-3.192,4.223A14.258,14.258,0,0,0,6.662,17.57,7.51,7.51,0,0,0,8.3,19.9,15.942,15.942,0,0,1,2,17.842V16.8c-0.279-.159-0.573-0.3-0.839-0.473A9,9,0,0,1,8.21,9.185,7.5,7.5,0,0,0,6.437,12Z"/>
</svg>
