<svg xmlns="http://www.w3.org/2000/svg" width="22" height="22" viewBox="0 0 22 22">
  <metadata><?xpacket begin="﻿" id="W5M0MpCehiHzreSzNTczkc9d"?>
<x:xmpmeta xmlns:x="adobe:ns:meta/" x:xmptk="Adobe XMP Core 5.6-c138 79.159824, 2016/09/14-01:09:01        ">
   <rdf:RDF xmlns:rdf="http://www.w3.org/1999/02/22-rdf-syntax-ns#">
      <rdf:Description rdf:about=""/>
   </rdf:RDF>
</x:xmpmeta>
                                                                                                    
                                                                                                    
                                                                                                    
                                                                                                    
                                                                                                    
                                                                                                    
                                                                                                    
                                                                                                    
                                                                                                    
                                                                                                    
                                                                                                    
                                                                                                    
                                                                                                    
                                                                                                    
                                                                                                    
                                                                                                    
                                                                                                    
                                                                                                    
                                                                                                    
                                                                                                    
                           
<?xpacket end="w"?></metadata>
<defs>
    <style>
      .cls-1 {
        fill: #c9cfd8;
        fill-rule: evenodd;
      }
    </style>
  </defs>
  <path id="文本模式.svg" class="cls-1" d="M1238,124h6.97c-0.02.024-.02,0.043,0.03,0h0.91a2.073,2.073,0,0,1,.78.547l3.1,3.927a3.946,3.946,0,0,1,.21.336V130h0c-0.03.027-.02,0.02,0,0.01V143a2,2,0,0,1-2,2h-15a2,2,0,0,1-2-2V126a2,2,0,0,1,2-2h5Zm7.12,1.785a0.77,0.77,0,0,1-.12-0.235V126h0v3h2.65ZM1233,143h15V131h-3a2,2,0,0,1-2-2v-3h-10v17Zm8-10h-4a1,1,0,0,1,0-2h4A1,1,0,0,1,1241,133Zm-4,4h7a1,1,0,0,1,0,2h-7A1,1,0,0,1,1237,137Zm13-7v0.01h0V130h0Z" transform="translate(-1229.5 -123.5)"/>
</svg>
