<?xml version="1.0" encoding="UTF-8"?>
<svg width="18px" height="18px" viewBox="0 0 18 18" version="1.1" xmlns="http://www.w3.org/2000/svg" xmlns:xlink="http://www.w3.org/1999/xlink">
    <!-- Generator: Sketch 59.1 (86144) - https://sketch.com -->
    <title>用户引导</title>
    <desc>Created with Sketch.</desc>
    <g id="导航调整" stroke="none" stroke-width="1" fill="none" fill-rule="evenodd">
        <g id="Operator-管理备份" transform="translate(-78.000000, -700.000000)">
            <g id="编组-13备份-6" transform="translate(78.000000, 700.000000)">
                <g id="编组-17">
                    <rect id="矩形备份-26" fill="#528AE2" opacity="0" x="0" y="0" width="18" height="18"></rect>
                    <path d="M9,0 C13.9705627,0 18,4.02943725 18,9 C18,13.9705627 13.9705627,18 9,18 C4.02943725,18 0,13.9705627 0,9 C0,4.02943725 4.02943725,0 9,0 Z M9.0026751,1.53637695 C4.86053948,1.53637695 1.5026751,4.89424133 1.5026751,9.03637695 C1.5026751,13.1785126 4.86053948,16.536377 9.0026751,16.536377 C13.1448107,16.536377 16.5026751,13.1785126 16.5026751,9.03637695 C16.5026751,4.89424133 13.1448107,1.53637695 9.0026751,1.53637695 Z M13.7097799,4.30218299 L11.3668528,11.3309642 L4.33807166,13.6738912 L6.68099872,6.64511005 L13.7097799,4.30218299 Z M7.593,8.65 L6.7097799,11.302183 L9.362,10.418 L7.593,8.65 Z M11.3380717,6.67389123 L8.638,7.573 L10.438,9.373 L11.3380717,6.67389123 Z" id="形状结合" fill="#4A4E58" fill-rule="nonzero"></path>
                </g>
            </g>
        </g>
    </g>
</svg>