<svg xmlns="http://www.w3.org/2000/svg" width="20" height="20" viewBox="0 0 20 20">
  <metadata><?xpacket begin="﻿" id="W5M0MpCehiHzreSzNTczkc9d"?>
<x:xmpmeta xmlns:x="adobe:ns:meta/" x:xmptk="Adobe XMP Core 5.6-c140 79.160451, 2017/05/06-01:08:21        ">
   <rdf:RDF xmlns:rdf="http://www.w3.org/1999/02/22-rdf-syntax-ns#">
      <rdf:Description rdf:about=""/>
   </rdf:RDF>
</x:xmpmeta>
                                                                                                    
                                                                                                    
                                                                                                    
                                                                                                    
                                                                                                    
                                                                                                    
                                                                                                    
                                                                                                    
                                                                                                    
                                                                                                    
                                                                                                    
                                                                                                    
                                                                                                    
                                                                                                    
                                                                                                    
                                                                                                    
                                                                                                    
                                                                                                    
                                                                                                    
                                                                                                    
                           
<?xpacket end="w"?></metadata>
<defs>
    <style>
      .cls-1 {
        fill: #9dabc2;
        fill-rule: evenodd;
      }
    </style>
  </defs>
  <path id="矩形_12" data-name="矩形 12" class="cls-1" d="M19,20H15a1,1,0,0,1-1-1V15a1,1,0,0,1,1-1h4a1,1,0,0,1,1,1v4A1,1,0,0,1,19,20Zm-1-4H16v2h2V16Zm-2-4H4v2H2V11a1,1,0,0,1,1-1H9V8H7A1,1,0,0,1,6,7V1A1,1,0,0,1,7,0h6a1,1,0,0,1,1,1V7a1,1,0,0,1-1,1H11v2h6a1,1,0,0,1,1,1v3H16V12ZM12,6V2H8V6h4ZM6,15v4a1,1,0,0,1-1,1H1a1,1,0,0,1-1-1V15a1,1,0,0,1,1-1H5A1,1,0,0,1,6,15ZM4,16H2v2H4V16Z"/>
</svg>
