<?xml version="1.0" encoding="UTF-8"?>
<svg width="20px" height="20px" viewBox="0 0 20 20" version="1.1" xmlns="http://www.w3.org/2000/svg" xmlns:xlink="http://www.w3.org/1999/xlink">
    <!-- Generator: Sketch 55.1 (78136) - https://sketchapp.com -->
    <title>ic_cloud shell</title>
    <desc>Created with Sketch.</desc>
    <g id="CICD使用教程" stroke="none" stroke-width="1" fill="none" fill-rule="evenodd">
        <g id="v" transform="translate(-203.000000, -166.000000)" fill="#9DACC1" fill-rule="nonzero">
            <g id="编组-3" transform="translate(203.000000, 166.000000)">
                <path d="M14.5465116,12.8837209 L9.58139535,15.6627907 L4.68604651,12.7674419 L4.75581395,7.06976744 L9.72093023,4.29069767 L14.6162791,7.18604651 L14.5465116,12.8837209 Z M9.60889336,13.3554263 L12.5608173,11.7031785 L12.6022625,8.31848664 L9.69343222,6.59806206 L6.74150826,8.2503099 L6.70006306,11.6350017 L9.60889336,13.3554263 Z M15.1976744,14.9069767 L16.7093023,16.0581395 L9.62790698,19.9534884 L1,14.9418605 L1.02325581,4.96511628 L9.6744186,-6.75015599e-13 L18.3023256,5.01162791 L18.2790698,14.9883721 L18.2093023,15.0232558 L16.5813953,13.7209302 L16.6046512,5.98837209 L9.6744186,1.95348837 L2.72093023,5.94186047 L2.69767442,13.9651163 L9.62790698,18 L15.1976744,14.9069767 Z" id="形状结合"></path>
            </g>
        </g>
    </g>
</svg>