<svg xmlns="http://www.w3.org/2000/svg" width="20" height="20" viewBox="0 0 20 20">
  <metadata><?xpacket begin="﻿" id="W5M0MpCehiHzreSzNTczkc9d"?>
<x:xmpmeta xmlns:x="adobe:ns:meta/" x:xmptk="Adobe XMP Core 5.6-c140 79.160451, 2017/05/06-01:08:21        ">
   <rdf:RDF xmlns:rdf="http://www.w3.org/1999/02/22-rdf-syntax-ns#">
      <rdf:Description rdf:about=""/>
   </rdf:RDF>
</x:xmpmeta>
                                                                                                    
                                                                                                    
                                                                                                    
                                                                                                    
                                                                                                    
                                                                                                    
                                                                                                    
                                                                                                    
                                                                                                    
                                                                                                    
                                                                                                    
                                                                                                    
                                                                                                    
                                                                                                    
                                                                                                    
                                                                                                    
                                                                                                    
                                                                                                    
                                                                                                    
                                                                                                    
                           
<?xpacket end="w"?></metadata>
<defs>
    <style>
      .cls-1 {
        fill: #9dacc1;
        fill-rule: evenodd;
      }
    </style>
  </defs>
  <path id="矩形_3_拷贝_6" data-name="矩形 3 拷贝 6" class="cls-1" d="M18,20H11a1,1,0,0,1-1-1V12a1,1,0,0,1,1-1h7a1,1,0,0,1,1,1v7A1,1,0,0,1,18,20Zm-1-7H12v5h5V13Zm1-3H11a1,1,0,0,1-1-1V2a1,1,0,0,1,1-1h7a1,1,0,0,1,1,1V9A1,1,0,0,1,18,10ZM17,3H12V8h5V3ZM8,20H1a1,1,0,0,1-1-1V12a1,1,0,0,1,1-1H8a1,1,0,0,1,1,1v7A1,1,0,0,1,8,20ZM7,13H2v5H7V13Zm1-3H1A1,1,0,0,1,0,9V2A1,1,0,0,1,1,1H8A1,1,0,0,1,9,2V9A1,1,0,0,1,8,10ZM7,3H2V8H7V3Z"/>
</svg>
