<svg xmlns="http://www.w3.org/2000/svg" width="19" height="18" viewBox="0 0 19 18">
  <metadata><?xpacket begin="﻿" id="W5M0MpCehiHzreSzNTczkc9d"?>
<x:xmpmeta xmlns:x="adobe:ns:meta/" x:xmptk="Adobe XMP Core 5.6-c140 79.160451, 2017/05/06-01:08:21        ">
   <rdf:RDF xmlns:rdf="http://www.w3.org/1999/02/22-rdf-syntax-ns#">
      <rdf:Description rdf:about=""/>
   </rdf:RDF>
</x:xmpmeta>
                                                                                                    
                                                                                                    
                                                                                                    
                                                                                                    
                                                                                                    
                                                                                                    
                                                                                                    
                                                                                                    
                                                                                                    
                                                                                                    
                                                                                                    
                                                                                                    
                                                                                                    
                                                                                                    
                                                                                                    
                                                                                                    
                                                                                                    
                                                                                                    
                                                                                                    
                                                                                                    
                           
<?xpacket end="w"?></metadata>
<defs>
    <style>
      .cls-1 {
        fill: #4c4e58;
        fill-rule: evenodd;
      }
    </style>
  </defs>
  <path id="ncs" class="cls-1" d="M8,4H3V14H17V13h2v1a2,2,0,0,1-2,2H11v1h3a1,1,0,0,1,0,2H6a1,1,0,0,1,0-2H9V16H3a2,2,0,0,1-2-2V4A2,2,0,0,1,3,2H8V4ZM20,6V8H18.883a5.049,5.049,0,0,1-.724,1.745L19.414,11,18,12.414l-1.252-1.252A4.957,4.957,0,0,1,15,11.9V13H13V11.9a4.93,4.93,0,0,1-1.747-.738L10,12.414,8.586,11,9.842,9.743A4.979,4.979,0,0,1,9.109,8H8V6H9.109a4.979,4.979,0,0,1,.733-1.743L8.586,3,10,1.586l1.253,1.253A4.93,4.93,0,0,1,13,2.1V1h2V2.1a4.955,4.955,0,0,1,1.748.737L18,1.586,19.414,3,18.16,4.255A5.049,5.049,0,0,1,18.883,6H20ZM14,4a3,3,0,1,0,3,3A3,3,0,0,0,14,4Z" transform="translate(-1 -1)"/>
</svg>
