<svg xmlns="http://www.w3.org/2000/svg" width="18" height="19" viewBox="0 0 18 19">
  <metadata><?xpacket begin="﻿" id="W5M0MpCehiHzreSzNTczkc9d"?>
<x:xmpmeta xmlns:x="adobe:ns:meta/" x:xmptk="Adobe XMP Core 5.6-c140 79.160451, 2017/05/06-01:08:21        ">
   <rdf:RDF xmlns:rdf="http://www.w3.org/1999/02/22-rdf-syntax-ns#">
      <rdf:Description rdf:about=""/>
   </rdf:RDF>
</x:xmpmeta>
                                                                                                    
                                                                                                    
                                                                                                    
                                                                                                    
                                                                                                    
                                                                                                    
                                                                                                    
                                                                                                    
                                                                                                    
                                                                                                    
                                                                                                    
                                                                                                    
                                                                                                    
                                                                                                    
                                                                                                    
                                                                                                    
                                                                                                    
                                                                                                    
                                                                                                    
                                                                                                    
                           
<?xpacket end="w"?></metadata>
<defs>
    <style>
      .cls-1 {
        fill: #4c4e58;
        fill-rule: evenodd;
      }
    </style>
  </defs>
  <path id="zyc" class="cls-1" d="M18,19H2a1,1,0,0,1-1-1V10L5,1A1.347,1.347,0,0,1,6,0h8a1.389,1.389,0,0,1,1,1l4,9v8A1,1,0,0,1,18,19Zm-2.25-7L15,14a1.413,1.413,0,0,1-1,1H6a1.307,1.307,0,0,1-1-1L4.25,12H3v4a1,1,0,0,0,1,1H16a1,1,0,0,0,1-1V12H15.75ZM13.889,2.765A1.071,1.071,0,0,0,13.111,2H6.889a1.038,1.038,0,0,0-.778.765L3.068,10H6.25L7,12a1.307,1.307,0,0,0,1,1h4a1.413,1.413,0,0,0,1-1l0.75-2h3.182ZM8,4h4V6H8V4ZM7,7h6V9H7V7Z" transform="translate(-1)"/>
</svg>
