<svg xmlns="http://www.w3.org/2000/svg" width="20" height="20" viewBox="0 0 20 20">
  <metadata><?xpacket begin="﻿" id="W5M0MpCehiHzreSzNTczkc9d"?>
<x:xmpmeta xmlns:x="adobe:ns:meta/" x:xmptk="Adobe XMP Core 5.6-c140 79.160451, 2017/05/06-01:08:21        ">
   <rdf:RDF xmlns:rdf="http://www.w3.org/1999/02/22-rdf-syntax-ns#">
      <rdf:Description rdf:about=""/>
   </rdf:RDF>
</x:xmpmeta>
                                                                                                    
                                                                                                    
                                                                                                    
                                                                                                    
                                                                                                    
                                                                                                    
                                                                                                    
                                                                                                    
                                                                                                    
                                                                                                    
                                                                                                    
                                                                                                    
                                                                                                    
                                                                                                    
                                                                                                    
                                                                                                    
                                                                                                    
                                                                                                    
                                                                                                    
                                                                                                    
                           
<?xpacket end="w"?></metadata>
<defs>
    <style>
      .cls-1 {
        fill: #8494a8;
        fill-rule: evenodd;
      }
    </style>
  </defs>
  <path id="矩形_74" data-name="矩形 74" class="cls-1" d="M5-1H5ZM19,2V15h0v3a1,1,0,0,1-1,1H15V17h2V7H3v5H1v2H9.649L6.992,11.1l0.715-.78a0.951,0.951,0,0,1,1.429,0l3.573,3.9a1.177,1.177,0,0,1,0,1.561l-3.573,3.9a0.951,0.951,0,0,1-1.429,0L6.992,18.9,9.649,16H1v2H1V16H0V14H1V2A1,1,0,0,1,2,1H18A1,1,0,0,1,19,2ZM17,3H3V7H17V3Z"/>
</svg>
