<svg xmlns="http://www.w3.org/2000/svg" width="20" height="20" viewBox="0 0 20 20">
  <metadata><?xpacket begin="﻿" id="W5M0MpCehiHzreSzNTczkc9d"?>
<x:xmpmeta xmlns:x="adobe:ns:meta/" x:xmptk="Adobe XMP Core 5.6-c140 79.160451, 2017/05/06-01:08:21        ">
   <rdf:RDF xmlns:rdf="http://www.w3.org/1999/02/22-rdf-syntax-ns#">
      <rdf:Description rdf:about=""/>
   </rdf:RDF>
</x:xmpmeta>
                                                                                                    
                                                                                                    
                                                                                                    
                                                                                                    
                                                                                                    
                                                                                                    
                                                                                                    
                                                                                                    
                                                                                                    
                                                                                                    
                                                                                                    
                                                                                                    
                                                                                                    
                                                                                                    
                                                                                                    
                                                                                                    
                                                                                                    
                                                                                                    
                                                                                                    
                                                                                                    
                           
<?xpacket end="w"?></metadata>
<defs>
    <style>
      .cls-1 {
        fill: #9dacc1;
        fill-rule: evenodd;
      }
    </style>
  </defs>
  <path id="椭圆_16" data-name="椭圆 16" class="cls-1" d="M20,13v2H19V13h1Zm-0.988,4.58L17.58,19.012l-0.838-.838a4.97,4.97,0,0,1-5.485,0l-0.838.838L8.988,17.58l0.838-.838a4.971,4.971,0,0,1,0-5.485L8.988,10.42,10.42,8.988l0.838,0.838a4.97,4.97,0,0,1,5.485,0l0.838-.838,1.432,1.432-0.837.838a4.97,4.97,0,0,1,0,5.485ZM14,11a3,3,0,1,0,3,3A3,3,0,0,0,14,11Zm1,9H13V19h2v1ZM8,15V13H9v2H8Zm5-7h2V9H13V8Zm3-5H12V6.262a7.94,7.94,0,0,0-2,.817V2a1,1,0,0,1,1-1h6a1,1,0,0,1,1,1V7.079a7.94,7.94,0,0,0-2-.817V3ZM6.069,15H1a1,1,0,0,1-1-1V2A1,1,0,0,1,1,1H7A1,1,0,0,1,8,2V8.721A7.861,7.861,0,0,0,6.069,15ZM6,3H2V13H6V3ZM7.76,19H0V17H6.587A7.988,7.988,0,0,0,7.76,19Z"/>
</svg>
