<svg xmlns="http://www.w3.org/2000/svg" width="20" height="20" viewBox="0 0 20 20">
  <metadata><?xpacket begin="﻿" id="W5M0MpCehiHzreSzNTczkc9d"?>
<x:xmpmeta xmlns:x="adobe:ns:meta/" x:xmptk="Adobe XMP Core 5.6-c140 79.160451, 2017/05/06-01:08:21        ">
   <rdf:RDF xmlns:rdf="http://www.w3.org/1999/02/22-rdf-syntax-ns#">
      <rdf:Description rdf:about=""/>
   </rdf:RDF>
</x:xmpmeta>
                                                                                                    
                                                                                                    
                                                                                                    
                                                                                                    
                                                                                                    
                                                                                                    
                                                                                                    
                                                                                                    
                                                                                                    
                                                                                                    
                                                                                                    
                                                                                                    
                                                                                                    
                                                                                                    
                                                                                                    
                                                                                                    
                                                                                                    
                                                                                                    
                                                                                                    
                                                                                                    
                           
<?xpacket end="w"?></metadata>
<defs>
    <style>
      .cls-1 {
        fill: #9dacc1;
        fill-rule: evenodd;
      }
    </style>
  </defs>
  <path id="矩形_67" data-name="矩形 67" class="cls-1" d="M17,19V11s-0.448,0-1,0H15V2H2V18H7v2H1a1,1,0,0,1-1-1V1A1,1,0,0,1,1,0H16a1,1,0,0,1,1,1V11h0v8h0ZM4,11V9H8v2H4ZM4,5h9V7H4V5Zm8,6a3.978,3.978,0,0,1,3.419,6.048l1.3,1.3a0.97,0.97,0,0,1-1.371,1.371l-1.3-1.3A3.994,3.994,0,1,1,12,11Zm0,6a2,2,0,1,0-2-2A2,2,0,0,0,12,17Z"/>
</svg>
