<svg xmlns="http://www.w3.org/2000/svg" width="18" height="18" viewBox="0 0 18 18">
  <metadata><?xpacket begin="﻿" id="W5M0MpCehiHzreSzNTczkc9d"?>
<x:xmpmeta xmlns:x="adobe:ns:meta/" x:xmptk="Adobe XMP Core 5.6-c140 79.160451, 2017/05/06-01:08:21        ">
   <rdf:RDF xmlns:rdf="http://www.w3.org/1999/02/22-rdf-syntax-ns#">
      <rdf:Description rdf:about=""/>
   </rdf:RDF>
</x:xmpmeta>
                                                                                                    
                                                                                                    
                                                                                                    
                                                                                                    
                                                                                                    
                                                                                                    
                                                                                                    
                                                                                                    
                                                                                                    
                                                                                                    
                                                                                                    
                                                                                                    
                                                                                                    
                                                                                                    
                                                                                                    
                                                                                                    
                                                                                                    
                                                                                                    
                                                                                                    
                                                                                                    
                           
<?xpacket end="w"?></metadata>
<defs>
    <style>
      .cls-1 {
        fill: #4c4e58;
        fill-rule: evenodd;
      }
    </style>
  </defs>
  <path id="sshmy" class="cls-1" d="M18,17H16V15h1V5H16V3h2a1,1,0,0,1,1,1V16A1,1,0,0,1,18,17Zm-7-6.1V14h3v2H11v1h3v2H9V10.9A5,5,0,1,1,11,10.9ZM10,3a3,3,0,1,0,3,3A3,3,0,0,0,10,3ZM1,16V4A1,1,0,0,1,2,3H4V5H3V15H4v2H2A1,1,0,0,1,1,16Z" transform="translate(-1 -1)"/>
</svg>
