<?xml version="1.0" encoding="UTF-8"?>
<svg width="18px" height="18px" viewBox="0 0 18 18" version="1.1" xmlns="http://www.w3.org/2000/svg" xmlns:xlink="http://www.w3.org/1999/xlink">
    <!-- Generator: Sketch 61.2 (89653) - https://sketch.com -->
    <title>ic_日志服务_hover</title>
    <desc>Created with Sketch.</desc>
    <g id="新增图标" stroke="none" stroke-width="1" fill="none" fill-rule="evenodd">
        <g id="画板" transform="translate(-207.000000, -184.000000)">
            <g id="编组-3备份" transform="translate(207.000000, 184.000000)">
                <g id="编组-12" transform="translate(-0.000000, 0.000000)">
                    <rect id="矩形备份-19" fill="#D8D8D8" opacity="0" x="0" y="0" width="18" height="18"></rect>
                    <path d="M5,-0.000596150778 L5,1.99940385 L3,2 L3,16 L15,16 L15,2 L13,1.99940385 L13,-0.000596150778 L15,8.52651283e-14 C16.1045695,8.52651283e-14 17,0.8954305 17,2 L17,16 C17,17.1045695 16.1045695,18 15,18 L3,18 C1.8954305,18 1,17.1045695 1,16 L1,2 C1,0.8954305 1.8954305,8.52651283e-14 3,8.52651283e-14 L5,-0.000596150778 Z M13,10 L13,12 L5,12 L5,10 L13,10 Z M13,6 L13,8 L5,8 L5,6 L13,6 Z M12,9.9475983e-14 L12,2 L6,2 L6,9.9475983e-14 L12,9.9475983e-14 Z" id="形状结合" fill="#FFFFFF" fill-rule="nonzero"></path>
                </g>
            </g>
        </g>
    </g>
</svg>